<svg xmlns="http://www.w3.org/2000/svg" xmlns:xlink="http://www.w3.org/1999/xlink" width="600" zoomAndPan="magnify" viewBox="0 0 450 225" height="300" preserveAspectRatio="xMidYMid meet" version="1.0"><defs><g/><clipPath id="33e455389d"><path d="M 114 90 L 442.71875 90 L 442.71875 169 L 114 169 Z M 114 90 " clip-rule="nonzero"/></clipPath><clipPath id="7233d0f672"><rect x="0" width="329" y="0" height="79"/></clipPath><clipPath id="fbbadcee66"><rect x="0" width="443" y="0" height="211"/></clipPath></defs><g transform="matrix(1, 0, 0, 1, 2, 2)"><g clip-path="url(#fbbadcee66)"><g fill="#38b6ff" fill-opacity="1"><g transform="translate(0.636205, 169.295928)"><g><path d="M 34.203125 -127.8125 L 65.09375 -30.703125 L 66.28125 -30.703125 L 97.234375 -127.8125 L 127.1875 -127.8125 L 83.125 0 L 48.3125 0 L 4.1875 -127.8125 Z M 34.203125 -127.8125 "/></g></g></g><g clip-path="url(#33e455389d)"><g transform="matrix(1, 0, 0, 1, 114, 90)"><g clip-path="url(#7233d0f672)"><g fill="#ffffff" fill-opacity="1"><g transform="translate(1.090054, 62.495429)"><g><path d="M 4.609375 0 L 4.609375 -46.765625 L 35.03125 -46.765625 L 35.03125 -39.671875 L 13.09375 -39.671875 L 13.09375 -26.96875 L 33.453125 -26.96875 L 33.453125 -19.875 L 13.09375 -19.875 L 13.09375 -7.109375 L 35.21875 -7.109375 L 35.21875 0 Z M 4.609375 0 "/></g></g></g><g fill="#ffffff" fill-opacity="1"><g transform="translate(40.169708, 62.495429)"><g><path d="M 4.609375 0 L 4.609375 -46.765625 L 22.15625 -46.765625 C 25.75 -46.765625 28.765625 -46.140625 31.203125 -44.890625 C 33.648438 -43.648438 35.5 -41.90625 36.75 -39.65625 C 38.007812 -37.414062 38.640625 -34.800781 38.640625 -31.8125 C 38.640625 -28.8125 38.003906 -26.210938 36.734375 -24.015625 C 35.460938 -21.816406 33.59375 -20.117188 31.125 -18.921875 C 28.65625 -17.722656 25.625 -17.125 22.03125 -17.125 L 9.546875 -17.125 L 9.546875 -24.15625 L 20.890625 -24.15625 C 22.992188 -24.15625 24.710938 -24.445312 26.046875 -25.03125 C 27.390625 -25.625 28.382812 -26.488281 29.03125 -27.625 C 29.6875 -28.757812 30.015625 -30.15625 30.015625 -31.8125 C 30.015625 -33.46875 29.6875 -34.882812 29.03125 -36.0625 C 28.375 -37.25 27.375 -38.148438 26.03125 -38.765625 C 24.695312 -39.378906 22.96875 -39.6875 20.84375 -39.6875 L 13.09375 -39.6875 L 13.09375 0 Z M 28.78125 -21.1875 L 40.359375 0 L 30.90625 0 L 19.53125 -21.1875 Z M 28.78125 -21.1875 "/></g></g></g><g fill="#ffffff" fill-opacity="1"><g transform="translate(82.013024, 62.495429)"><g><path d="M 46.40625 -23.390625 C 46.40625 -18.347656 45.460938 -14.03125 43.578125 -10.4375 C 41.703125 -6.851562 39.144531 -4.109375 35.90625 -2.203125 C 32.675781 -0.304688 29.015625 0.640625 24.921875 0.640625 C 20.816406 0.640625 17.144531 -0.3125 13.90625 -2.21875 C 10.675781 -4.132812 8.117188 -6.882812 6.234375 -10.46875 C 4.359375 -14.050781 3.421875 -18.359375 3.421875 -23.390625 C 3.421875 -28.429688 4.359375 -32.742188 6.234375 -36.328125 C 8.117188 -39.910156 10.675781 -42.648438 13.90625 -44.546875 C 17.144531 -46.453125 20.816406 -47.40625 24.921875 -47.40625 C 29.015625 -47.40625 32.675781 -46.453125 35.90625 -44.546875 C 39.144531 -42.648438 41.703125 -39.910156 43.578125 -36.328125 C 45.460938 -32.742188 46.40625 -28.429688 46.40625 -23.390625 Z M 37.890625 -23.390625 C 37.890625 -26.929688 37.335938 -29.921875 36.234375 -32.359375 C 35.128906 -34.804688 33.601562 -36.660156 31.65625 -37.921875 C 29.707031 -39.179688 27.460938 -39.8125 24.921875 -39.8125 C 22.378906 -39.8125 20.128906 -39.179688 18.171875 -37.921875 C 16.222656 -36.660156 14.695312 -34.804688 13.59375 -32.359375 C 12.488281 -29.921875 11.9375 -26.929688 11.9375 -23.390625 C 11.9375 -19.835938 12.488281 -16.835938 13.59375 -14.390625 C 14.695312 -11.953125 16.222656 -10.101562 18.171875 -8.84375 C 20.128906 -7.59375 22.378906 -6.96875 24.921875 -6.96875 C 27.460938 -6.96875 29.707031 -7.59375 31.65625 -8.84375 C 33.601562 -10.101562 35.128906 -11.953125 36.234375 -14.390625 C 37.335938 -16.835938 37.890625 -19.835938 37.890625 -23.390625 Z M 37.890625 -23.390625 "/></g></g></g><g fill="#ffffff" fill-opacity="1"><g transform="translate(131.850424, 62.495429)"><g><path d="M 30.03125 -33.921875 C 29.820312 -35.910156 28.925781 -37.457031 27.34375 -38.5625 C 25.769531 -39.675781 23.726562 -40.234375 21.21875 -40.234375 C 19.445312 -40.234375 17.929688 -39.96875 16.671875 -39.4375 C 15.410156 -38.90625 14.441406 -38.179688 13.765625 -37.265625 C 13.097656 -36.359375 12.757812 -35.316406 12.75 -34.140625 C 12.75 -33.171875 12.972656 -32.328125 13.421875 -31.609375 C 13.867188 -30.890625 14.476562 -30.28125 15.25 -29.78125 C 16.03125 -29.289062 16.890625 -28.878906 17.828125 -28.546875 C 18.773438 -28.210938 19.726562 -27.929688 20.6875 -27.703125 L 25.078125 -26.609375 C 26.835938 -26.191406 28.535156 -25.632812 30.171875 -24.9375 C 31.816406 -24.238281 33.289062 -23.351562 34.59375 -22.28125 C 35.894531 -21.21875 36.925781 -19.929688 37.6875 -18.421875 C 38.445312 -16.921875 38.828125 -15.15625 38.828125 -13.125 C 38.828125 -10.382812 38.125 -7.972656 36.71875 -5.890625 C 35.320312 -3.816406 33.300781 -2.195312 30.65625 -1.03125 C 28.019531 0.125 24.828125 0.703125 21.078125 0.703125 C 17.441406 0.703125 14.285156 0.140625 11.609375 -0.984375 C 8.941406 -2.109375 6.859375 -3.75 5.359375 -5.90625 C 3.859375 -8.070312 3.046875 -10.707031 2.921875 -13.8125 L 11.265625 -13.8125 C 11.378906 -12.1875 11.878906 -10.832031 12.765625 -9.75 C 13.648438 -8.664062 14.800781 -7.859375 16.21875 -7.328125 C 17.644531 -6.796875 19.242188 -6.53125 21.015625 -6.53125 C 22.859375 -6.53125 24.472656 -6.804688 25.859375 -7.359375 C 27.253906 -7.921875 28.347656 -8.695312 29.140625 -9.6875 C 29.929688 -10.6875 30.335938 -11.859375 30.359375 -13.203125 C 30.335938 -14.421875 29.976562 -15.425781 29.28125 -16.21875 C 28.582031 -17.019531 27.601562 -17.691406 26.34375 -18.234375 C 25.082031 -18.773438 23.617188 -19.257812 21.953125 -19.6875 L 16.625 -21.0625 C 12.769531 -22.050781 9.726562 -23.550781 7.5 -25.5625 C 5.269531 -27.582031 4.15625 -30.269531 4.15625 -33.625 C 4.15625 -36.375 4.90625 -38.785156 6.40625 -40.859375 C 7.90625 -42.929688 9.945312 -44.539062 12.53125 -45.6875 C 15.125 -46.832031 18.054688 -47.40625 21.328125 -47.40625 C 24.648438 -47.40625 27.5625 -46.832031 30.0625 -45.6875 C 32.570312 -44.539062 34.539062 -42.945312 35.96875 -40.90625 C 37.40625 -38.875 38.144531 -36.546875 38.1875 -33.921875 Z M 30.03125 -33.921875 "/></g></g></g><g fill="#ffffff" fill-opacity="1"><g transform="translate(173.602379, 62.495429)"><g><path d="M 46.40625 -23.390625 C 46.40625 -18.347656 45.460938 -14.03125 43.578125 -10.4375 C 41.703125 -6.851562 39.144531 -4.109375 35.90625 -2.203125 C 32.675781 -0.304688 29.015625 0.640625 24.921875 0.640625 C 20.816406 0.640625 17.144531 -0.3125 13.90625 -2.21875 C 10.675781 -4.132812 8.117188 -6.882812 6.234375 -10.46875 C 4.359375 -14.050781 3.421875 -18.359375 3.421875 -23.390625 C 3.421875 -28.429688 4.359375 -32.742188 6.234375 -36.328125 C 8.117188 -39.910156 10.675781 -42.648438 13.90625 -44.546875 C 17.144531 -46.453125 20.816406 -47.40625 24.921875 -47.40625 C 29.015625 -47.40625 32.675781 -46.453125 35.90625 -44.546875 C 39.144531 -42.648438 41.703125 -39.910156 43.578125 -36.328125 C 45.460938 -32.742188 46.40625 -28.429688 46.40625 -23.390625 Z M 37.890625 -23.390625 C 37.890625 -26.929688 37.335938 -29.921875 36.234375 -32.359375 C 35.128906 -34.804688 33.601562 -36.660156 31.65625 -37.921875 C 29.707031 -39.179688 27.460938 -39.8125 24.921875 -39.8125 C 22.378906 -39.8125 20.128906 -39.179688 18.171875 -37.921875 C 16.222656 -36.660156 14.695312 -34.804688 13.59375 -32.359375 C 12.488281 -29.921875 11.9375 -26.929688 11.9375 -23.390625 C 11.9375 -19.835938 12.488281 -16.835938 13.59375 -14.390625 C 14.695312 -11.953125 16.222656 -10.101562 18.171875 -8.84375 C 20.128906 -7.59375 22.378906 -6.96875 24.921875 -6.96875 C 27.460938 -6.96875 29.707031 -7.59375 31.65625 -8.84375 C 33.601562 -10.101562 35.128906 -11.953125 36.234375 -14.390625 C 37.335938 -16.835938 37.890625 -19.835938 37.890625 -23.390625 Z M 37.890625 -23.390625 "/></g></g></g><g fill="#ffffff" fill-opacity="1"><g transform="translate(223.439779, 62.495429)"><g><path d="M 4.609375 -46.765625 L 14.984375 -46.765625 L 28.875 -12.875 L 29.421875 -12.875 L 43.296875 -46.765625 L 53.671875 -46.765625 L 53.671875 0 L 45.546875 0 L 45.546875 -32.140625 L 45.109375 -32.140625 L 32.171875 -0.140625 L 26.109375 -0.140625 L 13.171875 -32.203125 L 12.75 -32.203125 L 12.75 0 L 4.609375 0 Z M 4.609375 -46.765625 "/></g></g></g><g fill="#ffffff" fill-opacity="1"><g transform="translate(281.728086, 62.495429)"><g><path d="M 10.625 0 L 1.578125 0 L 18.046875 -46.765625 L 28.5 -46.765625 L 44.984375 0 L 35.953125 0 L 23.453125 -37.1875 L 23.09375 -37.1875 Z M 10.921875 -18.34375 L 35.578125 -18.34375 L 35.578125 -11.53125 L 10.921875 -11.53125 Z M 10.921875 -18.34375 "/></g></g></g></g></g></g></g></g></svg>