<svg xmlns="http://www.w3.org/2000/svg" xmlns:xlink="http://www.w3.org/1999/xlink" width="1080" zoomAndPan="magnify" viewBox="0 0 810 809.999993" height="1080" preserveAspectRatio="xMidYMid meet" version="1.0"><defs><g/><clipPath id="eaa4b109f7"><rect x="0" width="453" y="0" height="108"/></clipPath></defs><g fill="#38b6ff" fill-opacity="1"><g transform="translate(102.443274, 459.619991)"><g><path d="M 47.203125 -176.390625 L 89.828125 -42.375 L 91.46875 -42.375 L 134.1875 -176.390625 L 175.53125 -176.390625 L 114.71875 0 L 66.65625 0 L 5.765625 -176.390625 Z M 47.203125 -176.390625 "/></g></g></g><g transform="matrix(1, 0, 0, 1, 260, 350)"><g clip-path="url(#eaa4b109f7)"><g fill="#ffffff" fill-opacity="1"><g transform="translate(0.389297, 86.435334)"><g><path d="M 6.375 0 L 6.375 -64.5625 L 48.359375 -64.5625 L 48.359375 -54.75 L 18.0625 -54.75 L 18.0625 -37.234375 L 46.171875 -37.234375 L 46.171875 -27.421875 L 18.0625 -27.421875 L 18.0625 -9.796875 L 48.609375 -9.796875 L 48.609375 0 Z M 6.375 0 "/></g></g></g><g fill="#ffffff" fill-opacity="1"><g transform="translate(54.319124, 86.435334)"><g><path d="M 6.375 0 L 6.375 -64.5625 L 30.578125 -64.5625 C 35.535156 -64.5625 39.703125 -63.695312 43.078125 -61.96875 C 46.453125 -60.25 49.003906 -57.835938 50.734375 -54.734375 C 52.460938 -51.640625 53.328125 -48.03125 53.328125 -43.90625 C 53.328125 -39.769531 52.453125 -36.179688 50.703125 -33.140625 C 48.953125 -30.109375 46.375 -27.765625 42.96875 -26.109375 C 39.5625 -24.460938 35.378906 -23.640625 30.421875 -23.640625 L 13.171875 -23.640625 L 13.171875 -33.34375 L 28.84375 -33.34375 C 31.738281 -33.34375 34.109375 -33.75 35.953125 -34.5625 C 37.804688 -35.375 39.179688 -36.5625 40.078125 -38.125 C 40.972656 -39.6875 41.421875 -41.613281 41.421875 -43.90625 C 41.421875 -46.195312 40.96875 -48.15625 40.0625 -49.78125 C 39.15625 -51.414062 37.773438 -52.65625 35.921875 -53.5 C 34.078125 -54.351562 31.695312 -54.78125 28.78125 -54.78125 L 18.0625 -54.78125 L 18.0625 0 Z M 39.71875 -29.25 L 55.703125 0 L 42.65625 0 L 26.953125 -29.25 Z M 39.71875 -29.25 "/></g></g></g><g fill="#ffffff" fill-opacity="1"><g transform="translate(112.062797, 86.435334)"><g><path d="M 64.046875 -32.28125 C 64.046875 -25.320312 62.75 -19.367188 60.15625 -14.421875 C 57.5625 -9.472656 54.03125 -5.6875 49.5625 -3.0625 C 45.101562 -0.4375 40.046875 0.875 34.390625 0.875 C 28.734375 0.875 23.671875 -0.441406 19.203125 -3.078125 C 14.742188 -5.710938 11.21875 -9.503906 8.625 -14.453125 C 6.03125 -19.398438 4.734375 -25.34375 4.734375 -32.28125 C 4.734375 -39.238281 6.03125 -45.191406 8.625 -50.140625 C 11.21875 -55.085938 14.742188 -58.875 19.203125 -61.5 C 23.671875 -64.125 28.734375 -65.4375 34.390625 -65.4375 C 40.046875 -65.4375 45.101562 -64.125 49.5625 -61.5 C 54.03125 -58.875 57.5625 -55.085938 60.15625 -50.140625 C 62.75 -45.191406 64.046875 -39.238281 64.046875 -32.28125 Z M 52.296875 -32.28125 C 52.296875 -37.175781 51.53125 -41.304688 50 -44.671875 C 48.476562 -48.046875 46.375 -50.597656 43.6875 -52.328125 C 41 -54.066406 37.898438 -54.9375 34.390625 -54.9375 C 30.878906 -54.9375 27.78125 -54.066406 25.09375 -52.328125 C 22.40625 -50.597656 20.296875 -48.046875 18.765625 -44.671875 C 17.242188 -41.304688 16.484375 -37.175781 16.484375 -32.28125 C 16.484375 -27.382812 17.242188 -23.25 18.765625 -19.875 C 20.296875 -16.5 22.40625 -13.941406 25.09375 -12.203125 C 27.78125 -10.472656 30.878906 -9.609375 34.390625 -9.609375 C 37.898438 -9.609375 41 -10.472656 43.6875 -12.203125 C 46.375 -13.941406 48.476562 -16.5 50 -19.875 C 51.53125 -23.25 52.296875 -27.382812 52.296875 -32.28125 Z M 52.296875 -32.28125 "/></g></g></g><g fill="#ffffff" fill-opacity="1"><g transform="translate(180.838286, 86.435334)"><g><path d="M 41.453125 -46.8125 C 41.160156 -49.5625 39.925781 -51.703125 37.75 -53.234375 C 35.570312 -54.773438 32.75 -55.546875 29.28125 -55.546875 C 26.84375 -55.546875 24.75 -55.175781 23 -54.4375 C 21.257812 -53.695312 19.925781 -52.695312 19 -51.4375 C 18.082031 -50.175781 17.613281 -48.738281 17.59375 -47.125 C 17.59375 -45.78125 17.898438 -44.613281 18.515625 -43.625 C 19.140625 -42.632812 19.988281 -41.796875 21.0625 -41.109375 C 22.132812 -40.429688 23.320312 -39.859375 24.625 -39.390625 C 25.925781 -38.929688 27.238281 -38.546875 28.5625 -38.234375 L 34.609375 -36.71875 C 37.046875 -36.15625 39.394531 -35.390625 41.65625 -34.421875 C 43.914062 -33.453125 45.941406 -32.234375 47.734375 -30.765625 C 49.535156 -29.296875 50.960938 -27.519531 52.015625 -25.4375 C 53.066406 -23.351562 53.59375 -20.914062 53.59375 -18.125 C 53.59375 -14.34375 52.625 -11.015625 50.6875 -8.140625 C 48.75 -5.273438 45.957031 -3.035156 42.3125 -1.421875 C 38.664062 0.179688 34.257812 0.984375 29.09375 0.984375 C 24.070312 0.984375 19.71875 0.207031 16.03125 -1.34375 C 12.34375 -2.90625 9.460938 -5.175781 7.390625 -8.15625 C 5.316406 -11.144531 4.195312 -14.785156 4.03125 -19.078125 L 15.546875 -19.078125 C 15.710938 -16.828125 16.40625 -14.953125 17.625 -13.453125 C 18.84375 -11.960938 20.429688 -10.847656 22.390625 -10.109375 C 24.359375 -9.378906 26.5625 -9.015625 29 -9.015625 C 31.539062 -9.015625 33.769531 -9.394531 35.6875 -10.15625 C 37.613281 -10.925781 39.125 -12 40.21875 -13.375 C 41.3125 -14.757812 41.867188 -16.375 41.890625 -18.21875 C 41.867188 -19.894531 41.375 -21.285156 40.40625 -22.390625 C 39.445312 -23.492188 38.097656 -24.421875 36.359375 -25.171875 C 34.628906 -25.921875 32.609375 -26.585938 30.296875 -27.171875 L 22.953125 -29.0625 C 17.628906 -30.425781 13.425781 -32.5 10.34375 -35.28125 C 7.269531 -38.070312 5.734375 -41.78125 5.734375 -46.40625 C 5.734375 -50.207031 6.769531 -53.535156 8.84375 -56.390625 C 10.914062 -59.242188 13.738281 -61.460938 17.3125 -63.046875 C 20.882812 -64.640625 24.925781 -65.4375 29.4375 -65.4375 C 34.019531 -65.4375 38.039062 -64.640625 41.5 -63.046875 C 44.957031 -61.460938 47.671875 -59.269531 49.640625 -56.46875 C 51.617188 -53.664062 52.640625 -50.445312 52.703125 -46.8125 Z M 41.453125 -46.8125 "/></g></g></g><g fill="#ffffff" fill-opacity="1"><g transform="translate(238.455881, 86.435334)"><g><path d="M 64.046875 -32.28125 C 64.046875 -25.320312 62.75 -19.367188 60.15625 -14.421875 C 57.5625 -9.472656 54.03125 -5.6875 49.5625 -3.0625 C 45.101562 -0.4375 40.046875 0.875 34.390625 0.875 C 28.734375 0.875 23.671875 -0.441406 19.203125 -3.078125 C 14.742188 -5.710938 11.21875 -9.503906 8.625 -14.453125 C 6.03125 -19.398438 4.734375 -25.34375 4.734375 -32.28125 C 4.734375 -39.238281 6.03125 -45.191406 8.625 -50.140625 C 11.21875 -55.085938 14.742188 -58.875 19.203125 -61.5 C 23.671875 -64.125 28.734375 -65.4375 34.390625 -65.4375 C 40.046875 -65.4375 45.101562 -64.125 49.5625 -61.5 C 54.03125 -58.875 57.5625 -55.085938 60.15625 -50.140625 C 62.75 -45.191406 64.046875 -39.238281 64.046875 -32.28125 Z M 52.296875 -32.28125 C 52.296875 -37.175781 51.53125 -41.304688 50 -44.671875 C 48.476562 -48.046875 46.375 -50.597656 43.6875 -52.328125 C 41 -54.066406 37.898438 -54.9375 34.390625 -54.9375 C 30.878906 -54.9375 27.78125 -54.066406 25.09375 -52.328125 C 22.40625 -50.597656 20.296875 -48.046875 18.765625 -44.671875 C 17.242188 -41.304688 16.484375 -37.175781 16.484375 -32.28125 C 16.484375 -27.382812 17.242188 -23.25 18.765625 -19.875 C 20.296875 -16.5 22.40625 -13.941406 25.09375 -12.203125 C 27.78125 -10.472656 30.878906 -9.609375 34.390625 -9.609375 C 37.898438 -9.609375 41 -10.472656 43.6875 -12.203125 C 46.375 -13.941406 48.476562 -16.5 50 -19.875 C 51.53125 -23.25 52.296875 -27.382812 52.296875 -32.28125 Z M 52.296875 -32.28125 "/></g></g></g><g fill="#ffffff" fill-opacity="1"><g transform="translate(307.23137, 86.435334)"><g><path d="M 6.375 -64.5625 L 20.671875 -64.5625 L 39.84375 -17.78125 L 40.59375 -17.78125 L 59.765625 -64.5625 L 74.078125 -64.5625 L 74.078125 0 L 62.859375 0 L 62.859375 -44.34375 L 62.25 -44.34375 L 44.421875 -0.1875 L 36.03125 -0.1875 L 18.1875 -44.453125 L 17.59375 -44.453125 L 17.59375 0 L 6.375 0 Z M 6.375 -64.5625 "/></g></g></g><g fill="#ffffff" fill-opacity="1"><g transform="translate(387.669091, 86.435334)"><g><path d="M 14.65625 0 L 2.171875 0 L 24.90625 -64.5625 L 39.34375 -64.5625 L 62.09375 0 L 49.609375 0 L 32.375 -51.3125 L 31.875 -51.3125 Z M 15.0625 -25.3125 L 49.109375 -25.3125 L 49.109375 -15.921875 L 15.0625 -15.921875 Z M 15.0625 -25.3125 "/></g></g></g></g></g></svg>