<svg xmlns="http://www.w3.org/2000/svg" xmlns:xlink="http://www.w3.org/1999/xlink" width="1080" zoomAndPan="magnify" viewBox="0 0 810 809.999993" height="1080" preserveAspectRatio="xMidYMid meet" version="1.0"><defs><g/><radialGradient gradientTransform="matrix(1, 0, 0, 1, 0.0000035, 0.00002)" gradientUnits="userSpaceOnUse" r="1145.513203" cx="0" id="ba3837d5ef" cy="0" fx="0" fy="0"><stop stop-opacity="1" stop-color="rgb(5.258179%, 5.258179%, 5.258179%)" offset="0"/><stop stop-opacity="1" stop-color="rgb(5.567932%, 5.567932%, 5.567932%)" offset="0.0625"/><stop stop-opacity="1" stop-color="rgb(5.856323%, 5.856323%, 5.856323%)" offset="0.121094"/><stop stop-opacity="1" stop-color="rgb(6.124878%, 6.124878%, 6.124878%)" offset="0.175781"/><stop stop-opacity="1" stop-color="rgb(6.373596%, 6.373596%, 6.373596%)" offset="0.226562"/><stop stop-opacity="1" stop-color="rgb(6.602478%, 6.602478%, 6.602478%)" offset="0.273438"/><stop stop-opacity="1" stop-color="rgb(6.811523%, 6.811523%, 6.811523%)" offset="0.316406"/><stop stop-opacity="1" stop-color="rgb(7.011414%, 7.011414%, 7.011414%)" offset="0.355469"/><stop stop-opacity="1" stop-color="rgb(7.299805%, 7.299805%, 7.299805%)" offset="0.394531"/><stop stop-opacity="1" stop-color="rgb(7.659912%, 7.659912%, 7.659912%)" offset="0.46875"/><stop stop-opacity="1" stop-color="rgb(7.96814%, 7.96814%, 7.96814%)" offset="0.535156"/><stop stop-opacity="1" stop-color="rgb(8.236694%, 8.236694%, 8.236694%)" offset="0.589844"/><stop stop-opacity="1" stop-color="rgb(8.476257%, 8.476257%, 8.476257%)" offset="0.640625"/><stop stop-opacity="1" stop-color="rgb(8.685303%, 8.685303%, 8.685303%)" offset="0.683594"/><stop stop-opacity="1" stop-color="rgb(8.953857%, 8.953857%, 8.953857%)" offset="0.722656"/><stop stop-opacity="1" stop-color="rgb(9.25293%, 9.25293%, 9.25293%)" offset="0.789062"/><stop stop-opacity="1" stop-color="rgb(9.481812%, 9.481812%, 9.481812%)" offset="0.839844"/><stop stop-opacity="1" stop-color="rgb(9.73053%, 9.73053%, 9.73053%)" offset="0.878906"/><stop stop-opacity="1" stop-color="rgb(10.038757%, 10.038757%, 10.038757%)" offset="0.9375"/><stop stop-opacity="1" stop-color="rgb(10.198975%, 10.198975%, 10.198975%)" offset="1"/></radialGradient><clipPath id="7991bcb35d"><path d="M 175.625 577.390625 L 661.625 577.390625 L 661.625 578.589844 L 175.625 578.589844 Z M 175.625 577.390625 " clip-rule="nonzero"/></clipPath><clipPath id="6af7d7debf"><path d="M 0.625 0.390625 L 486.625 0.390625 L 486.625 1.589844 L 0.625 1.589844 Z M 0.625 0.390625 " clip-rule="nonzero"/></clipPath><clipPath id="a7696e6440"><rect x="0" width="487" y="0" height="2"/></clipPath></defs><rect x="-81" width="972" fill="#ffffff" y="-80.999999" height="971.999992" fill-opacity="1"/><rect x="-81" fill="url(#ba3837d5ef)" width="972" y="-80.999999" height="971.999992"/><g clip-path="url(#7991bcb35d)"><g transform="matrix(1, 0, 0, 1, 175, 577)"><g clip-path="url(#a7696e6440)"><g clip-path="url(#6af7d7debf)"><path fill="#3ea6ff" d="M 0.625 0.390625 L 486.625 0.390625 L 486.625 1.589844 L 0.625 1.589844 Z M 0.625 0.390625 " fill-opacity="1" fill-rule="nonzero"/></g></g></g></g><g fill="#ffffff" fill-opacity="1"><g transform="translate(18.74602, 201.87031)"><g><path d="M 24.578125 -91.859375 L 46.78125 -22.0625 L 47.625 -22.0625 L 69.875 -91.859375 L 91.40625 -91.859375 L 59.734375 0 L 34.71875 0 L 3 -91.859375 Z M 24.578125 -91.859375 "/></g></g></g><g fill="#ffffff" fill-opacity="1"><g transform="translate(116.976835, 201.87031)"><g><path d="M 7.984375 0 L 7.984375 -91.859375 L 69.875 -91.859375 L 69.875 -75.84375 L 27.40625 -75.84375 L 27.40625 -53.953125 L 66.6875 -53.953125 L 66.6875 -37.9375 L 27.40625 -37.9375 L 27.40625 -16.015625 L 70.0625 -16.015625 L 70.0625 0 Z M 7.984375 0 "/></g></g></g><g fill="#ffffff" fill-opacity="1"><g transform="translate(198.121999, 201.87031)"><g><path d="M 7.984375 0 L 7.984375 -91.859375 L 44.21875 -91.859375 C 54.65625 -91.859375 62.75 -89.132812 68.5 -83.6875 C 74.257812 -78.25 77.140625 -70.96875 77.140625 -61.84375 C 77.140625 -55.5625 75.738281 -50.191406 72.9375 -45.734375 C 70.144531 -41.285156 66.132812 -37.941406 60.90625 -35.703125 L 80.421875 0 L 58.984375 0 L 41.578125 -32.5625 L 27.40625 -32.5625 L 27.40625 0 Z M 27.40625 -48.171875 L 40.59375 -48.171875 C 51.625 -48.171875 57.140625 -52.726562 57.140625 -61.84375 C 57.140625 -71.257812 51.59375 -75.96875 40.5 -75.96875 L 27.40625 -75.96875 Z M 27.40625 -48.171875 "/></g></g></g><g fill="#ffffff" fill-opacity="1"><g transform="translate(284.783009, 201.87031)"><g><path d="M 92.390625 -45.921875 C 92.390625 -35.910156 90.5 -27.390625 86.71875 -20.359375 C 82.9375 -13.335938 77.800781 -7.976562 71.3125 -4.28125 C 64.820312 -0.59375 57.507812 1.25 49.375 1.25 C 41.21875 1.25 33.894531 -0.597656 27.40625 -4.296875 C 20.914062 -8.003906 15.785156 -13.378906 12.015625 -20.421875 C 8.253906 -27.460938 6.375 -35.960938 6.375 -45.921875 C 6.375 -55.941406 8.253906 -64.460938 12.015625 -71.484375 C 15.785156 -78.515625 20.914062 -83.875 27.40625 -87.5625 C 33.894531 -91.257812 41.21875 -93.109375 49.375 -93.109375 C 57.507812 -93.109375 64.820312 -91.257812 71.3125 -87.5625 C 77.800781 -83.875 82.9375 -78.515625 86.71875 -71.484375 C 90.5 -64.460938 92.390625 -55.941406 92.390625 -45.921875 Z M 72.703125 -45.921875 C 72.703125 -55.671875 70.578125 -63.109375 66.328125 -68.234375 C 62.085938 -73.367188 56.4375 -75.9375 49.375 -75.9375 C 42.320312 -75.9375 36.671875 -73.367188 32.421875 -68.234375 C 28.179688 -63.109375 26.0625 -55.671875 26.0625 -45.921875 C 26.0625 -36.203125 28.179688 -28.769531 32.421875 -23.625 C 36.671875 -18.488281 42.320312 -15.921875 49.375 -15.921875 C 56.4375 -15.921875 62.085938 -18.488281 66.328125 -23.625 C 70.578125 -28.769531 72.703125 -36.203125 72.703125 -45.921875 Z M 72.703125 -45.921875 "/></g></g></g><g fill="#ffffff" fill-opacity="1"><g transform="translate(387.318862, 201.87031)"><g><path d="M 57.8125 -65.4375 C 57.445312 -69.050781 55.894531 -71.859375 53.15625 -73.859375 C 50.425781 -75.867188 46.742188 -76.875 42.109375 -76.875 C 37.359375 -76.875 33.710938 -75.898438 31.171875 -73.953125 C 28.628906 -72.015625 27.359375 -69.566406 27.359375 -66.609375 C 27.296875 -63.316406 28.707031 -60.820312 31.59375 -59.125 C 34.476562 -57.4375 37.910156 -56.128906 41.890625 -55.203125 L 50.140625 -53.234375 C 55.460938 -52.035156 60.191406 -50.300781 64.328125 -48.03125 C 68.472656 -45.757812 71.734375 -42.835938 74.109375 -39.265625 C 76.484375 -35.691406 77.671875 -31.347656 77.671875 -26.234375 C 77.648438 -17.835938 74.503906 -11.148438 68.234375 -6.171875 C 61.972656 -1.191406 53.238281 1.296875 42.03125 1.296875 C 30.875 1.296875 21.972656 -1.242188 15.328125 -6.328125 C 8.691406 -11.410156 5.253906 -18.914062 5.015625 -28.84375 L 23.8125 -28.84375 C 24.144531 -24.238281 25.960938 -20.773438 29.265625 -18.453125 C 32.566406 -16.140625 36.742188 -14.984375 41.796875 -14.984375 C 46.734375 -14.984375 50.671875 -16.03125 53.609375 -18.125 C 56.554688 -20.21875 58.046875 -22.9375 58.078125 -26.28125 C 58.046875 -29.394531 56.6875 -31.785156 54 -33.453125 C 51.3125 -35.128906 47.46875 -36.566406 42.46875 -37.765625 L 32.46875 -40.28125 C 24.726562 -42.132812 18.613281 -45.078125 14.125 -49.109375 C 9.644531 -53.148438 7.414062 -58.546875 7.4375 -65.296875 C 7.414062 -70.859375 8.90625 -75.722656 11.90625 -79.890625 C 14.914062 -84.066406 19.050781 -87.3125 24.3125 -89.625 C 29.570312 -91.945312 35.550781 -93.109375 42.25 -93.109375 C 49.0625 -93.109375 55.015625 -91.941406 60.109375 -89.609375 C 65.210938 -87.273438 69.1875 -84.03125 72.03125 -79.875 C 74.875 -75.71875 76.335938 -70.90625 76.421875 -65.4375 Z M 57.8125 -65.4375 "/></g></g></g><g fill="#ffffff" fill-opacity="1"><g transform="translate(473.800486, 201.87031)"><g><path d="M 92.390625 -45.921875 C 92.390625 -35.910156 90.5 -27.390625 86.71875 -20.359375 C 82.9375 -13.335938 77.800781 -7.976562 71.3125 -4.28125 C 64.820312 -0.59375 57.507812 1.25 49.375 1.25 C 41.21875 1.25 33.894531 -0.597656 27.40625 -4.296875 C 20.914062 -8.003906 15.785156 -13.378906 12.015625 -20.421875 C 8.253906 -27.460938 6.375 -35.960938 6.375 -45.921875 C 6.375 -55.941406 8.253906 -64.460938 12.015625 -71.484375 C 15.785156 -78.515625 20.914062 -83.875 27.40625 -87.5625 C 33.894531 -91.257812 41.21875 -93.109375 49.375 -93.109375 C 57.507812 -93.109375 64.820312 -91.257812 71.3125 -87.5625 C 77.800781 -83.875 82.9375 -78.515625 86.71875 -71.484375 C 90.5 -64.460938 92.390625 -55.941406 92.390625 -45.921875 Z M 72.703125 -45.921875 C 72.703125 -55.671875 70.578125 -63.109375 66.328125 -68.234375 C 62.085938 -73.367188 56.4375 -75.9375 49.375 -75.9375 C 42.320312 -75.9375 36.671875 -73.367188 32.421875 -68.234375 C 28.179688 -63.109375 26.0625 -55.671875 26.0625 -45.921875 C 26.0625 -36.203125 28.179688 -28.769531 32.421875 -23.625 C 36.671875 -18.488281 42.320312 -15.921875 49.375 -15.921875 C 56.4375 -15.921875 62.085938 -18.488281 66.328125 -23.625 C 70.578125 -28.769531 72.703125 -36.203125 72.703125 -45.921875 Z M 72.703125 -45.921875 "/></g></g></g><g fill="#ffffff" fill-opacity="1"><g transform="translate(576.33634, 201.87031)"><g><path d="M 7.984375 -91.859375 L 31.9375 -91.859375 L 57.234375 -30.140625 L 58.296875 -30.140625 L 83.59375 -91.859375 L 107.546875 -91.859375 L 107.546875 0 L 88.71875 0 L 88.71875 -59.78125 L 87.953125 -59.78125 L 64.1875 -0.453125 L 51.359375 -0.453125 L 27.578125 -60.015625 L 26.8125 -60.015625 L 26.8125 0 L 7.984375 0 Z M 7.984375 -91.859375 "/></g></g></g><g fill="#ffffff" fill-opacity="1"><g transform="translate(696.809891, 201.87031)"><g><path d="M 23.8125 0 L 3 0 L 34.71875 -91.859375 L 59.734375 -91.859375 L 91.40625 0 L 70.59375 0 L 63.78125 -20.9375 L 30.625 -20.9375 Z M 35.5625 -36.109375 L 58.890625 -36.109375 L 47.578125 -70.859375 L 46.875 -70.859375 Z M 35.5625 -36.109375 "/></g></g></g><g fill="#ffffff" fill-opacity="1"><g transform="translate(100.435869, 375.191574)"><g><path d="M 10.140625 -43.640625 L 21.5 -9.296875 L 21.953125 -9.296875 L 33.28125 -43.640625 L 41.96875 -43.640625 L 26.59375 0 L 16.828125 0 L 1.46875 -43.640625 Z M 10.140625 -43.640625 "/></g></g></g><g fill="#ffffff" fill-opacity="1"><g transform="translate(143.859031, 375.191574)"><g><path d="M 4.296875 0 L 4.296875 -43.640625 L 32.6875 -43.640625 L 32.6875 -37.015625 L 12.203125 -37.015625 L 12.203125 -25.15625 L 31.21875 -25.15625 L 31.21875 -18.53125 L 12.203125 -18.53125 L 12.203125 -6.625 L 32.859375 -6.625 L 32.859375 0 Z M 4.296875 0 "/></g></g></g><g fill="#ffffff" fill-opacity="1"><g transform="translate(180.314882, 375.191574)"><g><path d="M 4.296875 0 L 4.296875 -43.640625 L 20.671875 -43.640625 C 24.023438 -43.640625 26.835938 -43.054688 29.109375 -41.890625 C 31.390625 -40.722656 33.113281 -39.09375 34.28125 -37 C 35.457031 -34.90625 36.046875 -32.46875 36.046875 -29.6875 C 36.046875 -26.882812 35.453125 -24.457031 34.265625 -22.40625 C 33.085938 -20.351562 31.347656 -18.769531 29.046875 -17.65625 C 26.742188 -16.539062 23.914062 -15.984375 20.5625 -15.984375 L 8.90625 -15.984375 L 8.90625 -22.546875 L 19.5 -22.546875 C 21.457031 -22.546875 23.0625 -22.816406 24.3125 -23.359375 C 25.5625 -23.910156 26.488281 -24.710938 27.09375 -25.765625 C 27.695312 -26.828125 28 -28.132812 28 -29.6875 C 28 -31.226562 27.691406 -32.550781 27.078125 -33.65625 C 26.472656 -34.757812 25.546875 -35.597656 24.296875 -36.171875 C 23.046875 -36.742188 21.429688 -37.03125 19.453125 -37.03125 L 12.203125 -37.03125 L 12.203125 0 Z M 26.84375 -19.765625 L 37.65625 0 L 28.828125 0 L 18.21875 -19.765625 Z M 26.84375 -19.765625 "/></g></g></g><g fill="#ffffff" fill-opacity="1"><g transform="translate(219.348857, 375.191574)"><g><path d="M 43.296875 -21.8125 C 43.296875 -17.113281 42.414062 -13.09375 40.65625 -9.75 C 38.90625 -6.40625 36.519531 -3.84375 33.5 -2.0625 C 30.488281 -0.289062 27.070312 0.59375 23.25 0.59375 C 19.425781 0.59375 16.003906 -0.296875 12.984375 -2.078125 C 9.960938 -3.859375 7.578125 -6.421875 5.828125 -9.765625 C 4.078125 -13.109375 3.203125 -17.125 3.203125 -21.8125 C 3.203125 -26.519531 4.078125 -30.546875 5.828125 -33.890625 C 7.578125 -37.234375 9.960938 -39.789062 12.984375 -41.5625 C 16.003906 -43.34375 19.425781 -44.234375 23.25 -44.234375 C 27.070312 -44.234375 30.488281 -43.34375 33.5 -41.5625 C 36.519531 -39.789062 38.90625 -37.234375 40.65625 -33.890625 C 42.414062 -30.546875 43.296875 -26.519531 43.296875 -21.8125 Z M 35.34375 -21.8125 C 35.34375 -25.125 34.828125 -27.921875 33.796875 -30.203125 C 32.773438 -32.484375 31.351562 -34.207031 29.53125 -35.375 C 27.707031 -36.550781 25.613281 -37.140625 23.25 -37.140625 C 20.875 -37.140625 18.773438 -36.550781 16.953125 -35.375 C 15.140625 -34.207031 13.71875 -32.484375 12.6875 -30.203125 C 11.65625 -27.921875 11.140625 -25.125 11.140625 -21.8125 C 11.140625 -18.507812 11.65625 -15.71875 12.6875 -13.4375 C 13.71875 -11.15625 15.140625 -9.425781 16.953125 -8.25 C 18.773438 -7.082031 20.875 -6.5 23.25 -6.5 C 25.613281 -6.5 27.707031 -7.082031 29.53125 -8.25 C 31.351562 -9.425781 32.773438 -11.15625 33.796875 -13.4375 C 34.828125 -15.71875 35.34375 -18.507812 35.34375 -21.8125 Z M 35.34375 -21.8125 "/></g></g></g><g fill="#ffffff" fill-opacity="1"><g transform="translate(265.840191, 375.191574)"><g><path d="M 28.015625 -31.640625 C 27.816406 -33.503906 26.984375 -34.953125 25.515625 -35.984375 C 24.046875 -37.023438 22.140625 -37.546875 19.796875 -37.546875 C 18.148438 -37.546875 16.734375 -37.296875 15.546875 -36.796875 C 14.367188 -36.296875 13.46875 -35.617188 12.84375 -34.765625 C 12.21875 -33.921875 11.898438 -32.953125 11.890625 -31.859375 C 11.890625 -30.941406 12.097656 -30.148438 12.515625 -29.484375 C 12.929688 -28.816406 13.5 -28.253906 14.21875 -27.796875 C 14.945312 -27.335938 15.753906 -26.953125 16.640625 -26.640625 C 17.523438 -26.328125 18.410156 -26.0625 19.296875 -25.84375 L 23.390625 -24.828125 C 25.035156 -24.441406 26.625 -23.921875 28.15625 -23.265625 C 29.6875 -22.609375 31.054688 -21.78125 32.265625 -20.78125 C 33.484375 -19.789062 34.445312 -18.59375 35.15625 -17.1875 C 35.863281 -15.78125 36.21875 -14.132812 36.21875 -12.25 C 36.21875 -9.695312 35.5625 -7.445312 34.25 -5.5 C 32.945312 -3.5625 31.0625 -2.050781 28.59375 -0.96875 C 26.132812 0.113281 23.160156 0.65625 19.671875 0.65625 C 16.273438 0.65625 13.328125 0.128906 10.828125 -0.921875 C 8.335938 -1.972656 6.390625 -3.503906 4.984375 -5.515625 C 3.585938 -7.535156 2.835938 -9.992188 2.734375 -12.890625 L 10.5 -12.890625 C 10.613281 -11.367188 11.082031 -10.101562 11.90625 -9.09375 C 12.726562 -8.082031 13.800781 -7.328125 15.125 -6.828125 C 16.457031 -6.335938 17.953125 -6.09375 19.609375 -6.09375 C 21.328125 -6.09375 22.832031 -6.351562 24.125 -6.875 C 25.425781 -7.394531 26.445312 -8.117188 27.1875 -9.046875 C 27.925781 -9.972656 28.300781 -11.0625 28.3125 -12.3125 C 28.300781 -13.445312 27.96875 -14.382812 27.3125 -15.125 C 26.65625 -15.875 25.738281 -16.5 24.5625 -17 C 23.394531 -17.507812 22.03125 -17.960938 20.46875 -18.359375 L 15.515625 -19.640625 C 11.921875 -20.566406 9.082031 -21.96875 7 -23.84375 C 4.914062 -25.726562 3.875 -28.234375 3.875 -31.359375 C 3.875 -33.929688 4.570312 -36.179688 5.96875 -38.109375 C 7.375 -40.046875 9.28125 -41.550781 11.6875 -42.625 C 14.101562 -43.695312 16.84375 -44.234375 19.90625 -44.234375 C 23 -44.234375 25.710938 -43.695312 28.046875 -42.625 C 30.390625 -41.550781 32.226562 -40.066406 33.5625 -38.171875 C 34.894531 -36.273438 35.582031 -34.097656 35.625 -31.640625 Z M 28.015625 -31.640625 "/></g></g></g><g fill="#ffffff" fill-opacity="1"><g transform="translate(304.788931, 375.191574)"><g><path d="M 43.296875 -21.8125 C 43.296875 -17.113281 42.414062 -13.09375 40.65625 -9.75 C 38.90625 -6.40625 36.519531 -3.84375 33.5 -2.0625 C 30.488281 -0.289062 27.070312 0.59375 23.25 0.59375 C 19.425781 0.59375 16.003906 -0.296875 12.984375 -2.078125 C 9.960938 -3.859375 7.578125 -6.421875 5.828125 -9.765625 C 4.078125 -13.109375 3.203125 -17.125 3.203125 -21.8125 C 3.203125 -26.519531 4.078125 -30.546875 5.828125 -33.890625 C 7.578125 -37.234375 9.960938 -39.789062 12.984375 -41.5625 C 16.003906 -43.34375 19.425781 -44.234375 23.25 -44.234375 C 27.070312 -44.234375 30.488281 -43.34375 33.5 -41.5625 C 36.519531 -39.789062 38.90625 -37.234375 40.65625 -33.890625 C 42.414062 -30.546875 43.296875 -26.519531 43.296875 -21.8125 Z M 35.34375 -21.8125 C 35.34375 -25.125 34.828125 -27.921875 33.796875 -30.203125 C 32.773438 -32.484375 31.351562 -34.207031 29.53125 -35.375 C 27.707031 -36.550781 25.613281 -37.140625 23.25 -37.140625 C 20.875 -37.140625 18.773438 -36.550781 16.953125 -35.375 C 15.140625 -34.207031 13.71875 -32.484375 12.6875 -30.203125 C 11.65625 -27.921875 11.140625 -25.125 11.140625 -21.8125 C 11.140625 -18.507812 11.65625 -15.71875 12.6875 -13.4375 C 13.71875 -11.15625 15.140625 -9.425781 16.953125 -8.25 C 18.773438 -7.082031 20.875 -6.5 23.25 -6.5 C 25.613281 -6.5 27.707031 -7.082031 29.53125 -8.25 C 31.351562 -9.425781 32.773438 -11.15625 33.796875 -13.4375 C 34.828125 -15.71875 35.34375 -18.507812 35.34375 -21.8125 Z M 35.34375 -21.8125 "/></g></g></g><g fill="#ffffff" fill-opacity="1"><g transform="translate(351.280277, 375.191574)"><g><path d="M 4.296875 -43.640625 L 13.984375 -43.640625 L 26.9375 -12.015625 L 27.4375 -12.015625 L 40.390625 -43.640625 L 50.078125 -43.640625 L 50.078125 0 L 42.484375 0 L 42.484375 -29.984375 L 42.078125 -29.984375 L 30.015625 -0.125 L 24.359375 -0.125 L 12.296875 -30.046875 L 11.890625 -30.046875 L 11.890625 0 L 4.296875 0 Z M 4.296875 -43.640625 "/></g></g></g><g fill="#ffffff" fill-opacity="1"><g transform="translate(405.655091, 375.191574)"><g><path d="M 9.90625 0 L 1.46875 0 L 16.828125 -43.640625 L 26.59375 -43.640625 L 41.96875 0 L 33.53125 0 L 21.875 -34.6875 L 21.546875 -34.6875 Z M 10.1875 -17.109375 L 33.203125 -17.109375 L 33.203125 -10.765625 L 10.1875 -10.765625 Z M 10.1875 -17.109375 "/></g></g></g><g fill="#3ea6ff" fill-opacity="1"><g transform="translate(473.31322, 375.191574)"><g><path d="M 4.296875 0 L 4.296875 -43.640625 L 21.015625 -43.640625 C 24.160156 -43.640625 26.78125 -43.144531 28.875 -42.15625 C 30.976562 -41.164062 32.550781 -39.816406 33.59375 -38.109375 C 34.632812 -36.410156 35.15625 -34.484375 35.15625 -32.328125 C 35.15625 -30.546875 34.8125 -29.023438 34.125 -27.765625 C 33.445312 -26.515625 32.53125 -25.5 31.375 -24.71875 C 30.226562 -23.9375 28.945312 -23.375 27.53125 -23.03125 L 27.53125 -22.609375 C 29.070312 -22.523438 30.554688 -22.050781 31.984375 -21.1875 C 33.421875 -20.332031 34.59375 -19.125 35.5 -17.5625 C 36.40625 -16 36.859375 -14.109375 36.859375 -11.890625 C 36.859375 -9.628906 36.3125 -7.597656 35.21875 -5.796875 C 34.125 -4.003906 32.472656 -2.585938 30.265625 -1.546875 C 28.066406 -0.515625 25.300781 0 21.96875 0 Z M 12.203125 -6.609375 L 20.703125 -6.609375 C 23.578125 -6.609375 25.648438 -7.15625 26.921875 -8.25 C 28.191406 -9.351562 28.828125 -10.769531 28.828125 -12.5 C 28.828125 -13.800781 28.503906 -14.972656 27.859375 -16.015625 C 27.222656 -17.054688 26.316406 -17.878906 25.140625 -18.484375 C 23.960938 -19.085938 22.554688 -19.390625 20.921875 -19.390625 L 12.203125 -19.390625 Z M 12.203125 -25.078125 L 20.03125 -25.078125 C 21.394531 -25.078125 22.625 -25.328125 23.71875 -25.828125 C 24.8125 -26.335938 25.671875 -27.054688 26.296875 -27.984375 C 26.929688 -28.910156 27.25 -30.015625 27.25 -31.296875 C 27.25 -32.984375 26.65625 -34.375 25.46875 -35.46875 C 24.28125 -36.5625 22.523438 -37.109375 20.203125 -37.109375 L 12.203125 -37.109375 Z M 12.203125 -25.078125 "/></g></g></g><g fill="#3ea6ff" fill-opacity="1"><g transform="translate(512.752019, 375.191574)"><g><path d="M 24.828125 -13.765625 L 24.828125 -32.734375 L 32.53125 -32.734375 L 32.53125 0 L 25.0625 0 L 25.0625 -5.8125 L 24.71875 -5.8125 C 23.976562 -3.976562 22.765625 -2.476562 21.078125 -1.3125 C 19.398438 -0.15625 17.332031 0.421875 14.875 0.421875 C 12.726562 0.421875 10.832031 -0.0546875 9.1875 -1.015625 C 7.550781 -1.972656 6.269531 -3.367188 5.34375 -5.203125 C 4.425781 -7.046875 3.96875 -9.273438 3.96875 -11.890625 L 3.96875 -32.734375 L 11.671875 -32.734375 L 11.671875 -13.078125 C 11.671875 -11.003906 12.238281 -9.359375 13.375 -8.140625 C 14.507812 -6.921875 16.003906 -6.3125 17.859375 -6.3125 C 18.992188 -6.3125 20.09375 -6.585938 21.15625 -7.140625 C 22.21875 -7.691406 23.09375 -8.515625 23.78125 -9.609375 C 24.476562 -10.710938 24.828125 -12.097656 24.828125 -13.765625 Z M 24.828125 -13.765625 "/></g></g></g><g fill="#3ea6ff" fill-opacity="1"><g transform="translate(549.250487, 375.191574)"><g><path d="M 16.109375 0.578125 C 13.535156 0.578125 11.234375 -0.0820312 9.203125 -1.40625 C 7.171875 -2.726562 5.566406 -4.644531 4.390625 -7.15625 C 3.210938 -9.675781 2.625 -12.734375 2.625 -16.328125 C 2.625 -19.960938 3.222656 -23.03125 4.421875 -25.53125 C 5.617188 -28.039062 7.238281 -29.9375 9.28125 -31.21875 C 11.332031 -32.507812 13.613281 -33.15625 16.125 -33.15625 C 18.039062 -33.15625 19.617188 -32.832031 20.859375 -32.1875 C 22.097656 -31.539062 23.078125 -30.765625 23.796875 -29.859375 C 24.523438 -28.960938 25.085938 -28.113281 25.484375 -27.3125 L 25.796875 -27.3125 L 25.796875 -43.640625 L 33.53125 -43.640625 L 33.53125 0 L 25.953125 0 L 25.953125 -5.15625 L 25.484375 -5.15625 C 25.085938 -4.363281 24.507812 -3.519531 23.75 -2.625 C 23 -1.738281 22.003906 -0.984375 20.765625 -0.359375 C 19.535156 0.265625 17.984375 0.578125 16.109375 0.578125 Z M 18.265625 -5.75 C 19.890625 -5.75 21.273438 -6.191406 22.421875 -7.078125 C 23.578125 -7.972656 24.453125 -9.210938 25.046875 -10.796875 C 25.648438 -12.390625 25.953125 -14.242188 25.953125 -16.359375 C 25.953125 -18.472656 25.65625 -20.3125 25.0625 -21.875 C 24.476562 -23.4375 23.613281 -24.648438 22.46875 -25.515625 C 21.320312 -26.390625 19.921875 -26.828125 18.265625 -26.828125 C 16.546875 -26.828125 15.109375 -26.378906 13.953125 -25.484375 C 12.804688 -24.585938 11.941406 -23.347656 11.359375 -21.765625 C 10.773438 -20.191406 10.484375 -18.390625 10.484375 -16.359375 C 10.484375 -14.316406 10.773438 -12.492188 11.359375 -10.890625 C 11.953125 -9.296875 12.828125 -8.039062 13.984375 -7.125 C 15.140625 -6.207031 16.566406 -5.75 18.265625 -5.75 Z M 18.265625 -5.75 "/></g></g></g><g fill="#3ea6ff" fill-opacity="1"><g transform="translate(587.06997, 375.191574)"><g><path d="M 18.203125 12.953125 C 15.429688 12.953125 13.050781 12.578125 11.0625 11.828125 C 9.070312 11.085938 7.472656 10.09375 6.265625 8.84375 C 5.054688 7.59375 4.21875 6.207031 3.75 4.6875 L 10.703125 3 C 11.015625 3.644531 11.46875 4.28125 12.0625 4.90625 C 12.65625 5.539062 13.457031 6.066406 14.46875 6.484375 C 15.488281 6.898438 16.773438 7.109375 18.328125 7.109375 C 20.515625 7.109375 22.320312 6.578125 23.75 5.515625 C 25.1875 4.460938 25.90625 2.726562 25.90625 0.3125 L 25.90625 -5.875 L 25.53125 -5.875 C 25.125 -5.082031 24.539062 -4.265625 23.78125 -3.421875 C 23.03125 -2.585938 22.03125 -1.882812 20.78125 -1.3125 C 19.539062 -0.75 17.984375 -0.46875 16.109375 -0.46875 C 13.597656 -0.46875 11.320312 -1.0625 9.28125 -2.25 C 7.238281 -3.4375 5.617188 -5.210938 4.421875 -7.578125 C 3.222656 -9.941406 2.625 -12.90625 2.625 -16.46875 C 2.625 -20.0625 3.222656 -23.097656 4.421875 -25.578125 C 5.617188 -28.054688 7.238281 -29.9375 9.28125 -31.21875 C 11.332031 -32.507812 13.613281 -33.15625 16.125 -33.15625 C 18.039062 -33.15625 19.617188 -32.832031 20.859375 -32.1875 C 22.109375 -31.539062 23.101562 -30.765625 23.84375 -29.859375 C 24.582031 -28.960938 25.144531 -28.113281 25.53125 -27.3125 L 25.953125 -27.3125 L 25.953125 -32.734375 L 33.5625 -32.734375 L 33.5625 0.53125 C 33.5625 3.332031 32.890625 5.648438 31.546875 7.484375 C 30.210938 9.316406 28.390625 10.6875 26.078125 11.59375 C 23.765625 12.5 21.140625 12.953125 18.203125 12.953125 Z M 18.265625 -6.515625 C 19.890625 -6.515625 21.273438 -6.910156 22.421875 -7.703125 C 23.578125 -8.503906 24.453125 -9.648438 25.046875 -11.140625 C 25.648438 -12.628906 25.953125 -14.421875 25.953125 -16.515625 C 25.953125 -18.578125 25.65625 -20.378906 25.0625 -21.921875 C 24.476562 -23.472656 23.613281 -24.675781 22.46875 -25.53125 C 21.320312 -26.394531 19.921875 -26.828125 18.265625 -26.828125 C 16.546875 -26.828125 15.109375 -26.378906 13.953125 -25.484375 C 12.804688 -24.585938 11.941406 -23.359375 11.359375 -21.796875 C 10.773438 -20.242188 10.484375 -18.484375 10.484375 -16.515625 C 10.484375 -14.515625 10.773438 -12.765625 11.359375 -11.265625 C 11.953125 -9.765625 12.828125 -8.597656 13.984375 -7.765625 C 15.140625 -6.929688 16.566406 -6.515625 18.265625 -6.515625 Z M 18.265625 -6.515625 "/></g></g></g><g fill="#3ea6ff" fill-opacity="1"><g transform="translate(624.591163, 375.191574)"><g><path d="M 18.453125 0.640625 C 15.171875 0.640625 12.335938 -0.0390625 9.953125 -1.40625 C 7.578125 -2.78125 5.75 -4.726562 4.46875 -7.25 C 3.195312 -9.769531 2.5625 -12.742188 2.5625 -16.171875 C 2.5625 -19.535156 3.203125 -22.492188 4.484375 -25.046875 C 5.765625 -27.597656 7.5625 -29.585938 9.875 -31.015625 C 12.195312 -32.441406 14.921875 -33.15625 18.046875 -33.15625 C 20.066406 -33.15625 21.972656 -32.832031 23.765625 -32.1875 C 25.566406 -31.539062 27.160156 -30.539062 28.546875 -29.1875 C 29.929688 -27.84375 31.019531 -26.128906 31.8125 -24.046875 C 32.601562 -21.960938 33 -19.488281 33 -16.625 L 33 -14.25 L 6.171875 -14.25 L 6.171875 -19.453125 L 25.609375 -19.453125 C 25.597656 -20.929688 25.28125 -22.25 24.65625 -23.40625 C 24.03125 -24.5625 23.160156 -25.472656 22.046875 -26.140625 C 20.929688 -26.804688 19.632812 -27.140625 18.15625 -27.140625 C 16.570312 -27.140625 15.179688 -26.757812 13.984375 -26 C 12.796875 -25.238281 11.875 -24.242188 11.21875 -23.015625 C 10.5625 -21.785156 10.222656 -20.441406 10.203125 -18.984375 L 10.203125 -14.453125 C 10.203125 -12.546875 10.550781 -10.910156 11.25 -9.546875 C 11.945312 -8.191406 12.921875 -7.15625 14.171875 -6.4375 C 15.421875 -5.726562 16.882812 -5.375 18.5625 -5.375 C 19.675781 -5.375 20.6875 -5.53125 21.59375 -5.84375 C 22.507812 -6.164062 23.300781 -6.640625 23.96875 -7.265625 C 24.632812 -7.890625 25.140625 -8.664062 25.484375 -9.59375 L 32.6875 -8.78125 C 32.226562 -6.875 31.363281 -5.210938 30.09375 -3.796875 C 28.820312 -2.390625 27.195312 -1.296875 25.21875 -0.515625 C 23.25 0.253906 20.992188 0.640625 18.453125 0.640625 Z M 18.453125 0.640625 "/></g></g></g><g fill="#3ea6ff" fill-opacity="1"><g transform="translate(660.152131, 375.191574)"><g><path d="M 20.3125 -32.734375 L 20.3125 -26.765625 L 1.484375 -26.765625 L 1.484375 -32.734375 Z M 6.140625 -40.5625 L 13.84375 -40.5625 L 13.84375 -9.84375 C 13.84375 -8.800781 14.003906 -8.003906 14.328125 -7.453125 C 14.648438 -6.910156 15.070312 -6.539062 15.59375 -6.34375 C 16.125 -6.144531 16.707031 -6.046875 17.34375 -6.046875 C 17.820312 -6.046875 18.265625 -6.082031 18.671875 -6.15625 C 19.078125 -6.226562 19.390625 -6.289062 19.609375 -6.34375 L 20.90625 -0.3125 C 20.488281 -0.175781 19.898438 -0.0234375 19.140625 0.140625 C 18.378906 0.316406 17.453125 0.421875 16.359375 0.453125 C 14.429688 0.503906 12.691406 0.207031 11.140625 -0.4375 C 9.597656 -1.082031 8.375 -2.085938 7.46875 -3.453125 C 6.5625 -4.816406 6.117188 -6.519531 6.140625 -8.5625 Z M 6.140625 -40.5625 "/></g></g></g><g fill="#ffffff" fill-opacity="1"><g transform="translate(231.234367, 562.496296)"><g><path d="M 14.015625 -15.828125 C 13.910156 -16.753906 13.488281 -17.472656 12.75 -17.984375 C 12.019531 -18.503906 11.066406 -18.765625 9.890625 -18.765625 C 9.066406 -18.765625 8.359375 -18.640625 7.765625 -18.390625 C 7.179688 -18.148438 6.734375 -17.816406 6.421875 -17.390625 C 6.109375 -16.960938 5.945312 -16.472656 5.9375 -15.921875 C 5.9375 -15.472656 6.039062 -15.082031 6.25 -14.75 C 6.46875 -14.414062 6.753906 -14.128906 7.109375 -13.890625 C 7.472656 -13.660156 7.875 -13.46875 8.3125 -13.3125 C 8.757812 -13.15625 9.207031 -13.023438 9.65625 -12.921875 L 11.703125 -12.40625 C 12.523438 -12.21875 13.316406 -11.957031 14.078125 -11.625 C 14.835938 -11.300781 15.519531 -10.890625 16.125 -10.390625 C 16.738281 -9.898438 17.222656 -9.300781 17.578125 -8.59375 C 17.929688 -7.894531 18.109375 -7.070312 18.109375 -6.125 C 18.109375 -4.84375 17.78125 -3.71875 17.125 -2.75 C 16.476562 -1.78125 15.535156 -1.023438 14.296875 -0.484375 C 13.066406 0.0546875 11.578125 0.328125 9.828125 0.328125 C 8.128906 0.328125 6.65625 0.0664062 5.40625 -0.453125 C 4.164062 -0.984375 3.195312 -1.75 2.5 -2.75 C 1.800781 -3.757812 1.421875 -4.992188 1.359375 -6.453125 L 5.25 -6.453125 C 5.3125 -5.691406 5.546875 -5.054688 5.953125 -4.546875 C 6.367188 -4.046875 6.90625 -3.671875 7.5625 -3.421875 C 8.226562 -3.171875 8.972656 -3.046875 9.796875 -3.046875 C 10.660156 -3.046875 11.414062 -3.175781 12.0625 -3.4375 C 12.71875 -3.695312 13.226562 -4.054688 13.59375 -4.515625 C 13.957031 -4.984375 14.144531 -5.53125 14.15625 -6.15625 C 14.144531 -6.726562 13.976562 -7.195312 13.65625 -7.5625 C 13.332031 -7.9375 12.875 -8.25 12.28125 -8.5 C 11.695312 -8.757812 11.015625 -8.988281 10.234375 -9.1875 L 7.75 -9.828125 C 5.957031 -10.285156 4.539062 -10.984375 3.5 -11.921875 C 2.457031 -12.867188 1.9375 -14.125 1.9375 -15.6875 C 1.9375 -16.96875 2.285156 -18.09375 2.984375 -19.0625 C 3.679688 -20.03125 4.632812 -20.78125 5.84375 -21.3125 C 7.050781 -21.84375 8.421875 -22.109375 9.953125 -22.109375 C 11.492188 -22.109375 12.847656 -21.84375 14.015625 -21.3125 C 15.191406 -20.78125 16.113281 -20.035156 16.78125 -19.078125 C 17.445312 -18.128906 17.789062 -17.046875 17.8125 -15.828125 Z M 14.015625 -15.828125 "/></g></g></g><g fill="#ffffff" fill-opacity="1"><g transform="translate(250.708743, 562.496296)"><g><path d="M 10.15625 -16.359375 L 10.15625 -13.375 L 0.75 -13.375 L 0.75 -16.359375 Z M 3.0625 -20.28125 L 6.921875 -20.28125 L 6.921875 -4.921875 C 6.921875 -4.398438 7 -4.003906 7.15625 -3.734375 C 7.320312 -3.460938 7.535156 -3.273438 7.796875 -3.171875 C 8.054688 -3.078125 8.347656 -3.03125 8.671875 -3.03125 C 8.910156 -3.03125 9.128906 -3.046875 9.328125 -3.078125 C 9.535156 -3.109375 9.691406 -3.140625 9.796875 -3.171875 L 10.453125 -0.15625 C 10.242188 -0.0820312 9.945312 -0.00390625 9.5625 0.078125 C 9.1875 0.160156 8.726562 0.207031 8.1875 0.21875 C 7.21875 0.25 6.34375 0.101562 5.5625 -0.21875 C 4.789062 -0.539062 4.179688 -1.039062 3.734375 -1.71875 C 3.285156 -2.40625 3.0625 -3.257812 3.0625 -4.28125 Z M 3.0625 -20.28125 "/></g></g></g><g fill="#ffffff" fill-opacity="1"><g transform="translate(262.107859, 562.496296)"><g><path d="M 1.984375 0 L 1.984375 -16.359375 L 5.71875 -16.359375 L 5.71875 -13.640625 L 5.890625 -13.640625 C 6.191406 -14.578125 6.703125 -15.300781 7.421875 -15.8125 C 8.148438 -16.332031 8.984375 -16.59375 9.921875 -16.59375 C 10.140625 -16.59375 10.378906 -16.582031 10.640625 -16.5625 C 10.910156 -16.550781 11.132812 -16.523438 11.3125 -16.484375 L 11.3125 -12.9375 C 11.144531 -13 10.882812 -13.050781 10.53125 -13.09375 C 10.1875 -13.144531 9.851562 -13.171875 9.53125 -13.171875 C 8.820312 -13.171875 8.1875 -13.019531 7.625 -12.71875 C 7.070312 -12.414062 6.632812 -12 6.3125 -11.46875 C 6 -10.9375 5.84375 -10.320312 5.84375 -9.625 L 5.84375 0 Z M 1.984375 0 "/></g></g></g><g fill="#ffffff" fill-opacity="1"><g transform="translate(274.007677, 562.496296)"><g><path d="M 12.40625 -6.875 L 12.40625 -16.359375 L 16.265625 -16.359375 L 16.265625 0 L 12.53125 0 L 12.53125 -2.90625 L 12.359375 -2.90625 C 11.984375 -1.988281 11.375 -1.238281 10.53125 -0.65625 C 9.695312 -0.0703125 8.664062 0.21875 7.4375 0.21875 C 6.363281 0.21875 5.414062 -0.0195312 4.59375 -0.5 C 3.769531 -0.976562 3.128906 -1.675781 2.671875 -2.59375 C 2.210938 -3.519531 1.984375 -4.632812 1.984375 -5.9375 L 1.984375 -16.359375 L 5.84375 -16.359375 L 5.84375 -6.546875 C 5.84375 -5.503906 6.125 -4.675781 6.6875 -4.0625 C 7.257812 -3.457031 8.003906 -3.15625 8.921875 -3.15625 C 9.492188 -3.15625 10.046875 -3.289062 10.578125 -3.5625 C 11.109375 -3.84375 11.546875 -4.257812 11.890625 -4.8125 C 12.234375 -5.363281 12.40625 -6.050781 12.40625 -6.875 Z M 12.40625 -6.875 "/></g></g></g><g fill="#ffffff" fill-opacity="1"><g transform="translate(292.256905, 562.496296)"><g><path d="M 5.5 -5.140625 L 5.484375 -9.796875 L 6.109375 -9.796875 L 11.984375 -16.359375 L 16.484375 -16.359375 L 9.265625 -8.3125 L 8.453125 -8.3125 Z M 1.984375 0 L 1.984375 -21.8125 L 5.84375 -21.8125 L 5.84375 0 Z M 12.25 0 L 6.921875 -7.453125 L 9.53125 -10.15625 L 16.859375 0 Z M 12.25 0 "/></g></g></g><g fill="#ffffff" fill-opacity="1"><g transform="translate(309.323616, 562.496296)"><g><path d="M 10.15625 -16.359375 L 10.15625 -13.375 L 0.75 -13.375 L 0.75 -16.359375 Z M 3.0625 -20.28125 L 6.921875 -20.28125 L 6.921875 -4.921875 C 6.921875 -4.398438 7 -4.003906 7.15625 -3.734375 C 7.320312 -3.460938 7.535156 -3.273438 7.796875 -3.171875 C 8.054688 -3.078125 8.347656 -3.03125 8.671875 -3.03125 C 8.910156 -3.03125 9.128906 -3.046875 9.328125 -3.078125 C 9.535156 -3.109375 9.691406 -3.140625 9.796875 -3.171875 L 10.453125 -0.15625 C 10.242188 -0.0820312 9.945312 -0.00390625 9.5625 0.078125 C 9.1875 0.160156 8.726562 0.207031 8.1875 0.21875 C 7.21875 0.25 6.34375 0.101562 5.5625 -0.21875 C 4.789062 -0.539062 4.179688 -1.039062 3.734375 -1.71875 C 3.285156 -2.40625 3.0625 -3.257812 3.0625 -4.28125 Z M 3.0625 -20.28125 "/></g></g></g><g fill="#ffffff" fill-opacity="1"><g transform="translate(320.722732, 562.496296)"><g><path d="M 12.40625 -6.875 L 12.40625 -16.359375 L 16.265625 -16.359375 L 16.265625 0 L 12.53125 0 L 12.53125 -2.90625 L 12.359375 -2.90625 C 11.984375 -1.988281 11.375 -1.238281 10.53125 -0.65625 C 9.695312 -0.0703125 8.664062 0.21875 7.4375 0.21875 C 6.363281 0.21875 5.414062 -0.0195312 4.59375 -0.5 C 3.769531 -0.976562 3.128906 -1.675781 2.671875 -2.59375 C 2.210938 -3.519531 1.984375 -4.632812 1.984375 -5.9375 L 1.984375 -16.359375 L 5.84375 -16.359375 L 5.84375 -6.546875 C 5.84375 -5.503906 6.125 -4.675781 6.6875 -4.0625 C 7.257812 -3.457031 8.003906 -3.15625 8.921875 -3.15625 C 9.492188 -3.15625 10.046875 -3.289062 10.578125 -3.5625 C 11.109375 -3.84375 11.546875 -4.257812 11.890625 -4.8125 C 12.234375 -5.363281 12.40625 -6.050781 12.40625 -6.875 Z M 12.40625 -6.875 "/></g></g></g><g fill="#ffffff" fill-opacity="1"><g transform="translate(338.97196, 562.496296)"><g><path d="M 1.984375 0 L 1.984375 -16.359375 L 5.71875 -16.359375 L 5.71875 -13.640625 L 5.890625 -13.640625 C 6.191406 -14.578125 6.703125 -15.300781 7.421875 -15.8125 C 8.148438 -16.332031 8.984375 -16.59375 9.921875 -16.59375 C 10.140625 -16.59375 10.378906 -16.582031 10.640625 -16.5625 C 10.910156 -16.550781 11.132812 -16.523438 11.3125 -16.484375 L 11.3125 -12.9375 C 11.144531 -13 10.882812 -13.050781 10.53125 -13.09375 C 10.1875 -13.144531 9.851562 -13.171875 9.53125 -13.171875 C 8.820312 -13.171875 8.1875 -13.019531 7.625 -12.71875 C 7.070312 -12.414062 6.632812 -12 6.3125 -11.46875 C 6 -10.9375 5.84375 -10.320312 5.84375 -9.625 L 5.84375 0 Z M 1.984375 0 "/></g></g></g><g fill="#ffffff" fill-opacity="1"><g transform="translate(350.871778, 562.496296)"><g/></g></g><g fill="#ffffff" fill-opacity="1"><g transform="translate(358.318482, 562.496296)"><g><path d="M 14.921875 -12.03125 L 11.40625 -11.65625 C 11.300781 -12.007812 11.125 -12.34375 10.875 -12.65625 C 10.632812 -12.96875 10.304688 -13.21875 9.890625 -13.40625 C 9.484375 -13.601562 8.984375 -13.703125 8.390625 -13.703125 C 7.585938 -13.703125 6.910156 -13.523438 6.359375 -13.171875 C 5.816406 -12.828125 5.550781 -12.378906 5.5625 -11.828125 C 5.550781 -11.347656 5.722656 -10.957031 6.078125 -10.65625 C 6.441406 -10.363281 7.039062 -10.117188 7.875 -9.921875 L 10.671875 -9.328125 C 12.210938 -8.992188 13.359375 -8.460938 14.109375 -7.734375 C 14.867188 -7.015625 15.253906 -6.070312 15.265625 -4.90625 C 15.253906 -3.875 14.953125 -2.960938 14.359375 -2.171875 C 13.773438 -1.390625 12.957031 -0.78125 11.90625 -0.34375 C 10.851562 0.09375 9.644531 0.3125 8.28125 0.3125 C 6.28125 0.3125 4.664062 -0.101562 3.4375 -0.9375 C 2.21875 -1.78125 1.488281 -2.957031 1.25 -4.46875 L 5.015625 -4.828125 C 5.191406 -4.085938 5.554688 -3.53125 6.109375 -3.15625 C 6.660156 -2.78125 7.378906 -2.59375 8.265625 -2.59375 C 9.179688 -2.59375 9.914062 -2.78125 10.46875 -3.15625 C 11.03125 -3.53125 11.3125 -3.992188 11.3125 -4.546875 C 11.3125 -5.015625 11.128906 -5.398438 10.765625 -5.703125 C 10.410156 -6.015625 9.859375 -6.25 9.109375 -6.40625 L 6.3125 -7 C 4.75 -7.320312 3.585938 -7.875 2.828125 -8.65625 C 2.078125 -9.4375 1.707031 -10.421875 1.71875 -11.609375 C 1.707031 -12.617188 1.976562 -13.492188 2.53125 -14.234375 C 3.09375 -14.984375 3.875 -15.5625 4.875 -15.96875 C 5.875 -16.375 7.023438 -16.578125 8.328125 -16.578125 C 10.242188 -16.578125 11.753906 -16.164062 12.859375 -15.34375 C 13.960938 -14.53125 14.648438 -13.425781 14.921875 -12.03125 Z M 14.921875 -12.03125 "/></g></g></g><g fill="#ffffff" fill-opacity="1"><g transform="translate(374.788601, 562.496296)"><g><path d="M 9.125 0.3125 C 7.488281 0.3125 6.085938 -0.0390625 4.921875 -0.75 C 3.753906 -1.46875 2.851562 -2.460938 2.21875 -3.734375 C 1.59375 -5.003906 1.28125 -6.46875 1.28125 -8.125 C 1.28125 -9.78125 1.597656 -11.242188 2.234375 -12.515625 C 2.878906 -13.796875 3.785156 -14.789062 4.953125 -15.5 C 6.117188 -16.21875 7.5 -16.578125 9.09375 -16.578125 C 10.425781 -16.578125 11.601562 -16.332031 12.625 -15.84375 C 13.65625 -15.363281 14.472656 -14.679688 15.078125 -13.796875 C 15.691406 -12.910156 16.039062 -11.878906 16.125 -10.703125 L 12.4375 -10.703125 C 12.289062 -11.484375 11.9375 -12.140625 11.375 -12.671875 C 10.820312 -13.203125 10.082031 -13.46875 9.15625 -13.46875 C 8.363281 -13.46875 7.664062 -13.253906 7.0625 -12.828125 C 6.46875 -12.410156 6.003906 -11.804688 5.671875 -11.015625 C 5.347656 -10.222656 5.1875 -9.28125 5.1875 -8.1875 C 5.1875 -7.070312 5.347656 -6.113281 5.671875 -5.3125 C 6.003906 -4.507812 6.46875 -3.894531 7.0625 -3.46875 C 7.65625 -3.039062 8.351562 -2.828125 9.15625 -2.828125 C 9.71875 -2.828125 10.222656 -2.929688 10.671875 -3.140625 C 11.128906 -3.359375 11.507812 -3.671875 11.8125 -4.078125 C 12.113281 -4.492188 12.320312 -5 12.4375 -5.59375 L 16.125 -5.59375 C 16.03125 -4.4375 15.6875 -3.410156 15.09375 -2.515625 C 14.507812 -1.628906 13.707031 -0.9375 12.6875 -0.4375 C 11.675781 0.0625 10.488281 0.3125 9.125 0.3125 Z M 9.125 0.3125 "/></g></g></g><g fill="#ffffff" fill-opacity="1"><g transform="translate(392.110995, 562.496296)"><g><path d="M 5.84375 -9.59375 L 5.84375 0 L 1.984375 0 L 1.984375 -21.8125 L 5.75 -21.8125 L 5.75 -13.578125 L 5.9375 -13.578125 C 6.320312 -14.503906 6.914062 -15.234375 7.71875 -15.765625 C 8.53125 -16.304688 9.5625 -16.578125 10.8125 -16.578125 C 11.945312 -16.578125 12.9375 -16.335938 13.78125 -15.859375 C 14.625 -15.390625 15.28125 -14.695312 15.75 -13.78125 C 16.21875 -12.863281 16.453125 -11.742188 16.453125 -10.421875 L 16.453125 0 L 12.59375 0 L 12.59375 -9.828125 C 12.59375 -10.921875 12.3125 -11.773438 11.75 -12.390625 C 11.1875 -13.003906 10.394531 -13.3125 9.375 -13.3125 C 8.695312 -13.3125 8.085938 -13.164062 7.546875 -12.875 C 7.015625 -12.582031 6.597656 -12.15625 6.296875 -11.59375 C 5.992188 -11.039062 5.84375 -10.375 5.84375 -9.59375 Z M 5.84375 -9.59375 "/></g></g></g><g fill="#ffffff" fill-opacity="1"><g transform="translate(410.49872, 562.496296)"><g><path d="M 6.6875 0.328125 C 5.65625 0.328125 4.722656 0.144531 3.890625 -0.21875 C 3.066406 -0.59375 2.414062 -1.144531 1.9375 -1.875 C 1.457031 -2.613281 1.21875 -3.519531 1.21875 -4.59375 C 1.21875 -5.519531 1.382812 -6.28125 1.71875 -6.875 C 2.0625 -7.476562 2.523438 -7.960938 3.109375 -8.328125 C 3.703125 -8.691406 4.367188 -8.96875 5.109375 -9.15625 C 5.859375 -9.34375 6.628906 -9.476562 7.421875 -9.5625 C 8.378906 -9.664062 9.15625 -9.757812 9.75 -9.84375 C 10.351562 -9.925781 10.789062 -10.050781 11.0625 -10.21875 C 11.332031 -10.394531 11.46875 -10.664062 11.46875 -11.03125 L 11.46875 -11.09375 C 11.46875 -11.90625 11.226562 -12.53125 10.75 -12.96875 C 10.28125 -13.40625 9.597656 -13.625 8.703125 -13.625 C 7.753906 -13.625 7.003906 -13.414062 6.453125 -13 C 5.910156 -12.59375 5.539062 -12.109375 5.34375 -11.546875 L 1.75 -12.0625 C 2.03125 -13.050781 2.5 -13.878906 3.15625 -14.546875 C 3.8125 -15.222656 4.609375 -15.726562 5.546875 -16.0625 C 6.492188 -16.40625 7.539062 -16.578125 8.6875 -16.578125 C 9.46875 -16.578125 10.25 -16.484375 11.03125 -16.296875 C 11.8125 -16.109375 12.523438 -15.800781 13.171875 -15.375 C 13.816406 -14.957031 14.335938 -14.382812 14.734375 -13.65625 C 15.128906 -12.9375 15.328125 -12.035156 15.328125 -10.953125 L 15.328125 0 L 11.625 0 L 11.625 -2.25 L 11.5 -2.25 C 11.257812 -1.789062 10.925781 -1.363281 10.5 -0.96875 C 10.082031 -0.582031 9.554688 -0.269531 8.921875 -0.03125 C 8.285156 0.207031 7.539062 0.328125 6.6875 0.328125 Z M 7.6875 -2.5 C 8.46875 -2.5 9.140625 -2.65625 9.703125 -2.96875 C 10.273438 -3.28125 10.710938 -3.691406 11.015625 -4.203125 C 11.328125 -4.710938 11.484375 -5.269531 11.484375 -5.875 L 11.484375 -7.796875 C 11.359375 -7.703125 11.148438 -7.609375 10.859375 -7.515625 C 10.578125 -7.429688 10.257812 -7.359375 9.90625 -7.296875 C 9.550781 -7.234375 9.195312 -7.175781 8.84375 -7.125 C 8.5 -7.070312 8.203125 -7.03125 7.953125 -7 C 7.367188 -6.914062 6.847656 -6.785156 6.390625 -6.609375 C 5.941406 -6.429688 5.585938 -6.1875 5.328125 -5.875 C 5.066406 -5.5625 4.9375 -5.15625 4.9375 -4.65625 C 4.9375 -3.945312 5.191406 -3.410156 5.703125 -3.046875 C 6.222656 -2.679688 6.882812 -2.5 7.6875 -2.5 Z M 7.6875 -2.5 "/></g></g></g><g fill="#ffffff" fill-opacity="1"><g transform="translate(427.735867, 562.496296)"><g><path d="M 10.265625 -16.359375 L 10.265625 -13.375 L 0.59375 -13.375 L 0.59375 -16.359375 Z M 3.015625 0 L 3.015625 -17.90625 C 3.015625 -19.007812 3.242188 -19.925781 3.703125 -20.65625 C 4.160156 -21.382812 4.773438 -21.929688 5.546875 -22.296875 C 6.328125 -22.660156 7.1875 -22.84375 8.125 -22.84375 C 8.789062 -22.84375 9.382812 -22.785156 9.90625 -22.671875 C 10.425781 -22.566406 10.8125 -22.472656 11.0625 -22.390625 L 10.296875 -19.40625 C 10.128906 -19.457031 9.921875 -19.507812 9.671875 -19.5625 C 9.421875 -19.613281 9.144531 -19.640625 8.84375 -19.640625 C 8.125 -19.640625 7.613281 -19.46875 7.3125 -19.125 C 7.019531 -18.78125 6.875 -18.289062 6.875 -17.65625 L 6.875 0 Z M 3.015625 0 "/></g></g></g><g fill="#ffffff" fill-opacity="1"><g transform="translate(439.049771, 562.496296)"><g><path d="M 10.265625 -16.359375 L 10.265625 -13.375 L 0.59375 -13.375 L 0.59375 -16.359375 Z M 3.015625 0 L 3.015625 -17.90625 C 3.015625 -19.007812 3.242188 -19.925781 3.703125 -20.65625 C 4.160156 -21.382812 4.773438 -21.929688 5.546875 -22.296875 C 6.328125 -22.660156 7.1875 -22.84375 8.125 -22.84375 C 8.789062 -22.84375 9.382812 -22.785156 9.90625 -22.671875 C 10.425781 -22.566406 10.8125 -22.472656 11.0625 -22.390625 L 10.296875 -19.40625 C 10.128906 -19.457031 9.921875 -19.507812 9.671875 -19.5625 C 9.421875 -19.613281 9.144531 -19.640625 8.84375 -19.640625 C 8.125 -19.640625 7.613281 -19.46875 7.3125 -19.125 C 7.019531 -18.78125 6.875 -18.289062 6.875 -17.65625 L 6.875 0 Z M 3.015625 0 "/></g></g></g><g fill="#ffffff" fill-opacity="1"><g transform="translate(450.363628, 562.496296)"><g><path d="M 10.15625 -16.359375 L 10.15625 -13.375 L 0.75 -13.375 L 0.75 -16.359375 Z M 3.0625 -20.28125 L 6.921875 -20.28125 L 6.921875 -4.921875 C 6.921875 -4.398438 7 -4.003906 7.15625 -3.734375 C 7.320312 -3.460938 7.535156 -3.273438 7.796875 -3.171875 C 8.054688 -3.078125 8.347656 -3.03125 8.671875 -3.03125 C 8.910156 -3.03125 9.128906 -3.046875 9.328125 -3.078125 C 9.535156 -3.109375 9.691406 -3.140625 9.796875 -3.171875 L 10.453125 -0.15625 C 10.242188 -0.0820312 9.945312 -0.00390625 9.5625 0.078125 C 9.1875 0.160156 8.726562 0.207031 8.1875 0.21875 C 7.21875 0.25 6.34375 0.101562 5.5625 -0.21875 C 4.789062 -0.539062 4.179688 -1.039062 3.734375 -1.71875 C 3.285156 -2.40625 3.0625 -3.257812 3.0625 -4.28125 Z M 3.0625 -20.28125 "/></g></g></g><g fill="#ffffff" fill-opacity="1"><g transform="translate(461.762767, 562.496296)"><g/></g></g><g fill="#ffffff" fill-opacity="1"><g transform="translate(469.20946, 562.496296)"><g><path d="M 2.15625 0 L 2.15625 -21.8125 L 16.125 -21.8125 L 16.125 -18.5 L 6.109375 -18.5 L 6.109375 -12.578125 L 15.171875 -12.578125 L 15.171875 -9.265625 L 6.109375 -9.265625 L 6.109375 0 Z M 2.15625 0 "/></g></g></g><g fill="#ffffff" fill-opacity="1"><g transform="translate(486.542498, 562.496296)"><g><path d="M 1.984375 0 L 1.984375 -16.359375 L 5.71875 -16.359375 L 5.71875 -13.640625 L 5.890625 -13.640625 C 6.191406 -14.578125 6.703125 -15.300781 7.421875 -15.8125 C 8.148438 -16.332031 8.984375 -16.59375 9.921875 -16.59375 C 10.140625 -16.59375 10.378906 -16.582031 10.640625 -16.5625 C 10.910156 -16.550781 11.132812 -16.523438 11.3125 -16.484375 L 11.3125 -12.9375 C 11.144531 -13 10.882812 -13.050781 10.53125 -13.09375 C 10.1875 -13.144531 9.851562 -13.171875 9.53125 -13.171875 C 8.820312 -13.171875 8.1875 -13.019531 7.625 -12.71875 C 7.070312 -12.414062 6.632812 -12 6.3125 -11.46875 C 6 -10.9375 5.84375 -10.320312 5.84375 -9.625 L 5.84375 0 Z M 1.984375 0 "/></g></g></g><g fill="#ffffff" fill-opacity="1"><g transform="translate(497.760499, 562.496296)"><g><path d="M 9.21875 0.3125 C 7.582031 0.3125 6.171875 -0.0234375 4.984375 -0.703125 C 3.796875 -1.390625 2.878906 -2.363281 2.234375 -3.625 C 1.597656 -4.882812 1.28125 -6.375 1.28125 -8.09375 C 1.28125 -9.769531 1.597656 -11.242188 2.234375 -12.515625 C 2.878906 -13.796875 3.78125 -14.789062 4.9375 -15.5 C 6.101562 -16.21875 7.46875 -16.578125 9.03125 -16.578125 C 10.03125 -16.578125 10.976562 -16.414062 11.875 -16.09375 C 12.78125 -15.769531 13.578125 -15.269531 14.265625 -14.59375 C 14.960938 -13.914062 15.507812 -13.054688 15.90625 -12.015625 C 16.300781 -10.984375 16.5 -9.75 16.5 -8.3125 L 16.5 -7.125 L 3.09375 -7.125 L 3.09375 -9.734375 L 12.8125 -9.734375 C 12.800781 -10.460938 12.640625 -11.117188 12.328125 -11.703125 C 12.015625 -12.285156 11.578125 -12.742188 11.015625 -13.078125 C 10.460938 -13.410156 9.816406 -13.578125 9.078125 -13.578125 C 8.285156 -13.578125 7.59375 -13.382812 7 -13 C 6.40625 -12.625 5.941406 -12.128906 5.609375 -11.515625 C 5.273438 -10.898438 5.109375 -10.226562 5.109375 -9.5 L 5.109375 -7.21875 C 5.109375 -6.269531 5.28125 -5.457031 5.625 -4.78125 C 5.96875 -4.101562 6.453125 -3.582031 7.078125 -3.21875 C 7.703125 -2.863281 8.4375 -2.6875 9.28125 -2.6875 C 9.84375 -2.6875 10.347656 -2.765625 10.796875 -2.921875 C 11.253906 -3.085938 11.648438 -3.328125 11.984375 -3.640625 C 12.316406 -3.953125 12.566406 -4.335938 12.734375 -4.796875 L 16.34375 -4.390625 C 16.113281 -3.441406 15.679688 -2.613281 15.046875 -1.90625 C 14.410156 -1.195312 13.597656 -0.648438 12.609375 -0.265625 C 11.628906 0.117188 10.5 0.3125 9.21875 0.3125 Z M 9.21875 0.3125 "/></g></g></g><g fill="#ffffff" fill-opacity="1"><g transform="translate(515.540978, 562.496296)"><g><path d="M 1.984375 0 L 1.984375 -16.359375 L 5.84375 -16.359375 L 5.84375 0 Z M 3.921875 -18.6875 C 3.304688 -18.6875 2.78125 -18.890625 2.34375 -19.296875 C 1.90625 -19.703125 1.6875 -20.195312 1.6875 -20.78125 C 1.6875 -21.351562 1.90625 -21.84375 2.34375 -22.25 C 2.78125 -22.664062 3.304688 -22.875 3.921875 -22.875 C 4.535156 -22.875 5.0625 -22.664062 5.5 -22.25 C 5.9375 -21.84375 6.15625 -21.351562 6.15625 -20.78125 C 6.15625 -20.195312 5.9375 -19.703125 5.5 -19.296875 C 5.0625 -18.890625 4.535156 -18.6875 3.921875 -18.6875 Z M 3.921875 -18.6875 "/></g></g></g><g fill="#ffffff" fill-opacity="1"><g transform="translate(523.360565, 562.496296)"><g><path d="M 5.84375 -9.59375 L 5.84375 0 L 1.984375 0 L 1.984375 -21.8125 L 5.75 -21.8125 L 5.75 -13.578125 L 5.9375 -13.578125 C 6.320312 -14.503906 6.914062 -15.234375 7.71875 -15.765625 C 8.53125 -16.304688 9.5625 -16.578125 10.8125 -16.578125 C 11.945312 -16.578125 12.9375 -16.335938 13.78125 -15.859375 C 14.625 -15.390625 15.28125 -14.695312 15.75 -13.78125 C 16.21875 -12.863281 16.453125 -11.742188 16.453125 -10.421875 L 16.453125 0 L 12.59375 0 L 12.59375 -9.828125 C 12.59375 -10.921875 12.3125 -11.773438 11.75 -12.390625 C 11.1875 -13.003906 10.394531 -13.3125 9.375 -13.3125 C 8.695312 -13.3125 8.085938 -13.164062 7.546875 -12.875 C 7.015625 -12.582031 6.597656 -12.15625 6.296875 -11.59375 C 5.992188 -11.039062 5.84375 -10.375 5.84375 -9.59375 Z M 5.84375 -9.59375 "/></g></g></g><g fill="#ffffff" fill-opacity="1"><g transform="translate(541.74829, 562.496296)"><g><path d="M 9.21875 0.3125 C 7.582031 0.3125 6.171875 -0.0234375 4.984375 -0.703125 C 3.796875 -1.390625 2.878906 -2.363281 2.234375 -3.625 C 1.597656 -4.882812 1.28125 -6.375 1.28125 -8.09375 C 1.28125 -9.769531 1.597656 -11.242188 2.234375 -12.515625 C 2.878906 -13.796875 3.78125 -14.789062 4.9375 -15.5 C 6.101562 -16.21875 7.46875 -16.578125 9.03125 -16.578125 C 10.03125 -16.578125 10.976562 -16.414062 11.875 -16.09375 C 12.78125 -15.769531 13.578125 -15.269531 14.265625 -14.59375 C 14.960938 -13.914062 15.507812 -13.054688 15.90625 -12.015625 C 16.300781 -10.984375 16.5 -9.75 16.5 -8.3125 L 16.5 -7.125 L 3.09375 -7.125 L 3.09375 -9.734375 L 12.8125 -9.734375 C 12.800781 -10.460938 12.640625 -11.117188 12.328125 -11.703125 C 12.015625 -12.285156 11.578125 -12.742188 11.015625 -13.078125 C 10.460938 -13.410156 9.816406 -13.578125 9.078125 -13.578125 C 8.285156 -13.578125 7.59375 -13.382812 7 -13 C 6.40625 -12.625 5.941406 -12.128906 5.609375 -11.515625 C 5.273438 -10.898438 5.109375 -10.226562 5.109375 -9.5 L 5.109375 -7.21875 C 5.109375 -6.269531 5.28125 -5.457031 5.625 -4.78125 C 5.96875 -4.101562 6.453125 -3.582031 7.078125 -3.21875 C 7.703125 -2.863281 8.4375 -2.6875 9.28125 -2.6875 C 9.84375 -2.6875 10.347656 -2.765625 10.796875 -2.921875 C 11.253906 -3.085938 11.648438 -3.328125 11.984375 -3.640625 C 12.316406 -3.953125 12.566406 -4.335938 12.734375 -4.796875 L 16.34375 -4.390625 C 16.113281 -3.441406 15.679688 -2.613281 15.046875 -1.90625 C 14.410156 -1.195312 13.597656 -0.648438 12.609375 -0.265625 C 11.628906 0.117188 10.5 0.3125 9.21875 0.3125 Z M 9.21875 0.3125 "/></g></g></g><g fill="#ffffff" fill-opacity="1"><g transform="translate(559.528769, 562.496296)"><g><path d="M 1.984375 0 L 1.984375 -16.359375 L 5.84375 -16.359375 L 5.84375 0 Z M 3.921875 -18.6875 C 3.304688 -18.6875 2.78125 -18.890625 2.34375 -19.296875 C 1.90625 -19.703125 1.6875 -20.195312 1.6875 -20.78125 C 1.6875 -21.351562 1.90625 -21.84375 2.34375 -22.25 C 2.78125 -22.664062 3.304688 -22.875 3.921875 -22.875 C 4.535156 -22.875 5.0625 -22.664062 5.5 -22.25 C 5.9375 -21.84375 6.15625 -21.351562 6.15625 -20.78125 C 6.15625 -20.195312 5.9375 -19.703125 5.5 -19.296875 C 5.0625 -18.890625 4.535156 -18.6875 3.921875 -18.6875 Z M 3.921875 -18.6875 "/></g></g></g><g fill="#ffffff" fill-opacity="1"><g transform="translate(567.348356, 562.496296)"><g><path d="M 10.15625 -16.359375 L 10.15625 -13.375 L 0.75 -13.375 L 0.75 -16.359375 Z M 3.0625 -20.28125 L 6.921875 -20.28125 L 6.921875 -4.921875 C 6.921875 -4.398438 7 -4.003906 7.15625 -3.734375 C 7.320312 -3.460938 7.535156 -3.273438 7.796875 -3.171875 C 8.054688 -3.078125 8.347656 -3.03125 8.671875 -3.03125 C 8.910156 -3.03125 9.128906 -3.046875 9.328125 -3.078125 C 9.535156 -3.109375 9.691406 -3.140625 9.796875 -3.171875 L 10.453125 -0.15625 C 10.242188 -0.0820312 9.945312 -0.00390625 9.5625 0.078125 C 9.1875 0.160156 8.726562 0.207031 8.1875 0.21875 C 7.21875 0.25 6.34375 0.101562 5.5625 -0.21875 C 4.789062 -0.539062 4.179688 -1.039062 3.734375 -1.71875 C 3.285156 -2.40625 3.0625 -3.257812 3.0625 -4.28125 Z M 3.0625 -20.28125 "/></g></g></g></svg>