<svg xmlns="http://www.w3.org/2000/svg" xmlns:xlink="http://www.w3.org/1999/xlink" width="1080" zoomAndPan="magnify" viewBox="0 0 810 809.999993" height="1080" preserveAspectRatio="xMidYMid meet" version="1.0"><defs><g/><linearGradient x1="0" gradientTransform="matrix(0.75, 0, 0, 0.75, 0.0000035, 0.00002)" y1="540" x2="1079.999955" gradientUnits="userSpaceOnUse" y2="540" id="110e62b773"><stop stop-opacity="1" stop-color="rgb(5.099487%, 5.099487%, 5.099487%)" offset="0"/><stop stop-opacity="1" stop-color="rgb(5.258179%, 5.258179%, 5.258179%)" offset="0.0625"/><stop stop-opacity="1" stop-color="rgb(5.577087%, 5.577087%, 5.577087%)" offset="0.125"/><stop stop-opacity="1" stop-color="rgb(5.895996%, 5.895996%, 5.895996%)" offset="0.1875"/><stop stop-opacity="1" stop-color="rgb(6.214905%, 6.214905%, 6.214905%)" offset="0.25"/><stop stop-opacity="1" stop-color="rgb(6.532288%, 6.532288%, 6.532288%)" offset="0.3125"/><stop stop-opacity="1" stop-color="rgb(6.851196%, 6.851196%, 6.851196%)" offset="0.375"/><stop stop-opacity="1" stop-color="rgb(7.170105%, 7.170105%, 7.170105%)" offset="0.4375"/><stop stop-opacity="1" stop-color="rgb(7.489014%, 7.489014%, 7.489014%)" offset="0.5"/><stop stop-opacity="1" stop-color="rgb(7.807922%, 7.807922%, 7.807922%)" offset="0.5625"/><stop stop-opacity="1" stop-color="rgb(8.126831%, 8.126831%, 8.126831%)" offset="0.625"/><stop stop-opacity="1" stop-color="rgb(8.44574%, 8.44574%, 8.44574%)" offset="0.6875"/><stop stop-opacity="1" stop-color="rgb(8.764648%, 8.764648%, 8.764648%)" offset="0.75"/><stop stop-opacity="1" stop-color="rgb(9.083557%, 9.083557%, 9.083557%)" offset="0.8125"/><stop stop-opacity="1" stop-color="rgb(9.40094%, 9.40094%, 9.40094%)" offset="0.875"/><stop stop-opacity="1" stop-color="rgb(9.719849%, 9.719849%, 9.719849%)" offset="0.9375"/><stop stop-opacity="1" stop-color="rgb(10.038757%, 10.038757%, 10.038757%)" offset="1"/></linearGradient><clipPath id="49f66788bc"><rect x="0" width="189" y="0" height="290"/></clipPath><clipPath id="cf43bbe4fa"><rect x="0" width="453" y="0" height="108"/></clipPath></defs><rect x="-81" width="972" fill="#ffffff" y="-80.999999" height="971.999992" fill-opacity="1"/><rect x="-81" fill="url(#110e62b773)" width="972" y="-80.999999" height="971.999992"/><g transform="matrix(1, 0, 0, 1, 29, 28)"><g clip-path="url(#49f66788bc)"><g fill="#3ea6ff" fill-opacity="1"><g transform="translate(0.123848, 232.075559)"><g><path d="M 47.1875 -176.375 L 89.828125 -42.375 L 91.453125 -42.375 L 134.171875 -176.375 L 175.515625 -176.375 L 114.71875 0 L 66.65625 0 L 5.765625 -176.375 Z M 47.1875 -176.375 "/></g></g></g></g></g><g transform="matrix(1, 0, 0, 1, 188, 150)"><g clip-path="url(#cf43bbe4fa)"><g fill="#ffffff" fill-opacity="1"><g transform="translate(0.257919, 86.035344)"><g><path d="M 6.375 0 L 6.375 -64.5625 L 48.359375 -64.5625 L 48.359375 -54.75 L 18.0625 -54.75 L 18.0625 -37.234375 L 46.171875 -37.234375 L 46.171875 -27.421875 L 18.0625 -27.421875 L 18.0625 -9.796875 L 48.609375 -9.796875 L 48.609375 0 Z M 6.375 0 "/></g></g></g><g fill="#ffffff" fill-opacity="1"><g transform="translate(54.187746, 86.035344)"><g><path d="M 6.375 0 L 6.375 -64.5625 L 30.578125 -64.5625 C 35.535156 -64.5625 39.703125 -63.695312 43.078125 -61.96875 C 46.453125 -60.25 49.003906 -57.835938 50.734375 -54.734375 C 52.460938 -51.640625 53.328125 -48.03125 53.328125 -43.90625 C 53.328125 -39.769531 52.453125 -36.179688 50.703125 -33.140625 C 48.953125 -30.109375 46.375 -27.765625 42.96875 -26.109375 C 39.5625 -24.460938 35.378906 -23.640625 30.421875 -23.640625 L 13.171875 -23.640625 L 13.171875 -33.34375 L 28.84375 -33.34375 C 31.738281 -33.34375 34.109375 -33.75 35.953125 -34.5625 C 37.804688 -35.375 39.179688 -36.5625 40.078125 -38.125 C 40.972656 -39.6875 41.421875 -41.613281 41.421875 -43.90625 C 41.421875 -46.195312 40.96875 -48.15625 40.0625 -49.78125 C 39.15625 -51.414062 37.773438 -52.65625 35.921875 -53.5 C 34.078125 -54.351562 31.695312 -54.78125 28.78125 -54.78125 L 18.0625 -54.78125 L 18.0625 0 Z M 39.71875 -29.25 L 55.703125 0 L 42.65625 0 L 26.953125 -29.25 Z M 39.71875 -29.25 "/></g></g></g><g fill="#ffffff" fill-opacity="1"><g transform="translate(111.931419, 86.035344)"><g><path d="M 64.046875 -32.28125 C 64.046875 -25.320312 62.75 -19.367188 60.15625 -14.421875 C 57.5625 -9.472656 54.03125 -5.6875 49.5625 -3.0625 C 45.101562 -0.4375 40.046875 0.875 34.390625 0.875 C 28.734375 0.875 23.671875 -0.441406 19.203125 -3.078125 C 14.742188 -5.710938 11.21875 -9.503906 8.625 -14.453125 C 6.03125 -19.398438 4.734375 -25.34375 4.734375 -32.28125 C 4.734375 -39.238281 6.03125 -45.191406 8.625 -50.140625 C 11.21875 -55.085938 14.742188 -58.875 19.203125 -61.5 C 23.671875 -64.125 28.734375 -65.4375 34.390625 -65.4375 C 40.046875 -65.4375 45.101562 -64.125 49.5625 -61.5 C 54.03125 -58.875 57.5625 -55.085938 60.15625 -50.140625 C 62.75 -45.191406 64.046875 -39.238281 64.046875 -32.28125 Z M 52.296875 -32.28125 C 52.296875 -37.175781 51.53125 -41.304688 50 -44.671875 C 48.476562 -48.046875 46.375 -50.597656 43.6875 -52.328125 C 41 -54.066406 37.898438 -54.9375 34.390625 -54.9375 C 30.878906 -54.9375 27.78125 -54.066406 25.09375 -52.328125 C 22.40625 -50.597656 20.296875 -48.046875 18.765625 -44.671875 C 17.242188 -41.304688 16.484375 -37.175781 16.484375 -32.28125 C 16.484375 -27.382812 17.242188 -23.25 18.765625 -19.875 C 20.296875 -16.5 22.40625 -13.941406 25.09375 -12.203125 C 27.78125 -10.472656 30.878906 -9.609375 34.390625 -9.609375 C 37.898438 -9.609375 41 -10.472656 43.6875 -12.203125 C 46.375 -13.941406 48.476562 -16.5 50 -19.875 C 51.53125 -23.25 52.296875 -27.382812 52.296875 -32.28125 Z M 52.296875 -32.28125 "/></g></g></g><g fill="#ffffff" fill-opacity="1"><g transform="translate(180.706908, 86.035344)"><g><path d="M 41.453125 -46.8125 C 41.160156 -49.5625 39.925781 -51.703125 37.75 -53.234375 C 35.570312 -54.773438 32.75 -55.546875 29.28125 -55.546875 C 26.84375 -55.546875 24.75 -55.175781 23 -54.4375 C 21.257812 -53.695312 19.925781 -52.695312 19 -51.4375 C 18.082031 -50.175781 17.613281 -48.738281 17.59375 -47.125 C 17.59375 -45.78125 17.898438 -44.613281 18.515625 -43.625 C 19.140625 -42.632812 19.988281 -41.796875 21.0625 -41.109375 C 22.132812 -40.429688 23.320312 -39.859375 24.625 -39.390625 C 25.925781 -38.929688 27.238281 -38.546875 28.5625 -38.234375 L 34.609375 -36.71875 C 37.046875 -36.15625 39.394531 -35.390625 41.65625 -34.421875 C 43.914062 -33.453125 45.941406 -32.234375 47.734375 -30.765625 C 49.535156 -29.296875 50.960938 -27.519531 52.015625 -25.4375 C 53.066406 -23.351562 53.59375 -20.914062 53.59375 -18.125 C 53.59375 -14.34375 52.625 -11.015625 50.6875 -8.140625 C 48.75 -5.273438 45.957031 -3.035156 42.3125 -1.421875 C 38.664062 0.179688 34.257812 0.984375 29.09375 0.984375 C 24.070312 0.984375 19.71875 0.207031 16.03125 -1.34375 C 12.34375 -2.90625 9.460938 -5.175781 7.390625 -8.15625 C 5.316406 -11.144531 4.195312 -14.785156 4.03125 -19.078125 L 15.546875 -19.078125 C 15.710938 -16.828125 16.40625 -14.953125 17.625 -13.453125 C 18.84375 -11.960938 20.429688 -10.847656 22.390625 -10.109375 C 24.359375 -9.378906 26.5625 -9.015625 29 -9.015625 C 31.539062 -9.015625 33.769531 -9.394531 35.6875 -10.15625 C 37.613281 -10.925781 39.125 -12 40.21875 -13.375 C 41.3125 -14.757812 41.867188 -16.375 41.890625 -18.21875 C 41.867188 -19.894531 41.375 -21.285156 40.40625 -22.390625 C 39.445312 -23.492188 38.097656 -24.421875 36.359375 -25.171875 C 34.628906 -25.921875 32.609375 -26.585938 30.296875 -27.171875 L 22.953125 -29.0625 C 17.628906 -30.425781 13.425781 -32.5 10.34375 -35.28125 C 7.269531 -38.070312 5.734375 -41.78125 5.734375 -46.40625 C 5.734375 -50.207031 6.769531 -53.535156 8.84375 -56.390625 C 10.914062 -59.242188 13.738281 -61.460938 17.3125 -63.046875 C 20.882812 -64.640625 24.925781 -65.4375 29.4375 -65.4375 C 34.019531 -65.4375 38.039062 -64.640625 41.5 -63.046875 C 44.957031 -61.460938 47.671875 -59.269531 49.640625 -56.46875 C 51.617188 -53.664062 52.640625 -50.445312 52.703125 -46.8125 Z M 41.453125 -46.8125 "/></g></g></g><g fill="#ffffff" fill-opacity="1"><g transform="translate(238.324503, 86.035344)"><g><path d="M 64.046875 -32.28125 C 64.046875 -25.320312 62.75 -19.367188 60.15625 -14.421875 C 57.5625 -9.472656 54.03125 -5.6875 49.5625 -3.0625 C 45.101562 -0.4375 40.046875 0.875 34.390625 0.875 C 28.734375 0.875 23.671875 -0.441406 19.203125 -3.078125 C 14.742188 -5.710938 11.21875 -9.503906 8.625 -14.453125 C 6.03125 -19.398438 4.734375 -25.34375 4.734375 -32.28125 C 4.734375 -39.238281 6.03125 -45.191406 8.625 -50.140625 C 11.21875 -55.085938 14.742188 -58.875 19.203125 -61.5 C 23.671875 -64.125 28.734375 -65.4375 34.390625 -65.4375 C 40.046875 -65.4375 45.101562 -64.125 49.5625 -61.5 C 54.03125 -58.875 57.5625 -55.085938 60.15625 -50.140625 C 62.75 -45.191406 64.046875 -39.238281 64.046875 -32.28125 Z M 52.296875 -32.28125 C 52.296875 -37.175781 51.53125 -41.304688 50 -44.671875 C 48.476562 -48.046875 46.375 -50.597656 43.6875 -52.328125 C 41 -54.066406 37.898438 -54.9375 34.390625 -54.9375 C 30.878906 -54.9375 27.78125 -54.066406 25.09375 -52.328125 C 22.40625 -50.597656 20.296875 -48.046875 18.765625 -44.671875 C 17.242188 -41.304688 16.484375 -37.175781 16.484375 -32.28125 C 16.484375 -27.382812 17.242188 -23.25 18.765625 -19.875 C 20.296875 -16.5 22.40625 -13.941406 25.09375 -12.203125 C 27.78125 -10.472656 30.878906 -9.609375 34.390625 -9.609375 C 37.898438 -9.609375 41 -10.472656 43.6875 -12.203125 C 46.375 -13.941406 48.476562 -16.5 50 -19.875 C 51.53125 -23.25 52.296875 -27.382812 52.296875 -32.28125 Z M 52.296875 -32.28125 "/></g></g></g><g fill="#ffffff" fill-opacity="1"><g transform="translate(307.099992, 86.035344)"><g><path d="M 6.375 -64.5625 L 20.671875 -64.5625 L 39.84375 -17.78125 L 40.59375 -17.78125 L 59.765625 -64.5625 L 74.078125 -64.5625 L 74.078125 0 L 62.859375 0 L 62.859375 -44.34375 L 62.25 -44.34375 L 44.421875 -0.1875 L 36.03125 -0.1875 L 18.1875 -44.453125 L 17.59375 -44.453125 L 17.59375 0 L 6.375 0 Z M 6.375 -64.5625 "/></g></g></g><g fill="#ffffff" fill-opacity="1"><g transform="translate(387.537712, 86.035344)"><g><path d="M 14.65625 0 L 2.171875 0 L 24.90625 -64.5625 L 39.34375 -64.5625 L 62.09375 0 L 49.609375 0 L 32.375 -51.3125 L 31.875 -51.3125 Z M 15.0625 -25.3125 L 49.109375 -25.3125 L 49.109375 -15.921875 L 15.0625 -15.921875 Z M 15.0625 -25.3125 "/></g></g></g></g></g><g fill="#3ea6ff" fill-opacity="1"><g transform="translate(301.930008, 443.756921)"><g><path d="M 4.15625 0 L 4.15625 -42.1875 L 20.3125 -42.1875 C 23.351562 -42.1875 25.882812 -41.707031 27.90625 -40.75 C 29.9375 -39.789062 31.457031 -38.488281 32.46875 -36.84375 C 33.476562 -35.195312 33.984375 -33.332031 33.984375 -31.25 C 33.984375 -29.53125 33.648438 -28.0625 32.984375 -26.84375 C 32.328125 -25.632812 31.441406 -24.648438 30.328125 -23.890625 C 29.222656 -23.140625 27.984375 -22.597656 26.609375 -22.265625 L 26.609375 -21.859375 C 28.109375 -21.773438 29.546875 -21.316406 30.921875 -20.484375 C 32.304688 -19.648438 33.4375 -18.476562 34.3125 -16.96875 C 35.1875 -15.457031 35.625 -13.632812 35.625 -11.5 C 35.625 -9.3125 35.09375 -7.347656 34.03125 -5.609375 C 32.976562 -3.867188 31.390625 -2.5 29.265625 -1.5 C 27.140625 -0.5 24.460938 0 21.234375 0 Z M 11.796875 -6.390625 L 20.015625 -6.390625 C 22.796875 -6.390625 24.796875 -6.921875 26.015625 -7.984375 C 27.242188 -9.046875 27.859375 -10.414062 27.859375 -12.09375 C 27.859375 -13.34375 27.550781 -14.46875 26.9375 -15.46875 C 26.320312 -16.476562 25.441406 -17.273438 24.296875 -17.859375 C 23.160156 -18.453125 21.800781 -18.75 20.21875 -18.75 L 11.796875 -18.75 Z M 11.796875 -24.234375 L 19.359375 -24.234375 C 20.679688 -24.234375 21.867188 -24.476562 22.921875 -24.96875 C 23.984375 -25.457031 24.816406 -26.148438 25.421875 -27.046875 C 26.035156 -27.953125 26.34375 -29.019531 26.34375 -30.25 C 26.34375 -31.882812 25.769531 -33.226562 24.625 -34.28125 C 23.476562 -35.34375 21.78125 -35.875 19.53125 -35.875 L 11.796875 -35.875 Z M 11.796875 -24.234375 "/></g></g></g><g fill="#3ea6ff" fill-opacity="1"><g transform="translate(340.747816, 443.756921)"><g><path d="M 24 -13.3125 L 24 -31.640625 L 31.453125 -31.640625 L 31.453125 0 L 24.21875 0 L 24.21875 -5.625 L 23.890625 -5.625 C 23.179688 -3.851562 22.007812 -2.40625 20.375 -1.28125 C 18.75 -0.15625 16.75 0.40625 14.375 0.40625 C 12.300781 0.40625 10.472656 -0.0546875 8.890625 -0.984375 C 7.304688 -1.910156 6.066406 -3.257812 5.171875 -5.03125 C 4.273438 -6.8125 3.828125 -8.96875 3.828125 -11.5 L 3.828125 -31.640625 L 11.28125 -31.640625 L 11.28125 -12.640625 C 11.28125 -10.640625 11.828125 -9.046875 12.921875 -7.859375 C 14.023438 -6.679688 15.472656 -6.09375 17.265625 -6.09375 C 18.359375 -6.09375 19.421875 -6.359375 20.453125 -6.890625 C 21.484375 -7.429688 22.332031 -8.234375 23 -9.296875 C 23.664062 -10.359375 24 -11.695312 24 -13.3125 Z M 24 -13.3125 "/></g></g></g><g fill="#3ea6ff" fill-opacity="1"><g transform="translate(376.723473, 443.756921)"><g><path d="M 15.578125 0.5625 C 13.085938 0.5625 10.859375 -0.078125 8.890625 -1.359375 C 6.929688 -2.640625 5.378906 -4.492188 4.234375 -6.921875 C 3.097656 -9.347656 2.53125 -12.300781 2.53125 -15.78125 C 2.53125 -19.289062 3.109375 -22.253906 4.265625 -24.671875 C 5.429688 -27.097656 7.003906 -28.929688 8.984375 -30.171875 C 10.960938 -31.421875 13.164062 -32.046875 15.59375 -32.046875 C 17.445312 -32.046875 18.96875 -31.734375 20.15625 -31.109375 C 21.351562 -30.484375 22.300781 -29.734375 23 -28.859375 C 23.707031 -27.992188 24.253906 -27.175781 24.640625 -26.40625 L 24.9375 -26.40625 L 24.9375 -42.1875 L 32.421875 -42.1875 L 32.421875 0 L 25.09375 0 L 25.09375 -4.984375 L 24.640625 -4.984375 C 24.253906 -4.210938 23.695312 -3.394531 22.96875 -2.53125 C 22.238281 -1.675781 21.273438 -0.945312 20.078125 -0.34375 C 18.890625 0.257812 17.390625 0.5625 15.578125 0.5625 Z M 17.65625 -5.5625 C 19.226562 -5.5625 20.570312 -5.988281 21.6875 -6.84375 C 22.800781 -7.707031 23.644531 -8.90625 24.21875 -10.4375 C 24.800781 -11.976562 25.09375 -13.769531 25.09375 -15.8125 C 25.09375 -17.863281 24.804688 -19.644531 24.234375 -21.15625 C 23.660156 -22.664062 22.820312 -23.835938 21.71875 -24.671875 C 20.613281 -25.515625 19.257812 -25.9375 17.65625 -25.9375 C 15.988281 -25.9375 14.597656 -25.5 13.484375 -24.625 C 12.378906 -23.757812 11.546875 -22.566406 10.984375 -21.046875 C 10.421875 -19.523438 10.140625 -17.78125 10.140625 -15.8125 C 10.140625 -13.84375 10.421875 -12.082031 10.984375 -10.53125 C 11.554688 -8.988281 12.398438 -7.773438 13.515625 -6.890625 C 14.640625 -6.003906 16.019531 -5.5625 17.65625 -5.5625 Z M 17.65625 -5.5625 "/></g></g></g><g fill="#3ea6ff" fill-opacity="1"><g transform="translate(413.976039, 443.756921)"><g><path d="M 17.59375 12.515625 C 14.914062 12.515625 12.613281 12.15625 10.6875 11.4375 C 8.769531 10.71875 7.222656 9.753906 6.046875 8.546875 C 4.878906 7.335938 4.070312 6 3.625 4.53125 L 10.34375 2.90625 C 10.644531 3.519531 11.082031 4.128906 11.65625 4.734375 C 12.226562 5.347656 13.003906 5.859375 13.984375 6.265625 C 14.972656 6.671875 16.21875 6.875 17.71875 6.875 C 19.832031 6.875 21.582031 6.363281 22.96875 5.34375 C 24.351562 4.320312 25.046875 2.644531 25.046875 0.3125 L 25.046875 -5.6875 L 24.671875 -5.6875 C 24.285156 -4.914062 23.722656 -4.125 22.984375 -3.3125 C 22.253906 -2.5 21.289062 -1.816406 20.09375 -1.265625 C 18.894531 -0.722656 17.390625 -0.453125 15.578125 -0.453125 C 13.140625 -0.453125 10.9375 -1.023438 8.96875 -2.171875 C 7 -3.316406 5.429688 -5.03125 4.265625 -7.3125 C 3.109375 -9.601562 2.53125 -12.472656 2.53125 -15.921875 C 2.53125 -19.390625 3.109375 -22.320312 4.265625 -24.71875 C 5.429688 -27.113281 7.003906 -28.929688 8.984375 -30.171875 C 10.960938 -31.421875 13.164062 -32.046875 15.59375 -32.046875 C 17.445312 -32.046875 18.972656 -31.734375 20.171875 -31.109375 C 21.367188 -30.484375 22.328125 -29.734375 23.046875 -28.859375 C 23.765625 -27.992188 24.304688 -27.175781 24.671875 -26.40625 L 25.09375 -26.40625 L 25.09375 -31.640625 L 32.4375 -31.640625 L 32.4375 0.515625 C 32.4375 3.222656 31.789062 5.460938 30.5 7.234375 C 29.207031 9.003906 27.441406 10.328125 25.203125 11.203125 C 22.972656 12.078125 20.4375 12.515625 17.59375 12.515625 Z M 17.65625 -6.296875 C 19.226562 -6.296875 20.570312 -6.679688 21.6875 -7.453125 C 22.800781 -8.222656 23.644531 -9.328125 24.21875 -10.765625 C 24.800781 -12.210938 25.09375 -13.945312 25.09375 -15.96875 C 25.09375 -17.957031 24.804688 -19.695312 24.234375 -21.1875 C 23.660156 -22.6875 22.820312 -23.851562 21.71875 -24.6875 C 20.613281 -25.519531 19.257812 -25.9375 17.65625 -25.9375 C 15.988281 -25.9375 14.597656 -25.5 13.484375 -24.625 C 12.378906 -23.757812 11.546875 -22.578125 10.984375 -21.078125 C 10.421875 -19.578125 10.140625 -17.875 10.140625 -15.96875 C 10.140625 -14.03125 10.421875 -12.335938 10.984375 -10.890625 C 11.554688 -9.441406 12.398438 -8.3125 13.515625 -7.5 C 14.640625 -6.695312 16.019531 -6.296875 17.65625 -6.296875 Z M 17.65625 -6.296875 "/></g></g></g><g fill="#3ea6ff" fill-opacity="1"><g transform="translate(450.940271, 443.756921)"><g><path d="M 17.84375 0.625 C 14.664062 0.625 11.925781 -0.0351562 9.625 -1.359375 C 7.320312 -2.691406 5.550781 -4.578125 4.3125 -7.015625 C 3.082031 -9.453125 2.46875 -12.320312 2.46875 -15.625 C 2.46875 -18.882812 3.085938 -21.742188 4.328125 -24.203125 C 5.578125 -26.671875 7.316406 -28.59375 9.546875 -29.96875 C 11.785156 -31.351562 14.414062 -32.046875 17.4375 -32.046875 C 19.394531 -32.046875 21.238281 -31.734375 22.96875 -31.109375 C 24.707031 -30.484375 26.242188 -29.519531 27.578125 -28.21875 C 28.921875 -26.914062 29.976562 -25.253906 30.75 -23.234375 C 31.519531 -21.222656 31.90625 -18.832031 31.90625 -16.0625 L 31.90625 -13.78125 L 5.96875 -13.78125 L 5.96875 -18.796875 L 24.75 -18.796875 C 24.738281 -20.234375 24.429688 -21.507812 23.828125 -22.625 C 23.222656 -23.738281 22.378906 -24.617188 21.296875 -25.265625 C 20.222656 -25.910156 18.972656 -26.234375 17.546875 -26.234375 C 16.023438 -26.234375 14.6875 -25.863281 13.53125 -25.125 C 12.375 -24.394531 11.476562 -23.4375 10.84375 -22.25 C 10.207031 -21.0625 9.878906 -19.757812 9.859375 -18.34375 L 9.859375 -13.96875 C 9.859375 -12.125 10.195312 -10.546875 10.875 -9.234375 C 11.550781 -7.921875 12.492188 -6.914062 13.703125 -6.21875 C 14.910156 -5.53125 16.320312 -5.1875 17.9375 -5.1875 C 19.019531 -5.1875 20 -5.335938 20.875 -5.640625 C 21.757812 -5.953125 22.523438 -6.410156 23.171875 -7.015625 C 23.816406 -7.617188 24.304688 -8.367188 24.640625 -9.265625 L 31.59375 -8.484375 C 31.15625 -6.640625 30.320312 -5.035156 29.09375 -3.671875 C 27.863281 -2.304688 26.289062 -1.25 24.375 -0.5 C 22.46875 0.25 20.289062 0.625 17.84375 0.625 Z M 17.84375 0.625 "/></g></g></g><g fill="#3ea6ff" fill-opacity="1"><g transform="translate(486.009739, 443.756921)"><g><path d="M 19.625 -31.640625 L 19.625 -25.875 L 1.4375 -25.875 L 1.4375 -31.640625 Z M 5.9375 -39.21875 L 13.390625 -39.21875 L 13.390625 -9.515625 C 13.390625 -8.515625 13.539062 -7.75 13.84375 -7.21875 C 14.15625 -6.6875 14.566406 -6.320312 15.078125 -6.125 C 15.585938 -5.9375 16.148438 -5.84375 16.765625 -5.84375 C 17.234375 -5.84375 17.660156 -5.878906 18.046875 -5.953125 C 18.441406 -6.023438 18.742188 -6.085938 18.953125 -6.140625 L 20.203125 -0.3125 C 19.804688 -0.175781 19.238281 -0.0234375 18.5 0.140625 C 17.769531 0.304688 16.875 0.40625 15.8125 0.4375 C 13.945312 0.488281 12.265625 0.203125 10.765625 -0.421875 C 9.273438 -1.046875 8.09375 -2.015625 7.21875 -3.328125 C 6.34375 -4.648438 5.914062 -6.300781 5.9375 -8.28125 Z M 5.9375 -39.21875 "/></g></g></g><g fill="#ededed" fill-opacity="1"><g transform="translate(211.322923, 649.497995)"><g><path d="M 6.0625 0 L 0.53125 -19.640625 L 4.359375 -19.640625 L 7.890625 -5.203125 L 8.078125 -5.203125 L 11.84375 -19.640625 L 15.328125 -19.640625 L 19.125 -5.203125 L 19.296875 -5.203125 L 22.828125 -19.640625 L 26.65625 -19.640625 L 21.109375 0 L 17.609375 0 L 13.671875 -13.78125 L 13.515625 -13.78125 L 9.578125 0 Z M 6.0625 0 "/></g></g></g><g fill="#ededed" fill-opacity="1"><g transform="translate(236.989994, 649.497995)"><g><path d="M 8.203125 0.28125 C 6.765625 0.28125 5.519531 -0.03125 4.46875 -0.65625 C 3.414062 -1.289062 2.597656 -2.175781 2.015625 -3.3125 C 1.441406 -4.457031 1.15625 -5.789062 1.15625 -7.3125 C 1.15625 -8.832031 1.441406 -10.160156 2.015625 -11.296875 C 2.597656 -12.441406 3.414062 -13.332031 4.46875 -13.96875 C 5.519531 -14.601562 6.765625 -14.921875 8.203125 -14.921875 C 9.640625 -14.921875 10.882812 -14.601562 11.9375 -13.96875 C 13 -13.332031 13.816406 -12.441406 14.390625 -11.296875 C 14.972656 -10.160156 15.265625 -8.832031 15.265625 -7.3125 C 15.265625 -5.789062 14.972656 -4.457031 14.390625 -3.3125 C 13.816406 -2.175781 13 -1.289062 11.9375 -0.65625 C 10.882812 -0.03125 9.640625 0.28125 8.203125 0.28125 Z M 8.21875 -2.5 C 9 -2.5 9.648438 -2.710938 10.171875 -3.140625 C 10.703125 -3.566406 11.097656 -4.144531 11.359375 -4.875 C 11.617188 -5.601562 11.75 -6.414062 11.75 -7.3125 C 11.75 -8.21875 11.617188 -9.035156 11.359375 -9.765625 C 11.097656 -10.492188 10.703125 -11.078125 10.171875 -11.515625 C 9.648438 -11.953125 9 -12.171875 8.21875 -12.171875 C 7.425781 -12.171875 6.765625 -11.953125 6.234375 -11.515625 C 5.710938 -11.078125 5.320312 -10.492188 5.0625 -9.765625 C 4.800781 -9.035156 4.671875 -8.21875 4.671875 -7.3125 C 4.671875 -6.414062 4.800781 -5.601562 5.0625 -4.875 C 5.320312 -4.144531 5.710938 -3.566406 6.234375 -3.140625 C 6.765625 -2.710938 7.425781 -2.5 8.21875 -2.5 Z M 8.21875 -2.5 "/></g></g></g><g fill="#ededed" fill-opacity="1"><g transform="translate(253.404655, 649.497995)"><g/></g></g><g fill="#ededed" fill-opacity="1"><g transform="translate(260.106669, 649.497995)"><g><path d="M 1.9375 0 L 1.9375 -19.640625 L 9.296875 -19.640625 C 10.804688 -19.640625 12.070312 -19.359375 13.09375 -18.796875 C 14.125 -18.234375 14.898438 -17.457031 15.421875 -16.46875 C 15.953125 -15.488281 16.21875 -14.378906 16.21875 -13.140625 C 16.21875 -11.878906 15.953125 -10.757812 15.421875 -9.78125 C 14.890625 -8.800781 14.109375 -8.03125 13.078125 -7.46875 C 12.046875 -6.914062 10.769531 -6.640625 9.25 -6.640625 L 4.375 -6.640625 L 4.375 -9.5625 L 8.765625 -9.5625 C 9.648438 -9.5625 10.375 -9.710938 10.9375 -10.015625 C 11.5 -10.328125 11.914062 -10.75 12.1875 -11.28125 C 12.457031 -11.820312 12.59375 -12.441406 12.59375 -13.140625 C 12.59375 -13.835938 12.457031 -14.445312 12.1875 -14.96875 C 11.914062 -15.5 11.5 -15.910156 10.9375 -16.203125 C 10.375 -16.503906 9.644531 -16.65625 8.75 -16.65625 L 5.5 -16.65625 L 5.5 0 Z M 1.9375 0 "/></g></g></g><g fill="#ededed" fill-opacity="1"><g transform="translate(277.480127, 649.497995)"><g><path d="M 5.25 -19.640625 L 5.25 0 L 1.78125 0 L 1.78125 -19.640625 Z M 5.25 -19.640625 "/></g></g></g><g fill="#ededed" fill-opacity="1"><g transform="translate(284.517717, 649.497995)"><g><path d="M 6.015625 0.296875 C 5.085938 0.296875 4.25 0.128906 3.5 -0.203125 C 2.757812 -0.535156 2.171875 -1.03125 1.734375 -1.6875 C 1.304688 -2.351562 1.09375 -3.164062 1.09375 -4.125 C 1.09375 -4.957031 1.242188 -5.644531 1.546875 -6.1875 C 1.859375 -6.738281 2.28125 -7.175781 2.8125 -7.5 C 3.34375 -7.820312 3.941406 -8.066406 4.609375 -8.234375 C 5.273438 -8.410156 5.96875 -8.535156 6.6875 -8.609375 C 7.550781 -8.703125 8.25 -8.785156 8.78125 -8.859375 C 9.320312 -8.929688 9.710938 -9.046875 9.953125 -9.203125 C 10.203125 -9.359375 10.328125 -9.601562 10.328125 -9.9375 L 10.328125 -9.984375 C 10.328125 -10.710938 10.113281 -11.273438 9.6875 -11.671875 C 9.257812 -12.066406 8.640625 -12.265625 7.828125 -12.265625 C 6.984375 -12.265625 6.3125 -12.078125 5.8125 -11.703125 C 5.320312 -11.335938 4.988281 -10.898438 4.8125 -10.390625 L 1.578125 -10.859375 C 1.828125 -11.753906 2.242188 -12.503906 2.828125 -13.109375 C 3.421875 -13.710938 4.140625 -14.164062 4.984375 -14.46875 C 5.835938 -14.769531 6.78125 -14.921875 7.8125 -14.921875 C 8.519531 -14.921875 9.222656 -14.835938 9.921875 -14.671875 C 10.628906 -14.503906 11.273438 -14.226562 11.859375 -13.84375 C 12.441406 -13.46875 12.910156 -12.953125 13.265625 -12.296875 C 13.617188 -11.648438 13.796875 -10.835938 13.796875 -9.859375 L 13.796875 0 L 10.453125 0 L 10.453125 -2.015625 L 10.34375 -2.015625 C 10.132812 -1.609375 9.835938 -1.226562 9.453125 -0.875 C 9.078125 -0.519531 8.601562 -0.234375 8.03125 -0.015625 C 7.457031 0.191406 6.785156 0.296875 6.015625 0.296875 Z M 6.921875 -2.25 C 7.617188 -2.25 8.222656 -2.390625 8.734375 -2.671875 C 9.242188 -2.953125 9.632812 -3.320312 9.90625 -3.78125 C 10.1875 -4.238281 10.328125 -4.738281 10.328125 -5.28125 L 10.328125 -7.015625 C 10.222656 -6.929688 10.039062 -6.847656 9.78125 -6.765625 C 9.519531 -6.691406 9.226562 -6.625 8.90625 -6.5625 C 8.59375 -6.507812 8.28125 -6.457031 7.96875 -6.40625 C 7.65625 -6.363281 7.382812 -6.328125 7.15625 -6.296875 C 6.632812 -6.222656 6.171875 -6.109375 5.765625 -5.953125 C 5.359375 -5.796875 5.035156 -5.570312 4.796875 -5.28125 C 4.554688 -5 4.4375 -4.632812 4.4375 -4.1875 C 4.4375 -3.550781 4.671875 -3.066406 5.140625 -2.734375 C 5.609375 -2.410156 6.203125 -2.25 6.921875 -2.25 Z M 6.921875 -2.25 "/></g></g></g><g fill="#ededed" fill-opacity="1"><g transform="translate(300.03111, 649.497995)"><g><path d="M 5.25 -8.625 L 5.25 0 L 1.78125 0 L 1.78125 -14.734375 L 5.09375 -14.734375 L 5.09375 -12.21875 L 5.265625 -12.21875 C 5.609375 -13.050781 6.148438 -13.707031 6.890625 -14.1875 C 7.640625 -14.675781 8.566406 -14.921875 9.671875 -14.921875 C 10.679688 -14.921875 11.566406 -14.703125 12.328125 -14.265625 C 13.085938 -13.828125 13.675781 -13.195312 14.09375 -12.375 C 14.507812 -11.550781 14.710938 -10.550781 14.703125 -9.375 L 14.703125 0 L 11.234375 0 L 11.234375 -8.84375 C 11.234375 -9.820312 10.976562 -10.585938 10.46875 -11.140625 C 9.96875 -11.703125 9.269531 -11.984375 8.375 -11.984375 C 7.757812 -11.984375 7.21875 -11.847656 6.75 -11.578125 C 6.28125 -11.316406 5.910156 -10.9375 5.640625 -10.4375 C 5.378906 -9.9375 5.25 -9.332031 5.25 -8.625 Z M 5.25 -8.625 "/></g></g></g><g fill="#ededed" fill-opacity="1"><g transform="translate(316.49371, 649.497995)"><g><path d="M 11.171875 -6.1875 L 11.171875 -14.734375 L 14.640625 -14.734375 L 14.640625 0 L 11.28125 0 L 11.28125 -2.625 L 11.125 -2.625 C 10.789062 -1.789062 10.242188 -1.113281 9.484375 -0.59375 C 8.722656 -0.0703125 7.789062 0.1875 6.6875 0.1875 C 5.726562 0.1875 4.878906 -0.0234375 4.140625 -0.453125 C 3.398438 -0.890625 2.820312 -1.519531 2.40625 -2.34375 C 1.988281 -3.164062 1.78125 -4.164062 1.78125 -5.34375 L 1.78125 -14.734375 L 5.25 -14.734375 L 5.25 -5.890625 C 5.25 -4.953125 5.503906 -4.207031 6.015625 -3.65625 C 6.523438 -3.113281 7.195312 -2.84375 8.03125 -2.84375 C 8.539062 -2.84375 9.035156 -2.960938 9.515625 -3.203125 C 9.992188 -3.453125 10.390625 -3.828125 10.703125 -4.328125 C 11.015625 -4.828125 11.171875 -5.445312 11.171875 -6.1875 Z M 11.171875 -6.1875 "/></g></g></g><g fill="#ededed" fill-opacity="1"><g transform="translate(332.91796, 649.497995)"><g><path d="M 5.25 -8.625 L 5.25 0 L 1.78125 0 L 1.78125 -14.734375 L 5.09375 -14.734375 L 5.09375 -12.21875 L 5.265625 -12.21875 C 5.609375 -13.050781 6.148438 -13.707031 6.890625 -14.1875 C 7.640625 -14.675781 8.566406 -14.921875 9.671875 -14.921875 C 10.679688 -14.921875 11.566406 -14.703125 12.328125 -14.265625 C 13.085938 -13.828125 13.675781 -13.195312 14.09375 -12.375 C 14.507812 -11.550781 14.710938 -10.550781 14.703125 -9.375 L 14.703125 0 L 11.234375 0 L 11.234375 -8.84375 C 11.234375 -9.820312 10.976562 -10.585938 10.46875 -11.140625 C 9.96875 -11.703125 9.269531 -11.984375 8.375 -11.984375 C 7.757812 -11.984375 7.21875 -11.847656 6.75 -11.578125 C 6.28125 -11.316406 5.910156 -10.9375 5.640625 -10.4375 C 5.378906 -9.9375 5.25 -9.332031 5.25 -8.625 Z M 5.25 -8.625 "/></g></g></g><g fill="#ededed" fill-opacity="1"><g transform="translate(349.38056, 649.497995)"><g><path d="M 8.1875 5.828125 C 6.9375 5.828125 5.863281 5.660156 4.96875 5.328125 C 4.082031 4.992188 3.363281 4.546875 2.8125 3.984375 C 2.269531 3.421875 1.894531 2.796875 1.6875 2.109375 L 4.8125 1.359375 C 4.957031 1.640625 5.160156 1.921875 5.421875 2.203125 C 5.691406 2.492188 6.054688 2.734375 6.515625 2.921875 C 6.972656 3.109375 7.550781 3.203125 8.25 3.203125 C 9.226562 3.203125 10.039062 2.960938 10.6875 2.484375 C 11.332031 2.015625 11.65625 1.234375 11.65625 0.140625 L 11.65625 -2.640625 L 11.484375 -2.640625 C 11.304688 -2.285156 11.046875 -1.921875 10.703125 -1.546875 C 10.359375 -1.171875 9.90625 -0.851562 9.34375 -0.59375 C 8.789062 -0.332031 8.09375 -0.203125 7.25 -0.203125 C 6.113281 -0.203125 5.085938 -0.46875 4.171875 -1 C 3.253906 -1.539062 2.523438 -2.34375 1.984375 -3.40625 C 1.441406 -4.46875 1.171875 -5.800781 1.171875 -7.40625 C 1.171875 -9.03125 1.441406 -10.398438 1.984375 -11.515625 C 2.523438 -12.628906 3.253906 -13.472656 4.171875 -14.046875 C 5.097656 -14.628906 6.128906 -14.921875 7.265625 -14.921875 C 8.117188 -14.921875 8.828125 -14.773438 9.390625 -14.484375 C 9.953125 -14.191406 10.398438 -13.84375 10.734375 -13.4375 C 11.066406 -13.03125 11.316406 -12.648438 11.484375 -12.296875 L 11.671875 -12.296875 L 11.671875 -14.734375 L 15.09375 -14.734375 L 15.09375 0.234375 C 15.09375 1.492188 14.789062 2.535156 14.1875 3.359375 C 13.59375 4.191406 12.773438 4.8125 11.734375 5.21875 C 10.691406 5.625 9.507812 5.828125 8.1875 5.828125 Z M 8.21875 -2.9375 C 8.945312 -2.9375 9.570312 -3.113281 10.09375 -3.46875 C 10.613281 -3.820312 11.003906 -4.332031 11.265625 -5 C 11.535156 -5.675781 11.671875 -6.488281 11.671875 -7.4375 C 11.671875 -8.363281 11.535156 -9.171875 11.265625 -9.859375 C 11.003906 -10.554688 10.617188 -11.097656 10.109375 -11.484375 C 9.597656 -11.878906 8.96875 -12.078125 8.21875 -12.078125 C 7.445312 -12.078125 6.800781 -11.875 6.28125 -11.46875 C 5.757812 -11.0625 5.367188 -10.507812 5.109375 -9.8125 C 4.847656 -9.113281 4.71875 -8.320312 4.71875 -7.4375 C 4.71875 -6.53125 4.847656 -5.738281 5.109375 -5.0625 C 5.378906 -4.394531 5.773438 -3.875 6.296875 -3.5 C 6.816406 -3.125 7.457031 -2.9375 8.21875 -2.9375 Z M 8.21875 -2.9375 "/></g></g></g><g fill="#ededed" fill-opacity="1"><g transform="translate(366.265035, 649.497995)"><g/></g></g><g fill="#ededed" fill-opacity="1"><g transform="translate(372.967049, 649.497995)"><g><path d="M 6.015625 0.296875 C 5.085938 0.296875 4.25 0.128906 3.5 -0.203125 C 2.757812 -0.535156 2.171875 -1.03125 1.734375 -1.6875 C 1.304688 -2.351562 1.09375 -3.164062 1.09375 -4.125 C 1.09375 -4.957031 1.242188 -5.644531 1.546875 -6.1875 C 1.859375 -6.738281 2.28125 -7.175781 2.8125 -7.5 C 3.34375 -7.820312 3.941406 -8.066406 4.609375 -8.234375 C 5.273438 -8.410156 5.96875 -8.535156 6.6875 -8.609375 C 7.550781 -8.703125 8.25 -8.785156 8.78125 -8.859375 C 9.320312 -8.929688 9.710938 -9.046875 9.953125 -9.203125 C 10.203125 -9.359375 10.328125 -9.601562 10.328125 -9.9375 L 10.328125 -9.984375 C 10.328125 -10.710938 10.113281 -11.273438 9.6875 -11.671875 C 9.257812 -12.066406 8.640625 -12.265625 7.828125 -12.265625 C 6.984375 -12.265625 6.3125 -12.078125 5.8125 -11.703125 C 5.320312 -11.335938 4.988281 -10.898438 4.8125 -10.390625 L 1.578125 -10.859375 C 1.828125 -11.753906 2.242188 -12.503906 2.828125 -13.109375 C 3.421875 -13.710938 4.140625 -14.164062 4.984375 -14.46875 C 5.835938 -14.769531 6.78125 -14.921875 7.8125 -14.921875 C 8.519531 -14.921875 9.222656 -14.835938 9.921875 -14.671875 C 10.628906 -14.503906 11.273438 -14.226562 11.859375 -13.84375 C 12.441406 -13.46875 12.910156 -12.953125 13.265625 -12.296875 C 13.617188 -11.648438 13.796875 -10.835938 13.796875 -9.859375 L 13.796875 0 L 10.453125 0 L 10.453125 -2.015625 L 10.34375 -2.015625 C 10.132812 -1.609375 9.835938 -1.226562 9.453125 -0.875 C 9.078125 -0.519531 8.601562 -0.234375 8.03125 -0.015625 C 7.457031 0.191406 6.785156 0.296875 6.015625 0.296875 Z M 6.921875 -2.25 C 7.617188 -2.25 8.222656 -2.390625 8.734375 -2.671875 C 9.242188 -2.953125 9.632812 -3.320312 9.90625 -3.78125 C 10.1875 -4.238281 10.328125 -4.738281 10.328125 -5.28125 L 10.328125 -7.015625 C 10.222656 -6.929688 10.039062 -6.847656 9.78125 -6.765625 C 9.519531 -6.691406 9.226562 -6.625 8.90625 -6.5625 C 8.59375 -6.507812 8.28125 -6.457031 7.96875 -6.40625 C 7.65625 -6.363281 7.382812 -6.328125 7.15625 -6.296875 C 6.632812 -6.222656 6.171875 -6.109375 5.765625 -5.953125 C 5.359375 -5.796875 5.035156 -5.570312 4.796875 -5.28125 C 4.554688 -5 4.4375 -4.632812 4.4375 -4.1875 C 4.4375 -3.550781 4.671875 -3.066406 5.140625 -2.734375 C 5.609375 -2.410156 6.203125 -2.25 6.921875 -2.25 Z M 6.921875 -2.25 "/></g></g></g><g fill="#ededed" fill-opacity="1"><g transform="translate(388.480442, 649.497995)"><g><path d="M 11.171875 -6.1875 L 11.171875 -14.734375 L 14.640625 -14.734375 L 14.640625 0 L 11.28125 0 L 11.28125 -2.625 L 11.125 -2.625 C 10.789062 -1.789062 10.242188 -1.113281 9.484375 -0.59375 C 8.722656 -0.0703125 7.789062 0.1875 6.6875 0.1875 C 5.726562 0.1875 4.878906 -0.0234375 4.140625 -0.453125 C 3.398438 -0.890625 2.820312 -1.519531 2.40625 -2.34375 C 1.988281 -3.164062 1.78125 -4.164062 1.78125 -5.34375 L 1.78125 -14.734375 L 5.25 -14.734375 L 5.25 -5.890625 C 5.25 -4.953125 5.503906 -4.207031 6.015625 -3.65625 C 6.523438 -3.113281 7.195312 -2.84375 8.03125 -2.84375 C 8.539062 -2.84375 9.035156 -2.960938 9.515625 -3.203125 C 9.992188 -3.453125 10.390625 -3.828125 10.703125 -4.328125 C 11.015625 -4.828125 11.171875 -5.445312 11.171875 -6.1875 Z M 11.171875 -6.1875 "/></g></g></g><g fill="#ededed" fill-opacity="1"><g transform="translate(404.904693, 649.497995)"><g><path d="M 9.25 -14.734375 L 9.25 -12.046875 L 0.53125 -12.046875 L 0.53125 -14.734375 Z M 2.71875 0 L 2.71875 -16.125 C 2.71875 -17.113281 2.921875 -17.9375 3.328125 -18.59375 C 3.742188 -19.25 4.300781 -19.738281 5 -20.0625 C 5.695312 -20.394531 6.46875 -20.5625 7.3125 -20.5625 C 7.914062 -20.5625 8.445312 -20.507812 8.90625 -20.40625 C 9.375 -20.3125 9.722656 -20.226562 9.953125 -20.15625 L 9.265625 -17.46875 C 9.117188 -17.507812 8.929688 -17.554688 8.703125 -17.609375 C 8.484375 -17.660156 8.234375 -17.6875 7.953125 -17.6875 C 7.304688 -17.6875 6.847656 -17.53125 6.578125 -17.21875 C 6.316406 -16.90625 6.1875 -16.460938 6.1875 -15.890625 L 6.1875 0 Z M 2.71875 0 "/></g></g></g><g fill="#ededed" fill-opacity="1"><g transform="translate(415.087165, 649.497995)"><g/></g></g><g fill="#ededed" fill-opacity="1"><g transform="translate(421.789168, 649.497995)"><g><path d="M 1.9375 0 L 1.9375 -19.640625 L 14.515625 -19.640625 L 14.515625 -16.65625 L 5.5 -16.65625 L 5.5 -11.328125 L 13.65625 -11.328125 L 13.65625 -8.34375 L 5.5 -8.34375 L 5.5 0 Z M 1.9375 0 "/></g></g></g><g fill="#ededed" fill-opacity="1"><g transform="translate(437.38886, 649.497995)"><g><path d="M 1.78125 0 L 1.78125 -14.734375 L 5.15625 -14.734375 L 5.15625 -12.265625 L 5.296875 -12.265625 C 5.566406 -13.117188 6.03125 -13.773438 6.6875 -14.234375 C 7.34375 -14.703125 8.09375 -14.9375 8.9375 -14.9375 C 9.125 -14.9375 9.335938 -14.925781 9.578125 -14.90625 C 9.816406 -14.894531 10.019531 -14.875 10.1875 -14.84375 L 10.1875 -11.65625 C 10.039062 -11.695312 9.804688 -11.738281 9.484375 -11.78125 C 9.171875 -11.820312 8.867188 -11.84375 8.578125 -11.84375 C 7.941406 -11.84375 7.367188 -11.707031 6.859375 -11.4375 C 6.359375 -11.164062 5.960938 -10.789062 5.671875 -10.3125 C 5.390625 -9.832031 5.25 -9.28125 5.25 -8.65625 L 5.25 0 Z M 1.78125 0 "/></g></g></g><g fill="#ededed" fill-opacity="1"><g transform="translate(447.485021, 649.497995)"><g><path d="M 8.296875 0.28125 C 6.828125 0.28125 5.554688 -0.0234375 4.484375 -0.640625 C 3.410156 -1.253906 2.585938 -2.128906 2.015625 -3.265625 C 1.441406 -4.398438 1.15625 -5.738281 1.15625 -7.28125 C 1.15625 -8.789062 1.441406 -10.117188 2.015625 -11.265625 C 2.597656 -12.410156 3.410156 -13.304688 4.453125 -13.953125 C 5.492188 -14.597656 6.71875 -14.921875 8.125 -14.921875 C 9.03125 -14.921875 9.882812 -14.773438 10.6875 -14.484375 C 11.5 -14.191406 12.21875 -13.738281 12.84375 -13.125 C 13.46875 -12.519531 13.957031 -11.75 14.3125 -10.8125 C 14.675781 -9.882812 14.859375 -8.773438 14.859375 -7.484375 L 14.859375 -6.421875 L 2.78125 -6.421875 L 2.78125 -8.75 L 11.53125 -8.75 C 11.519531 -9.414062 11.375 -10.007812 11.09375 -10.53125 C 10.8125 -11.050781 10.421875 -11.460938 9.921875 -11.765625 C 9.421875 -12.066406 8.835938 -12.21875 8.171875 -12.21875 C 7.460938 -12.21875 6.835938 -12.046875 6.296875 -11.703125 C 5.765625 -11.359375 5.347656 -10.910156 5.046875 -10.359375 C 4.753906 -9.804688 4.601562 -9.203125 4.59375 -8.546875 L 4.59375 -6.5 C 4.59375 -5.644531 4.75 -4.910156 5.0625 -4.296875 C 5.375 -3.691406 5.8125 -3.226562 6.375 -2.90625 C 6.9375 -2.582031 7.59375 -2.421875 8.34375 -2.421875 C 8.851562 -2.421875 9.3125 -2.488281 9.71875 -2.625 C 10.125 -2.769531 10.476562 -2.984375 10.78125 -3.265625 C 11.082031 -3.546875 11.3125 -3.894531 11.46875 -4.3125 L 14.703125 -3.953125 C 14.503906 -3.097656 14.117188 -2.347656 13.546875 -1.703125 C 12.972656 -1.066406 12.238281 -0.578125 11.34375 -0.234375 C 10.457031 0.109375 9.441406 0.28125 8.296875 0.28125 Z M 8.296875 0.28125 "/></g></g></g><g fill="#ededed" fill-opacity="1"><g transform="translate(463.487385, 649.497995)"><g><path d="M 1.78125 0 L 1.78125 -14.734375 L 5.25 -14.734375 L 5.25 0 Z M 3.53125 -16.8125 C 2.976562 -16.8125 2.503906 -16.992188 2.109375 -17.359375 C 1.710938 -17.734375 1.515625 -18.179688 1.515625 -18.703125 C 1.515625 -19.222656 1.710938 -19.664062 2.109375 -20.03125 C 2.503906 -20.394531 2.976562 -20.578125 3.53125 -20.578125 C 4.082031 -20.578125 4.554688 -20.394531 4.953125 -20.03125 C 5.347656 -19.664062 5.546875 -19.222656 5.546875 -18.703125 C 5.546875 -18.179688 5.347656 -17.734375 4.953125 -17.359375 C 4.554688 -16.992188 4.082031 -16.8125 3.53125 -16.8125 Z M 3.53125 -16.8125 "/></g></g></g><g fill="#ededed" fill-opacity="1"><g transform="translate(470.524998, 649.497995)"><g><path d="M 5.25 -8.625 L 5.25 0 L 1.78125 0 L 1.78125 -19.640625 L 5.171875 -19.640625 L 5.171875 -12.21875 L 5.34375 -12.21875 C 5.695312 -13.050781 6.234375 -13.707031 6.953125 -14.1875 C 7.679688 -14.675781 8.609375 -14.921875 9.734375 -14.921875 C 10.753906 -14.921875 11.644531 -14.707031 12.40625 -14.28125 C 13.164062 -13.851562 13.753906 -13.222656 14.171875 -12.390625 C 14.585938 -11.566406 14.796875 -10.5625 14.796875 -9.375 L 14.796875 0 L 11.328125 0 L 11.328125 -8.84375 C 11.328125 -9.832031 11.070312 -10.601562 10.5625 -11.15625 C 10.0625 -11.707031 9.351562 -11.984375 8.4375 -11.984375 C 7.820312 -11.984375 7.269531 -11.847656 6.78125 -11.578125 C 6.300781 -11.316406 5.925781 -10.9375 5.65625 -10.4375 C 5.382812 -9.9375 5.25 -9.332031 5.25 -8.625 Z M 5.25 -8.625 "/></g></g></g><g fill="#ededed" fill-opacity="1"><g transform="translate(487.073886, 649.497995)"><g><path d="M 8.296875 0.28125 C 6.828125 0.28125 5.554688 -0.0234375 4.484375 -0.640625 C 3.410156 -1.253906 2.585938 -2.128906 2.015625 -3.265625 C 1.441406 -4.398438 1.15625 -5.738281 1.15625 -7.28125 C 1.15625 -8.789062 1.441406 -10.117188 2.015625 -11.265625 C 2.597656 -12.410156 3.410156 -13.304688 4.453125 -13.953125 C 5.492188 -14.597656 6.71875 -14.921875 8.125 -14.921875 C 9.03125 -14.921875 9.882812 -14.773438 10.6875 -14.484375 C 11.5 -14.191406 12.21875 -13.738281 12.84375 -13.125 C 13.46875 -12.519531 13.957031 -11.75 14.3125 -10.8125 C 14.675781 -9.882812 14.859375 -8.773438 14.859375 -7.484375 L 14.859375 -6.421875 L 2.78125 -6.421875 L 2.78125 -8.75 L 11.53125 -8.75 C 11.519531 -9.414062 11.375 -10.007812 11.09375 -10.53125 C 10.8125 -11.050781 10.421875 -11.460938 9.921875 -11.765625 C 9.421875 -12.066406 8.835938 -12.21875 8.171875 -12.21875 C 7.460938 -12.21875 6.835938 -12.046875 6.296875 -11.703125 C 5.765625 -11.359375 5.347656 -10.910156 5.046875 -10.359375 C 4.753906 -9.804688 4.601562 -9.203125 4.59375 -8.546875 L 4.59375 -6.5 C 4.59375 -5.644531 4.75 -4.910156 5.0625 -4.296875 C 5.375 -3.691406 5.8125 -3.226562 6.375 -2.90625 C 6.9375 -2.582031 7.59375 -2.421875 8.34375 -2.421875 C 8.851562 -2.421875 9.3125 -2.488281 9.71875 -2.625 C 10.125 -2.769531 10.476562 -2.984375 10.78125 -3.265625 C 11.082031 -3.546875 11.3125 -3.894531 11.46875 -4.3125 L 14.703125 -3.953125 C 14.503906 -3.097656 14.117188 -2.347656 13.546875 -1.703125 C 12.972656 -1.066406 12.238281 -0.578125 11.34375 -0.234375 C 10.457031 0.109375 9.441406 0.28125 8.296875 0.28125 Z M 8.296875 0.28125 "/></g></g></g><g fill="#ededed" fill-opacity="1"><g transform="translate(503.076251, 649.497995)"><g><path d="M 1.78125 0 L 1.78125 -14.734375 L 5.25 -14.734375 L 5.25 0 Z M 3.53125 -16.8125 C 2.976562 -16.8125 2.503906 -16.992188 2.109375 -17.359375 C 1.710938 -17.734375 1.515625 -18.179688 1.515625 -18.703125 C 1.515625 -19.222656 1.710938 -19.664062 2.109375 -20.03125 C 2.503906 -20.394531 2.976562 -20.578125 3.53125 -20.578125 C 4.082031 -20.578125 4.554688 -20.394531 4.953125 -20.03125 C 5.347656 -19.664062 5.546875 -19.222656 5.546875 -18.703125 C 5.546875 -18.179688 5.347656 -17.734375 4.953125 -17.359375 C 4.554688 -16.992188 4.082031 -16.8125 3.53125 -16.8125 Z M 3.53125 -16.8125 "/></g></g></g><g fill="#ededed" fill-opacity="1"><g transform="translate(510.11384, 649.497995)"><g><path d="M 9.140625 -14.734375 L 9.140625 -12.046875 L 0.671875 -12.046875 L 0.671875 -14.734375 Z M 2.765625 -18.25 L 6.234375 -18.25 L 6.234375 -4.421875 C 6.234375 -3.960938 6.300781 -3.609375 6.4375 -3.359375 C 6.582031 -3.109375 6.773438 -2.9375 7.015625 -2.84375 C 7.253906 -2.757812 7.515625 -2.71875 7.796875 -2.71875 C 8.015625 -2.71875 8.210938 -2.734375 8.390625 -2.765625 C 8.578125 -2.796875 8.722656 -2.828125 8.828125 -2.859375 L 9.40625 -0.140625 C 9.21875 -0.078125 8.953125 -0.0078125 8.609375 0.0625 C 8.273438 0.144531 7.859375 0.191406 7.359375 0.203125 C 6.492188 0.222656 5.710938 0.09375 5.015625 -0.1875 C 4.316406 -0.476562 3.765625 -0.929688 3.359375 -1.546875 C 2.953125 -2.160156 2.753906 -2.929688 2.765625 -3.859375 Z M 2.765625 -18.25 "/></g></g></g><g fill="#ededed" fill-opacity="1"><g transform="translate(520.372988, 649.497995)"><g/></g></g><g fill="#ededed" fill-opacity="1"><g transform="translate(527.075014, 649.497995)"><g><path d="M 9.140625 -14.734375 L 9.140625 -12.046875 L 0.671875 -12.046875 L 0.671875 -14.734375 Z M 2.765625 -18.25 L 6.234375 -18.25 L 6.234375 -4.421875 C 6.234375 -3.960938 6.300781 -3.609375 6.4375 -3.359375 C 6.582031 -3.109375 6.773438 -2.9375 7.015625 -2.84375 C 7.253906 -2.757812 7.515625 -2.71875 7.796875 -2.71875 C 8.015625 -2.71875 8.210938 -2.734375 8.390625 -2.765625 C 8.578125 -2.796875 8.722656 -2.828125 8.828125 -2.859375 L 9.40625 -0.140625 C 9.21875 -0.078125 8.953125 -0.0078125 8.609375 0.0625 C 8.273438 0.144531 7.859375 0.191406 7.359375 0.203125 C 6.492188 0.222656 5.710938 0.09375 5.015625 -0.1875 C 4.316406 -0.476562 3.765625 -0.929688 3.359375 -1.546875 C 2.953125 -2.160156 2.753906 -2.929688 2.765625 -3.859375 Z M 2.765625 -18.25 "/></g></g></g><g fill="#ededed" fill-opacity="1"><g transform="translate(537.334184, 649.497995)"><g><path d="M 1.78125 0 L 1.78125 -14.734375 L 5.15625 -14.734375 L 5.15625 -12.265625 L 5.296875 -12.265625 C 5.566406 -13.117188 6.03125 -13.773438 6.6875 -14.234375 C 7.34375 -14.703125 8.09375 -14.9375 8.9375 -14.9375 C 9.125 -14.9375 9.335938 -14.925781 9.578125 -14.90625 C 9.816406 -14.894531 10.019531 -14.875 10.1875 -14.84375 L 10.1875 -11.65625 C 10.039062 -11.695312 9.804688 -11.738281 9.484375 -11.78125 C 9.171875 -11.820312 8.867188 -11.84375 8.578125 -11.84375 C 7.941406 -11.84375 7.367188 -11.707031 6.859375 -11.4375 C 6.359375 -11.164062 5.960938 -10.789062 5.671875 -10.3125 C 5.390625 -9.832031 5.25 -9.28125 5.25 -8.65625 L 5.25 0 Z M 1.78125 0 "/></g></g></g><g fill="#ededed" fill-opacity="1"><g transform="translate(548.043976, 649.497995)"><g><path d="M 1.78125 0 L 1.78125 -14.734375 L 5.25 -14.734375 L 5.25 0 Z M 3.53125 -16.8125 C 2.976562 -16.8125 2.503906 -16.992188 2.109375 -17.359375 C 1.710938 -17.734375 1.515625 -18.179688 1.515625 -18.703125 C 1.515625 -19.222656 1.710938 -19.664062 2.109375 -20.03125 C 2.503906 -20.394531 2.976562 -20.578125 3.53125 -20.578125 C 4.082031 -20.578125 4.554688 -20.394531 4.953125 -20.03125 C 5.347656 -19.664062 5.546875 -19.222656 5.546875 -18.703125 C 5.546875 -18.179688 5.347656 -17.734375 4.953125 -17.359375 C 4.554688 -16.992188 4.082031 -16.8125 3.53125 -16.8125 Z M 3.53125 -16.8125 "/></g></g></g><g fill="#ededed" fill-opacity="1"><g transform="translate(555.081566, 649.497995)"><g><path d="M 9.25 -14.734375 L 9.25 -12.046875 L 0.53125 -12.046875 L 0.53125 -14.734375 Z M 2.71875 0 L 2.71875 -16.125 C 2.71875 -17.113281 2.921875 -17.9375 3.328125 -18.59375 C 3.742188 -19.25 4.300781 -19.738281 5 -20.0625 C 5.695312 -20.394531 6.46875 -20.5625 7.3125 -20.5625 C 7.914062 -20.5625 8.445312 -20.507812 8.90625 -20.40625 C 9.375 -20.3125 9.722656 -20.226562 9.953125 -20.15625 L 9.265625 -17.46875 C 9.117188 -17.507812 8.929688 -17.554688 8.703125 -17.609375 C 8.484375 -17.660156 8.234375 -17.6875 7.953125 -17.6875 C 7.304688 -17.6875 6.847656 -17.53125 6.578125 -17.21875 C 6.316406 -16.90625 6.1875 -16.460938 6.1875 -15.890625 L 6.1875 0 Z M 2.71875 0 "/></g></g></g><g fill="#ededed" fill-opacity="1"><g transform="translate(565.264038, 649.497995)"><g><path d="M 9.25 -14.734375 L 9.25 -12.046875 L 0.53125 -12.046875 L 0.53125 -14.734375 Z M 2.71875 0 L 2.71875 -16.125 C 2.71875 -17.113281 2.921875 -17.9375 3.328125 -18.59375 C 3.742188 -19.25 4.300781 -19.738281 5 -20.0625 C 5.695312 -20.394531 6.46875 -20.5625 7.3125 -20.5625 C 7.914062 -20.5625 8.445312 -20.507812 8.90625 -20.40625 C 9.375 -20.3125 9.722656 -20.226562 9.953125 -20.15625 L 9.265625 -17.46875 C 9.117188 -17.507812 8.929688 -17.554688 8.703125 -17.609375 C 8.484375 -17.660156 8.234375 -17.6875 7.953125 -17.6875 C 7.304688 -17.6875 6.847656 -17.53125 6.578125 -17.21875 C 6.316406 -16.90625 6.1875 -16.460938 6.1875 -15.890625 L 6.1875 0 Z M 2.71875 0 "/></g></g></g><g fill="#ededed" fill-opacity="1"><g transform="translate(575.446486, 649.497995)"><g><path d="M 9.140625 -14.734375 L 9.140625 -12.046875 L 0.671875 -12.046875 L 0.671875 -14.734375 Z M 2.765625 -18.25 L 6.234375 -18.25 L 6.234375 -4.421875 C 6.234375 -3.960938 6.300781 -3.609375 6.4375 -3.359375 C 6.582031 -3.109375 6.773438 -2.9375 7.015625 -2.84375 C 7.253906 -2.757812 7.515625 -2.71875 7.796875 -2.71875 C 8.015625 -2.71875 8.210938 -2.734375 8.390625 -2.765625 C 8.578125 -2.796875 8.722656 -2.828125 8.828125 -2.859375 L 9.40625 -0.140625 C 9.21875 -0.078125 8.953125 -0.0078125 8.609375 0.0625 C 8.273438 0.144531 7.859375 0.191406 7.359375 0.203125 C 6.492188 0.222656 5.710938 0.09375 5.015625 -0.1875 C 4.316406 -0.476562 3.765625 -0.929688 3.359375 -1.546875 C 2.953125 -2.160156 2.753906 -2.929688 2.765625 -3.859375 Z M 2.765625 -18.25 "/></g></g></g><g fill="#ededed" fill-opacity="1"><g transform="translate(585.705656, 649.497995)"><g><path d="M 3.921875 0.203125 C 3.335938 0.203125 2.835938 0 2.421875 -0.40625 C 2.003906 -0.8125 1.800781 -1.304688 1.8125 -1.890625 C 1.800781 -2.472656 2.003906 -2.96875 2.421875 -3.375 C 2.835938 -3.78125 3.335938 -3.984375 3.921875 -3.984375 C 4.484375 -3.984375 4.972656 -3.78125 5.390625 -3.375 C 5.804688 -2.96875 6.019531 -2.472656 6.03125 -1.890625 C 6.019531 -1.503906 5.914062 -1.148438 5.71875 -0.828125 C 5.53125 -0.515625 5.273438 -0.265625 4.953125 -0.078125 C 4.640625 0.109375 4.296875 0.203125 3.921875 0.203125 Z M 3.921875 0.203125 "/></g></g></g><path stroke-linecap="butt" transform="matrix(0.75, -0.000000000000000093, 0.000000000000000093, 0.75, 177.518123, 503.956939)" fill="none" stroke-linejoin="miter" d="M 13.001878 2.000124 L 602.975866 2.000124 " stroke="#ffffff" stroke-width="4" stroke-opacity="1" stroke-miterlimit="4"/><path stroke-linecap="round" transform="matrix(0.75, -0.000000000000000093, 0.000000000000000093, 0.75, 177.518123, 503.956939)" fill-opacity="1" fill="#ffffff" fill-rule="nonzero" stroke-linejoin="round" d="M 2.001877 2.000124 L 8.001878 -3.999877 L 14.001878 2.000124 L 8.001878 8.000124 Z M 2.001877 2.000124 " stroke="#ffffff" stroke-width="4" stroke-opacity="1" stroke-miterlimit="4"/><path stroke-linecap="round" transform="matrix(0.75, -0.000000000000000093, 0.000000000000000093, 0.75, 177.518123, 503.956939)" fill-opacity="1" fill="#ffffff" fill-rule="nonzero" stroke-linejoin="round" d="M 613.975866 2.000124 L 607.975866 -3.999877 L 601.975866 2.000124 L 607.975866 8.000124 Z M 613.975866 2.000124 " stroke="#ffffff" stroke-width="4" stroke-opacity="1" stroke-miterlimit="4"/><path stroke-linecap="butt" transform="matrix(0.75, 0.000000000000000069, -0.000000000000000069, 0.75, 177.518123, 338.565735)" fill="none" stroke-linejoin="miter" d="M 13.001878 2.000895 L 602.975866 2.000895 " stroke="#ffffff" stroke-width="4" stroke-opacity="1" stroke-miterlimit="4"/><path stroke-linecap="round" transform="matrix(0.75, 0.000000000000000069, -0.000000000000000069, 0.75, 177.518123, 338.565735)" fill-opacity="1" fill="#ffffff" fill-rule="nonzero" stroke-linejoin="round" d="M 2.001877 2.000895 L 8.001878 -3.999105 L 14.001878 2.000895 L 8.001878 8.000895 Z M 2.001877 2.000895 " stroke="#ffffff" stroke-width="4" stroke-opacity="1" stroke-miterlimit="4"/><path stroke-linecap="round" transform="matrix(0.75, 0.000000000000000069, -0.000000000000000069, 0.75, 177.518123, 338.565735)" fill-opacity="1" fill="#ffffff" fill-rule="nonzero" stroke-linejoin="round" d="M 613.975866 2.000895 L 607.975866 -3.999105 L 601.975866 2.000895 L 607.975866 8.000895 Z M 613.975866 2.000895 " stroke="#ffffff" stroke-width="4" stroke-opacity="1" stroke-miterlimit="4"/></svg>