<svg xmlns="http://www.w3.org/2000/svg" xmlns:xlink="http://www.w3.org/1999/xlink" width="1080" zoomAndPan="magnify" viewBox="0 0 810 809.999993" height="1080" preserveAspectRatio="xMidYMid meet" version="1.0"><defs><g/><linearGradient x1="0" gradientTransform="matrix(0.75, 0, 0, 0.75, 0.0000035, 0.00002)" y1="540" x2="1079.999955" gradientUnits="userSpaceOnUse" y2="540" id="c61f4fe863"><stop stop-opacity="1" stop-color="rgb(5.099487%, 5.099487%, 5.099487%)" offset="0"/><stop stop-opacity="1" stop-color="rgb(5.258179%, 5.258179%, 5.258179%)" offset="0.0625"/><stop stop-opacity="1" stop-color="rgb(5.577087%, 5.577087%, 5.577087%)" offset="0.125"/><stop stop-opacity="1" stop-color="rgb(5.895996%, 5.895996%, 5.895996%)" offset="0.1875"/><stop stop-opacity="1" stop-color="rgb(6.214905%, 6.214905%, 6.214905%)" offset="0.25"/><stop stop-opacity="1" stop-color="rgb(6.532288%, 6.532288%, 6.532288%)" offset="0.3125"/><stop stop-opacity="1" stop-color="rgb(6.851196%, 6.851196%, 6.851196%)" offset="0.375"/><stop stop-opacity="1" stop-color="rgb(7.170105%, 7.170105%, 7.170105%)" offset="0.4375"/><stop stop-opacity="1" stop-color="rgb(7.489014%, 7.489014%, 7.489014%)" offset="0.5"/><stop stop-opacity="1" stop-color="rgb(7.807922%, 7.807922%, 7.807922%)" offset="0.5625"/><stop stop-opacity="1" stop-color="rgb(8.126831%, 8.126831%, 8.126831%)" offset="0.625"/><stop stop-opacity="1" stop-color="rgb(8.44574%, 8.44574%, 8.44574%)" offset="0.6875"/><stop stop-opacity="1" stop-color="rgb(8.764648%, 8.764648%, 8.764648%)" offset="0.75"/><stop stop-opacity="1" stop-color="rgb(9.083557%, 9.083557%, 9.083557%)" offset="0.8125"/><stop stop-opacity="1" stop-color="rgb(9.40094%, 9.40094%, 9.40094%)" offset="0.875"/><stop stop-opacity="1" stop-color="rgb(9.719849%, 9.719849%, 9.719849%)" offset="0.9375"/><stop stop-opacity="1" stop-color="rgb(10.038757%, 10.038757%, 10.038757%)" offset="1"/></linearGradient><clipPath id="62f465763c"><path d="M 14.191406 346.683594 L 793.96875 346.683594 L 793.96875 533.292969 L 14.191406 533.292969 Z M 14.191406 346.683594 " clip-rule="nonzero"/></clipPath><clipPath id="4cc2ebf513"><path d="M 776.144531 346.683594 L 31.488281 346.683594 C 21.980469 346.683594 14.191406 350.171875 14.191406 354.4375 L 14.191406 525.535156 C 14.191406 529.804688 21.980469 533.292969 31.488281 533.292969 L 776.144531 533.292969 C 785.652344 533.292969 793.445312 529.804688 793.445312 525.535156 L 793.445312 354.4375 C 793.445312 350.171875 785.652344 346.683594 776.144531 346.683594 Z M 776.144531 346.683594 " clip-rule="nonzero"/></clipPath><clipPath id="ab6a0f4858"><path d="M 0.191406 0.683594 L 779.257812 0.683594 L 779.257812 187.292969 L 0.191406 187.292969 Z M 0.191406 0.683594 " clip-rule="nonzero"/></clipPath><clipPath id="213d2345ca"><path d="M 762.144531 0.683594 L 17.488281 0.683594 C 7.980469 0.683594 0.191406 4.171875 0.191406 8.4375 L 0.191406 179.535156 C 0.191406 183.804688 7.980469 187.292969 17.488281 187.292969 L 762.144531 187.292969 C 771.652344 187.292969 779.445312 183.804688 779.445312 179.535156 L 779.445312 8.4375 C 779.445312 4.171875 771.652344 0.683594 762.144531 0.683594 Z M 762.144531 0.683594 " clip-rule="nonzero"/></clipPath><linearGradient x1="0.00701935" gradientTransform="matrix(0.709534, 0, 0, 0.709534, 0.184804, 0.684251)" y1="131.5" x2="1098.00701" gradientUnits="userSpaceOnUse" y2="131.5" id="14cc9790ea"><stop stop-opacity="1" stop-color="rgb(36.468506%, 87.838745%, 90.19928%)" offset="0"/><stop stop-opacity="1" stop-color="rgb(36.326599%, 87.608337%, 90.110779%)" offset="0.00390625"/><stop stop-opacity="1" stop-color="rgb(36.184692%, 87.379456%, 90.023804%)" offset="0.0078125"/><stop stop-opacity="1" stop-color="rgb(36.04126%, 87.149048%, 89.936829%)" offset="0.0117188"/><stop stop-opacity="1" stop-color="rgb(35.899353%, 86.920166%, 89.849854%)" offset="0.015625"/><stop stop-opacity="1" stop-color="rgb(35.75592%, 86.689758%, 89.762878%)" offset="0.0195313"/><stop stop-opacity="1" stop-color="rgb(35.614014%, 86.460876%, 89.675903%)" offset="0.0234375"/><stop stop-opacity="1" stop-color="rgb(35.472107%, 86.230469%, 89.587402%)" offset="0.0273438"/><stop stop-opacity="1" stop-color="rgb(35.3302%, 86.001587%, 89.500427%)" offset="0.03125"/><stop stop-opacity="1" stop-color="rgb(35.186768%, 85.771179%, 89.413452%)" offset="0.0351562"/><stop stop-opacity="1" stop-color="rgb(35.044861%, 85.542297%, 89.326477%)" offset="0.0390625"/><stop stop-opacity="1" stop-color="rgb(34.901428%, 85.31189%, 89.237976%)" offset="0.0429688"/><stop stop-opacity="1" stop-color="rgb(34.759521%, 85.083008%, 89.151001%)" offset="0.046875"/><stop stop-opacity="1" stop-color="rgb(34.617615%, 84.8526%, 89.064026%)" offset="0.0507812"/><stop stop-opacity="1" stop-color="rgb(34.475708%, 84.622192%, 88.977051%)" offset="0.0546875"/><stop stop-opacity="1" stop-color="rgb(34.332275%, 84.391785%, 88.88855%)" offset="0.0585937"/><stop stop-opacity="1" stop-color="rgb(34.190369%, 84.162903%, 88.801575%)" offset="0.0625"/><stop stop-opacity="1" stop-color="rgb(34.046936%, 83.932495%, 88.7146%)" offset="0.0664062"/><stop stop-opacity="1" stop-color="rgb(33.905029%, 83.703613%, 88.627625%)" offset="0.0703125"/><stop stop-opacity="1" stop-color="rgb(33.763123%, 83.473206%, 88.539124%)" offset="0.0742188"/><stop stop-opacity="1" stop-color="rgb(33.621216%, 83.244324%, 88.452148%)" offset="0.078125"/><stop stop-opacity="1" stop-color="rgb(33.477783%, 83.013916%, 88.365173%)" offset="0.0820312"/><stop stop-opacity="1" stop-color="rgb(33.335876%, 82.785034%, 88.278198%)" offset="0.0859375"/><stop stop-opacity="1" stop-color="rgb(33.192444%, 82.554626%, 88.189697%)" offset="0.0898438"/><stop stop-opacity="1" stop-color="rgb(33.050537%, 82.325745%, 88.102722%)" offset="0.09375"/><stop stop-opacity="1" stop-color="rgb(32.907104%, 82.095337%, 88.015747%)" offset="0.0976562"/><stop stop-opacity="1" stop-color="rgb(32.765198%, 81.866455%, 87.928772%)" offset="0.101562"/><stop stop-opacity="1" stop-color="rgb(32.623291%, 81.636047%, 87.840271%)" offset="0.105469"/><stop stop-opacity="1" stop-color="rgb(32.481384%, 81.407166%, 87.753296%)" offset="0.109375"/><stop stop-opacity="1" stop-color="rgb(32.337952%, 81.176758%, 87.666321%)" offset="0.113281"/><stop stop-opacity="1" stop-color="rgb(32.196045%, 80.947876%, 87.579346%)" offset="0.117187"/><stop stop-opacity="1" stop-color="rgb(32.052612%, 80.717468%, 87.492371%)" offset="0.121094"/><stop stop-opacity="1" stop-color="rgb(31.910706%, 80.488586%, 87.405396%)" offset="0.125"/><stop stop-opacity="1" stop-color="rgb(31.768799%, 80.258179%, 87.316895%)" offset="0.128906"/><stop stop-opacity="1" stop-color="rgb(31.626892%, 80.029297%, 87.229919%)" offset="0.132812"/><stop stop-opacity="1" stop-color="rgb(31.483459%, 79.798889%, 87.142944%)" offset="0.136719"/><stop stop-opacity="1" stop-color="rgb(31.341553%, 79.570007%, 87.055969%)" offset="0.140625"/><stop stop-opacity="1" stop-color="rgb(31.19812%, 79.3396%, 86.967468%)" offset="0.144531"/><stop stop-opacity="1" stop-color="rgb(31.056213%, 79.109192%, 86.880493%)" offset="0.148438"/><stop stop-opacity="1" stop-color="rgb(30.914307%, 78.878784%, 86.793518%)" offset="0.152344"/><stop stop-opacity="1" stop-color="rgb(30.7724%, 78.649902%, 86.706543%)" offset="0.15625"/><stop stop-opacity="1" stop-color="rgb(30.628967%, 78.419495%, 86.618042%)" offset="0.160156"/><stop stop-opacity="1" stop-color="rgb(30.487061%, 78.190613%, 86.531067%)" offset="0.164062"/><stop stop-opacity="1" stop-color="rgb(30.343628%, 77.960205%, 86.444092%)" offset="0.167969"/><stop stop-opacity="1" stop-color="rgb(30.201721%, 77.731323%, 86.357117%)" offset="0.171875"/><stop stop-opacity="1" stop-color="rgb(30.059814%, 77.500916%, 86.268616%)" offset="0.175781"/><stop stop-opacity="1" stop-color="rgb(29.917908%, 77.272034%, 86.181641%)" offset="0.179688"/><stop stop-opacity="1" stop-color="rgb(29.774475%, 77.041626%, 86.094666%)" offset="0.183594"/><stop stop-opacity="1" stop-color="rgb(29.632568%, 76.812744%, 86.00769%)" offset="0.1875"/><stop stop-opacity="1" stop-color="rgb(29.489136%, 76.582336%, 85.919189%)" offset="0.191406"/><stop stop-opacity="1" stop-color="rgb(29.347229%, 76.353455%, 85.832214%)" offset="0.195312"/><stop stop-opacity="1" stop-color="rgb(29.205322%, 76.123047%, 85.745239%)" offset="0.199219"/><stop stop-opacity="1" stop-color="rgb(29.063416%, 75.894165%, 85.658264%)" offset="0.203125"/><stop stop-opacity="1" stop-color="rgb(28.919983%, 75.663757%, 85.571289%)" offset="0.207031"/><stop stop-opacity="1" stop-color="rgb(28.778076%, 75.434875%, 85.484314%)" offset="0.210937"/><stop stop-opacity="1" stop-color="rgb(28.634644%, 75.204468%, 85.395813%)" offset="0.214844"/><stop stop-opacity="1" stop-color="rgb(28.492737%, 74.975586%, 85.308838%)" offset="0.21875"/><stop stop-opacity="1" stop-color="rgb(28.35083%, 74.745178%, 85.221863%)" offset="0.222656"/><stop stop-opacity="1" stop-color="rgb(28.208923%, 74.516296%, 85.134888%)" offset="0.226562"/><stop stop-opacity="1" stop-color="rgb(28.065491%, 74.285889%, 85.046387%)" offset="0.230469"/><stop stop-opacity="1" stop-color="rgb(27.923584%, 74.055481%, 84.959412%)" offset="0.234375"/><stop stop-opacity="1" stop-color="rgb(27.780151%, 73.825073%, 84.872437%)" offset="0.238281"/><stop stop-opacity="1" stop-color="rgb(27.638245%, 73.596191%, 84.785461%)" offset="0.242187"/><stop stop-opacity="1" stop-color="rgb(27.496338%, 73.365784%, 84.69696%)" offset="0.246094"/><stop stop-opacity="1" stop-color="rgb(27.354431%, 73.136902%, 84.609985%)" offset="0.25"/><stop stop-opacity="1" stop-color="rgb(27.210999%, 72.906494%, 84.52301%)" offset="0.253906"/><stop stop-opacity="1" stop-color="rgb(27.069092%, 72.677612%, 84.436035%)" offset="0.257812"/><stop stop-opacity="1" stop-color="rgb(26.925659%, 72.447205%, 84.347534%)" offset="0.261719"/><stop stop-opacity="1" stop-color="rgb(26.783752%, 72.218323%, 84.260559%)" offset="0.265625"/><stop stop-opacity="1" stop-color="rgb(26.64032%, 71.987915%, 84.173584%)" offset="0.269531"/><stop stop-opacity="1" stop-color="rgb(26.498413%, 71.759033%, 84.086609%)" offset="0.273437"/><stop stop-opacity="1" stop-color="rgb(26.356506%, 71.528625%, 83.998108%)" offset="0.277344"/><stop stop-opacity="1" stop-color="rgb(26.2146%, 71.299744%, 83.911133%)" offset="0.28125"/><stop stop-opacity="1" stop-color="rgb(26.071167%, 71.069336%, 83.824158%)" offset="0.285156"/><stop stop-opacity="1" stop-color="rgb(25.92926%, 70.840454%, 83.737183%)" offset="0.289062"/><stop stop-opacity="1" stop-color="rgb(25.785828%, 70.610046%, 83.650208%)" offset="0.292969"/><stop stop-opacity="1" stop-color="rgb(25.643921%, 70.381165%, 83.563232%)" offset="0.296875"/><stop stop-opacity="1" stop-color="rgb(25.502014%, 70.150757%, 83.474731%)" offset="0.300781"/><stop stop-opacity="1" stop-color="rgb(25.360107%, 69.921875%, 83.387756%)" offset="0.304687"/><stop stop-opacity="1" stop-color="rgb(25.216675%, 69.691467%, 83.300781%)" offset="0.308594"/><stop stop-opacity="1" stop-color="rgb(25.074768%, 69.462585%, 83.213806%)" offset="0.3125"/><stop stop-opacity="1" stop-color="rgb(24.931335%, 69.232178%, 83.125305%)" offset="0.316406"/><stop stop-opacity="1" stop-color="rgb(24.789429%, 69.003296%, 83.03833%)" offset="0.320312"/><stop stop-opacity="1" stop-color="rgb(24.647522%, 68.772888%, 82.951355%)" offset="0.324219"/><stop stop-opacity="1" stop-color="rgb(24.505615%, 68.54248%, 82.86438%)" offset="0.328125"/><stop stop-opacity="1" stop-color="rgb(24.362183%, 68.312073%, 82.775879%)" offset="0.332031"/><stop stop-opacity="1" stop-color="rgb(24.220276%, 68.083191%, 82.688904%)" offset="0.335937"/><stop stop-opacity="1" stop-color="rgb(24.076843%, 67.852783%, 82.601929%)" offset="0.339844"/><stop stop-opacity="1" stop-color="rgb(23.934937%, 67.623901%, 82.514954%)" offset="0.34375"/><stop stop-opacity="1" stop-color="rgb(23.79303%, 67.393494%, 82.426453%)" offset="0.347656"/><stop stop-opacity="1" stop-color="rgb(23.651123%, 67.164612%, 82.339478%)" offset="0.351562"/><stop stop-opacity="1" stop-color="rgb(23.50769%, 66.934204%, 82.252502%)" offset="0.355469"/><stop stop-opacity="1" stop-color="rgb(23.365784%, 66.705322%, 82.165527%)" offset="0.359375"/><stop stop-opacity="1" stop-color="rgb(23.222351%, 66.474915%, 82.077026%)" offset="0.363281"/><stop stop-opacity="1" stop-color="rgb(23.080444%, 66.246033%, 81.990051%)" offset="0.367187"/><stop stop-opacity="1" stop-color="rgb(22.938538%, 66.015625%, 81.903076%)" offset="0.371094"/><stop stop-opacity="1" stop-color="rgb(22.796631%, 65.786743%, 81.816101%)" offset="0.375"/><stop stop-opacity="1" stop-color="rgb(22.653198%, 65.556335%, 81.729126%)" offset="0.378906"/><stop stop-opacity="1" stop-color="rgb(22.511292%, 65.327454%, 81.642151%)" offset="0.382812"/><stop stop-opacity="1" stop-color="rgb(22.367859%, 65.097046%, 81.55365%)" offset="0.386719"/><stop stop-opacity="1" stop-color="rgb(22.225952%, 64.868164%, 81.466675%)" offset="0.390625"/><stop stop-opacity="1" stop-color="rgb(22.084045%, 64.637756%, 81.3797%)" offset="0.394531"/><stop stop-opacity="1" stop-color="rgb(21.942139%, 64.408875%, 81.292725%)" offset="0.398437"/><stop stop-opacity="1" stop-color="rgb(21.798706%, 64.178467%, 81.204224%)" offset="0.402344"/><stop stop-opacity="1" stop-color="rgb(21.656799%, 63.949585%, 81.117249%)" offset="0.40625"/><stop stop-opacity="1" stop-color="rgb(21.513367%, 63.719177%, 81.030273%)" offset="0.410156"/><stop stop-opacity="1" stop-color="rgb(21.37146%, 63.490295%, 80.943298%)" offset="0.414062"/><stop stop-opacity="1" stop-color="rgb(21.229553%, 63.259888%, 80.854797%)" offset="0.417969"/><stop stop-opacity="1" stop-color="rgb(21.087646%, 63.02948%, 80.767822%)" offset="0.421875"/><stop stop-opacity="1" stop-color="rgb(20.944214%, 62.799072%, 80.680847%)" offset="0.425781"/><stop stop-opacity="1" stop-color="rgb(20.802307%, 62.57019%, 80.593872%)" offset="0.429687"/><stop stop-opacity="1" stop-color="rgb(20.658875%, 62.339783%, 80.505371%)" offset="0.433594"/><stop stop-opacity="1" stop-color="rgb(20.516968%, 62.110901%, 80.418396%)" offset="0.4375"/><stop stop-opacity="1" stop-color="rgb(20.373535%, 61.880493%, 80.331421%)" offset="0.441406"/><stop stop-opacity="1" stop-color="rgb(20.231628%, 61.651611%, 80.244446%)" offset="0.445312"/><stop stop-opacity="1" stop-color="rgb(20.089722%, 61.421204%, 80.155945%)" offset="0.449219"/><stop stop-opacity="1" stop-color="rgb(19.947815%, 61.192322%, 80.06897%)" offset="0.453125"/><stop stop-opacity="1" stop-color="rgb(19.804382%, 60.961914%, 79.981995%)" offset="0.457031"/><stop stop-opacity="1" stop-color="rgb(19.662476%, 60.733032%, 79.89502%)" offset="0.460937"/><stop stop-opacity="1" stop-color="rgb(19.519043%, 60.502625%, 79.808044%)" offset="0.464844"/><stop stop-opacity="1" stop-color="rgb(19.377136%, 60.273743%, 79.721069%)" offset="0.46875"/><stop stop-opacity="1" stop-color="rgb(19.235229%, 60.043335%, 79.632568%)" offset="0.472656"/><stop stop-opacity="1" stop-color="rgb(19.093323%, 59.814453%, 79.545593%)" offset="0.476562"/><stop stop-opacity="1" stop-color="rgb(18.94989%, 59.584045%, 79.458618%)" offset="0.480469"/><stop stop-opacity="1" stop-color="rgb(18.807983%, 59.355164%, 79.371643%)" offset="0.484375"/><stop stop-opacity="1" stop-color="rgb(18.664551%, 59.124756%, 79.283142%)" offset="0.488281"/><stop stop-opacity="1" stop-color="rgb(18.522644%, 58.895874%, 79.196167%)" offset="0.492187"/><stop stop-opacity="1" stop-color="rgb(18.380737%, 58.665466%, 79.109192%)" offset="0.496094"/><stop stop-opacity="1" stop-color="rgb(18.238831%, 58.436584%, 79.022217%)" offset="0.5"/><stop stop-opacity="1" stop-color="rgb(18.095398%, 58.206177%, 78.933716%)" offset="0.503906"/><stop stop-opacity="1" stop-color="rgb(17.953491%, 57.975769%, 78.846741%)" offset="0.507812"/><stop stop-opacity="1" stop-color="rgb(17.810059%, 57.745361%, 78.759766%)" offset="0.511719"/><stop stop-opacity="1" stop-color="rgb(17.668152%, 57.516479%, 78.672791%)" offset="0.515625"/><stop stop-opacity="1" stop-color="rgb(17.526245%, 57.286072%, 78.58429%)" offset="0.519531"/><stop stop-opacity="1" stop-color="rgb(17.384338%, 57.05719%, 78.497314%)" offset="0.523438"/><stop stop-opacity="1" stop-color="rgb(17.240906%, 56.826782%, 78.410339%)" offset="0.527344"/><stop stop-opacity="1" stop-color="rgb(17.098999%, 56.5979%, 78.323364%)" offset="0.53125"/><stop stop-opacity="1" stop-color="rgb(16.955566%, 56.367493%, 78.234863%)" offset="0.535156"/><stop stop-opacity="1" stop-color="rgb(16.81366%, 56.138611%, 78.147888%)" offset="0.539062"/><stop stop-opacity="1" stop-color="rgb(16.671753%, 55.908203%, 78.060913%)" offset="0.542969"/><stop stop-opacity="1" stop-color="rgb(16.529846%, 55.679321%, 77.973938%)" offset="0.546875"/><stop stop-opacity="1" stop-color="rgb(16.386414%, 55.448914%, 77.886963%)" offset="0.550781"/><stop stop-opacity="1" stop-color="rgb(16.244507%, 55.220032%, 77.799988%)" offset="0.554688"/><stop stop-opacity="1" stop-color="rgb(16.101074%, 54.989624%, 77.711487%)" offset="0.558594"/><stop stop-opacity="1" stop-color="rgb(15.959167%, 54.760742%, 77.624512%)" offset="0.5625"/><stop stop-opacity="1" stop-color="rgb(15.817261%, 54.530334%, 77.537537%)" offset="0.566406"/><stop stop-opacity="1" stop-color="rgb(15.675354%, 54.301453%, 77.450562%)" offset="0.570312"/><stop stop-opacity="1" stop-color="rgb(15.531921%, 54.071045%, 77.362061%)" offset="0.574219"/><stop stop-opacity="1" stop-color="rgb(15.390015%, 53.842163%, 77.275085%)" offset="0.578125"/><stop stop-opacity="1" stop-color="rgb(15.246582%, 53.611755%, 77.18811%)" offset="0.582031"/><stop stop-opacity="1" stop-color="rgb(15.104675%, 53.382874%, 77.101135%)" offset="0.585938"/><stop stop-opacity="1" stop-color="rgb(14.962769%, 53.152466%, 77.012634%)" offset="0.589844"/><stop stop-opacity="1" stop-color="rgb(14.820862%, 52.923584%, 76.925659%)" offset="0.59375"/><stop stop-opacity="1" stop-color="rgb(14.677429%, 52.693176%, 76.838684%)" offset="0.597656"/><stop stop-opacity="1" stop-color="rgb(14.535522%, 52.462769%, 76.751709%)" offset="0.601562"/><stop stop-opacity="1" stop-color="rgb(14.39209%, 52.232361%, 76.663208%)" offset="0.605469"/><stop stop-opacity="1" stop-color="rgb(14.250183%, 52.003479%, 76.576233%)" offset="0.609375"/><stop stop-opacity="1" stop-color="rgb(14.10675%, 51.773071%, 76.489258%)" offset="0.613281"/><stop stop-opacity="1" stop-color="rgb(13.964844%, 51.544189%, 76.402283%)" offset="0.617188"/><stop stop-opacity="1" stop-color="rgb(13.822937%, 51.313782%, 76.313782%)" offset="0.621094"/><stop stop-opacity="1" stop-color="rgb(13.68103%, 51.0849%, 76.226807%)" offset="0.625"/><stop stop-opacity="1" stop-color="rgb(13.537598%, 50.854492%, 76.139832%)" offset="0.628906"/><stop stop-opacity="1" stop-color="rgb(13.395691%, 50.62561%, 76.052856%)" offset="0.632812"/><stop stop-opacity="1" stop-color="rgb(13.252258%, 50.395203%, 75.965881%)" offset="0.636719"/><stop stop-opacity="1" stop-color="rgb(13.110352%, 50.166321%, 75.878906%)" offset="0.640625"/><stop stop-opacity="1" stop-color="rgb(12.968445%, 49.935913%, 75.790405%)" offset="0.644531"/><stop stop-opacity="1" stop-color="rgb(12.826538%, 49.707031%, 75.70343%)" offset="0.648438"/><stop stop-opacity="1" stop-color="rgb(12.683105%, 49.476624%, 75.616455%)" offset="0.652344"/><stop stop-opacity="1" stop-color="rgb(12.541199%, 49.247742%, 75.52948%)" offset="0.65625"/><stop stop-opacity="1" stop-color="rgb(12.397766%, 49.017334%, 75.440979%)" offset="0.660156"/><stop stop-opacity="1" stop-color="rgb(12.255859%, 48.788452%, 75.354004%)" offset="0.664062"/><stop stop-opacity="1" stop-color="rgb(12.113953%, 48.558044%, 75.267029%)" offset="0.667969"/><stop stop-opacity="1" stop-color="rgb(11.972046%, 48.329163%, 75.180054%)" offset="0.671875"/><stop stop-opacity="1" stop-color="rgb(11.828613%, 48.098755%, 75.091553%)" offset="0.675781"/><stop stop-opacity="1" stop-color="rgb(11.686707%, 47.869873%, 75.004578%)" offset="0.679688"/><stop stop-opacity="1" stop-color="rgb(11.543274%, 47.639465%, 74.917603%)" offset="0.683594"/><stop stop-opacity="1" stop-color="rgb(11.401367%, 47.410583%, 74.830627%)" offset="0.6875"/><stop stop-opacity="1" stop-color="rgb(11.25946%, 47.180176%, 74.742126%)" offset="0.691406"/><stop stop-opacity="1" stop-color="rgb(11.117554%, 46.949768%, 74.655151%)" offset="0.695312"/><stop stop-opacity="1" stop-color="rgb(10.974121%, 46.71936%, 74.568176%)" offset="0.699219"/><stop stop-opacity="1" stop-color="rgb(10.832214%, 46.490479%, 74.481201%)" offset="0.703125"/><stop stop-opacity="1" stop-color="rgb(10.688782%, 46.260071%, 74.3927%)" offset="0.707031"/><stop stop-opacity="1" stop-color="rgb(10.546875%, 46.031189%, 74.305725%)" offset="0.710938"/><stop stop-opacity="1" stop-color="rgb(10.404968%, 45.800781%, 74.21875%)" offset="0.714844"/><stop stop-opacity="1" stop-color="rgb(10.263062%, 45.571899%, 74.131775%)" offset="0.71875"/><stop stop-opacity="1" stop-color="rgb(10.119629%, 45.341492%, 74.0448%)" offset="0.722656"/><stop stop-opacity="1" stop-color="rgb(9.977722%, 45.11261%, 73.957825%)" offset="0.726562"/><stop stop-opacity="1" stop-color="rgb(9.83429%, 44.882202%, 73.869324%)" offset="0.730469"/><stop stop-opacity="1" stop-color="rgb(9.692383%, 44.65332%, 73.782349%)" offset="0.734375"/><stop stop-opacity="1" stop-color="rgb(9.550476%, 44.422913%, 73.695374%)" offset="0.738281"/><stop stop-opacity="1" stop-color="rgb(9.408569%, 44.194031%, 73.608398%)" offset="0.742188"/><stop stop-opacity="1" stop-color="rgb(9.265137%, 43.963623%, 73.519897%)" offset="0.746094"/><stop stop-opacity="1" stop-color="rgb(9.12323%, 43.734741%, 73.432922%)" offset="0.75"/><stop stop-opacity="1" stop-color="rgb(8.979797%, 43.504333%, 73.345947%)" offset="0.753906"/><stop stop-opacity="1" stop-color="rgb(8.837891%, 43.275452%, 73.258972%)" offset="0.757812"/><stop stop-opacity="1" stop-color="rgb(8.695984%, 43.045044%, 73.170471%)" offset="0.761719"/><stop stop-opacity="1" stop-color="rgb(8.554077%, 42.816162%, 73.083496%)" offset="0.765625"/><stop stop-opacity="1" stop-color="rgb(8.410645%, 42.585754%, 72.996521%)" offset="0.769531"/><stop stop-opacity="1" stop-color="rgb(8.268738%, 42.356873%, 72.909546%)" offset="0.773438"/><stop stop-opacity="1" stop-color="rgb(8.125305%, 42.126465%, 72.821045%)" offset="0.777344"/><stop stop-opacity="1" stop-color="rgb(7.983398%, 41.896057%, 72.73407%)" offset="0.78125"/><stop stop-opacity="1" stop-color="rgb(7.839966%, 41.665649%, 72.647095%)" offset="0.785156"/><stop stop-opacity="1" stop-color="rgb(7.698059%, 41.436768%, 72.56012%)" offset="0.789063"/><stop stop-opacity="1" stop-color="rgb(7.556152%, 41.20636%, 72.471619%)" offset="0.792969"/><stop stop-opacity="1" stop-color="rgb(7.414246%, 40.977478%, 72.384644%)" offset="0.796875"/><stop stop-opacity="1" stop-color="rgb(7.270813%, 40.74707%, 72.297668%)" offset="0.800781"/><stop stop-opacity="1" stop-color="rgb(7.128906%, 40.518188%, 72.210693%)" offset="0.804688"/><stop stop-opacity="1" stop-color="rgb(6.985474%, 40.287781%, 72.122192%)" offset="0.808594"/><stop stop-opacity="1" stop-color="rgb(6.843567%, 40.058899%, 72.035217%)" offset="0.8125"/><stop stop-opacity="1" stop-color="rgb(6.70166%, 39.828491%, 71.948242%)" offset="0.816406"/><stop stop-opacity="1" stop-color="rgb(6.559753%, 39.599609%, 71.861267%)" offset="0.820313"/><stop stop-opacity="1" stop-color="rgb(6.416321%, 39.369202%, 71.774292%)" offset="0.824219"/><stop stop-opacity="1" stop-color="rgb(6.274414%, 39.14032%, 71.687317%)" offset="0.828125"/><stop stop-opacity="1" stop-color="rgb(6.130981%, 38.909912%, 71.598816%)" offset="0.832031"/><stop stop-opacity="1" stop-color="rgb(5.989075%, 38.68103%, 71.511841%)" offset="0.835938"/><stop stop-opacity="1" stop-color="rgb(5.847168%, 38.450623%, 71.424866%)" offset="0.839844"/><stop stop-opacity="1" stop-color="rgb(5.705261%, 38.221741%, 71.337891%)" offset="0.84375"/><stop stop-opacity="1" stop-color="rgb(5.561829%, 37.991333%, 71.24939%)" offset="0.847656"/><stop stop-opacity="1" stop-color="rgb(5.419922%, 37.762451%, 71.162415%)" offset="0.851563"/><stop stop-opacity="1" stop-color="rgb(5.276489%, 37.532043%, 71.075439%)" offset="0.855469"/><stop stop-opacity="1" stop-color="rgb(5.134583%, 37.303162%, 70.988464%)" offset="0.859375"/><stop stop-opacity="1" stop-color="rgb(4.992676%, 37.072754%, 70.899963%)" offset="0.863281"/><stop stop-opacity="1" stop-color="rgb(4.850769%, 36.843872%, 70.812988%)" offset="0.867188"/><stop stop-opacity="1" stop-color="rgb(4.707336%, 36.613464%, 70.726013%)" offset="0.871094"/><stop stop-opacity="1" stop-color="rgb(4.56543%, 36.383057%, 70.639038%)" offset="0.875"/><stop stop-opacity="1" stop-color="rgb(4.421997%, 36.152649%, 70.550537%)" offset="0.878906"/><stop stop-opacity="1" stop-color="rgb(4.28009%, 35.923767%, 70.463562%)" offset="0.882813"/><stop stop-opacity="1" stop-color="rgb(4.138184%, 35.693359%, 70.376587%)" offset="0.886719"/><stop stop-opacity="1" stop-color="rgb(3.996277%, 35.464478%, 70.289612%)" offset="0.890625"/><stop stop-opacity="1" stop-color="rgb(3.852844%, 35.23407%, 70.201111%)" offset="0.894531"/><stop stop-opacity="1" stop-color="rgb(3.710938%, 35.005188%, 70.114136%)" offset="0.898438"/><stop stop-opacity="1" stop-color="rgb(3.567505%, 34.77478%, 70.027161%)" offset="0.902344"/><stop stop-opacity="1" stop-color="rgb(3.425598%, 34.545898%, 69.940186%)" offset="0.90625"/><stop stop-opacity="1" stop-color="rgb(3.283691%, 34.315491%, 69.85321%)" offset="0.910156"/><stop stop-opacity="1" stop-color="rgb(3.141785%, 34.086609%, 69.766235%)" offset="0.914063"/><stop stop-opacity="1" stop-color="rgb(2.998352%, 33.856201%, 69.677734%)" offset="0.917969"/><stop stop-opacity="1" stop-color="rgb(2.856445%, 33.627319%, 69.590759%)" offset="0.921875"/><stop stop-opacity="1" stop-color="rgb(2.713013%, 33.396912%, 69.503784%)" offset="0.925781"/><stop stop-opacity="1" stop-color="rgb(2.571106%, 33.16803%, 69.416809%)" offset="0.929688"/><stop stop-opacity="1" stop-color="rgb(2.429199%, 32.937622%, 69.328308%)" offset="0.933594"/><stop stop-opacity="1" stop-color="rgb(2.287292%, 32.70874%, 69.241333%)" offset="0.9375"/><stop stop-opacity="1" stop-color="rgb(2.14386%, 32.478333%, 69.154358%)" offset="0.941406"/><stop stop-opacity="1" stop-color="rgb(2.001953%, 32.249451%, 69.067383%)" offset="0.945313"/><stop stop-opacity="1" stop-color="rgb(1.858521%, 32.019043%, 68.978882%)" offset="0.949219"/><stop stop-opacity="1" stop-color="rgb(1.716614%, 31.790161%, 68.891907%)" offset="0.953125"/><stop stop-opacity="1" stop-color="rgb(1.574707%, 31.559753%, 68.804932%)" offset="0.957031"/><stop stop-opacity="1" stop-color="rgb(1.4328%, 31.329346%, 68.717957%)" offset="0.960938"/><stop stop-opacity="1" stop-color="rgb(1.289368%, 31.098938%, 68.629456%)" offset="0.964844"/><stop stop-opacity="1" stop-color="rgb(1.147461%, 30.870056%, 68.54248%)" offset="0.96875"/><stop stop-opacity="1" stop-color="rgb(1.004028%, 30.639648%, 68.455505%)" offset="0.972656"/><stop stop-opacity="1" stop-color="rgb(0.862122%, 30.410767%, 68.36853%)" offset="0.976563"/><stop stop-opacity="1" stop-color="rgb(0.718689%, 30.180359%, 68.280029%)" offset="0.980469"/><stop stop-opacity="1" stop-color="rgb(0.576782%, 29.951477%, 68.193054%)" offset="0.984375"/><stop stop-opacity="1" stop-color="rgb(0.434875%, 29.721069%, 68.106079%)" offset="0.988281"/><stop stop-opacity="1" stop-color="rgb(0.292969%, 29.492188%, 68.019104%)" offset="0.992188"/><stop stop-opacity="1" stop-color="rgb(0.149536%, 29.26178%, 67.932129%)" offset="0.996094"/><stop stop-opacity="1" stop-color="rgb(0.00762939%, 29.032898%, 67.845154%)" offset="1"/></linearGradient><clipPath id="efa152ec20"><rect x="0" width="780" y="0" height="188"/></clipPath><clipPath id="21d81684dc"><rect x="0" width="246" y="0" height="78"/></clipPath><clipPath id="dbe18cf18d"><rect x="0" width="140" y="0" height="215"/></clipPath></defs><rect x="-81" width="972" fill="#ffffff" y="-80.999999" height="971.999992" fill-opacity="1"/><rect x="-81" fill="url(#c61f4fe863)" width="972" y="-80.999999" height="971.999992"/><g clip-path="url(#62f465763c)"><g clip-path="url(#4cc2ebf513)"><g transform="matrix(1, 0, 0, 1, 14, 346)"><g clip-path="url(#efa152ec20)"><g clip-path="url(#ab6a0f4858)"><g clip-path="url(#213d2345ca)"><path fill="url(#14cc9790ea)" d="M 0.191406 0.683594 L 0.191406 187.292969 L 779.257812 187.292969 L 779.257812 0.683594 Z M 0.191406 0.683594 " fill-rule="nonzero"/></g></g></g></g></g></g><g transform="matrix(1, 0, 0, 1, 282, 401)"><g clip-path="url(#21d81684dc)"><g fill="#ffffff" fill-opacity="1"><g transform="translate(0.721457, 62.070355)"><g><path d="M 4.5625 0 L 4.5625 -46.234375 L 22.25 -46.234375 C 25.59375 -46.234375 28.375 -45.707031 30.59375 -44.65625 C 32.8125 -43.613281 34.472656 -42.1875 35.578125 -40.375 C 36.691406 -38.570312 37.25 -36.523438 37.25 -34.234375 C 37.25 -32.359375 36.882812 -30.753906 36.15625 -29.421875 C 35.4375 -28.085938 34.46875 -27.003906 33.25 -26.171875 C 32.03125 -25.347656 30.664062 -24.757812 29.15625 -24.40625 L 29.15625 -23.953125 C 30.800781 -23.859375 32.378906 -23.351562 33.890625 -22.4375 C 35.398438 -21.53125 36.632812 -20.25 37.59375 -18.59375 C 38.5625 -16.9375 39.046875 -14.9375 39.046875 -12.59375 C 39.046875 -10.195312 38.46875 -8.046875 37.3125 -6.140625 C 36.15625 -4.242188 34.410156 -2.742188 32.078125 -1.640625 C 29.742188 -0.546875 26.804688 0 23.265625 0 Z M 12.9375 -7 L 21.9375 -7 C 24.976562 -7 27.171875 -7.582031 28.515625 -8.75 C 29.867188 -9.914062 30.546875 -11.414062 30.546875 -13.25 C 30.546875 -14.613281 30.207031 -15.847656 29.53125 -16.953125 C 28.851562 -18.066406 27.890625 -18.941406 26.640625 -19.578125 C 25.390625 -20.222656 23.898438 -20.546875 22.171875 -20.546875 L 12.9375 -20.546875 Z M 12.9375 -26.5625 L 21.21875 -26.5625 C 22.664062 -26.5625 23.96875 -26.828125 25.125 -27.359375 C 26.28125 -27.898438 27.191406 -28.660156 27.859375 -29.640625 C 28.535156 -30.628906 28.875 -31.800781 28.875 -33.15625 C 28.875 -34.945312 28.242188 -36.421875 26.984375 -37.578125 C 25.722656 -38.734375 23.859375 -39.3125 21.390625 -39.3125 L 12.9375 -39.3125 Z M 12.9375 -26.5625 "/></g></g></g><g fill="#ffffff" fill-opacity="1"><g transform="translate(42.503862, 62.070355)"><g><path d="M 14.171875 0.703125 C 11.972656 0.703125 10 0.304688 8.25 -0.484375 C 6.5 -1.273438 5.113281 -2.441406 4.09375 -3.984375 C 3.082031 -5.535156 2.578125 -7.453125 2.578125 -9.734375 C 2.578125 -11.679688 2.9375 -13.296875 3.65625 -14.578125 C 4.375 -15.859375 5.359375 -16.878906 6.609375 -17.640625 C 7.859375 -18.410156 9.269531 -18.992188 10.84375 -19.390625 C 12.414062 -19.796875 14.046875 -20.085938 15.734375 -20.265625 C 17.765625 -20.472656 19.410156 -20.664062 20.671875 -20.84375 C 21.941406 -21.019531 22.863281 -21.289062 23.4375 -21.65625 C 24.019531 -22.019531 24.3125 -22.597656 24.3125 -23.390625 L 24.3125 -23.515625 C 24.3125 -25.222656 23.804688 -26.539062 22.796875 -27.46875 C 21.785156 -28.40625 20.332031 -28.875 18.4375 -28.875 C 16.4375 -28.875 14.851562 -28.4375 13.6875 -27.5625 C 12.519531 -26.6875 11.734375 -25.65625 11.328125 -24.46875 L 3.703125 -25.546875 C 4.304688 -27.660156 5.300781 -29.425781 6.6875 -30.84375 C 8.070312 -32.269531 9.765625 -33.335938 11.765625 -34.046875 C 13.765625 -34.765625 15.972656 -35.125 18.390625 -35.125 C 20.066406 -35.125 21.734375 -34.925781 23.390625 -34.53125 C 25.046875 -34.144531 26.554688 -33.503906 27.921875 -32.609375 C 29.285156 -31.710938 30.382812 -30.492188 31.21875 -28.953125 C 32.0625 -27.421875 32.484375 -25.503906 32.484375 -23.203125 L 32.484375 0 L 24.625 0 L 24.625 -4.765625 L 24.359375 -4.765625 C 23.859375 -3.796875 23.160156 -2.894531 22.265625 -2.0625 C 21.367188 -1.226562 20.25 -0.554688 18.90625 -0.046875 C 17.5625 0.453125 15.984375 0.703125 14.171875 0.703125 Z M 16.296875 -5.296875 C 17.929688 -5.296875 19.351562 -5.625 20.5625 -6.28125 C 21.769531 -6.9375 22.695312 -7.804688 23.34375 -8.890625 C 24 -9.972656 24.328125 -11.15625 24.328125 -12.4375 L 24.328125 -16.515625 C 24.078125 -16.304688 23.644531 -16.113281 23.03125 -15.9375 C 22.425781 -15.757812 21.742188 -15.601562 20.984375 -15.46875 C 20.234375 -15.332031 19.488281 -15.207031 18.75 -15.09375 C 18.019531 -14.988281 17.382812 -14.898438 16.84375 -14.828125 C 15.625 -14.660156 14.53125 -14.390625 13.5625 -14.015625 C 12.601562 -13.640625 11.84375 -13.113281 11.28125 -12.4375 C 10.726562 -11.769531 10.453125 -10.910156 10.453125 -9.859375 C 10.453125 -8.359375 11 -7.222656 12.09375 -6.453125 C 13.195312 -5.679688 14.597656 -5.296875 16.296875 -5.296875 Z M 16.296875 -5.296875 "/></g></g></g><g fill="#ffffff" fill-opacity="1"><g transform="translate(79.026789, 62.070355)"><g><path d="M 12.375 -46.234375 L 12.375 0 L 4.203125 0 L 4.203125 -46.234375 Z M 12.375 -46.234375 "/></g></g></g><g fill="#ffffff" fill-opacity="1"><g transform="translate(95.595281, 62.070355)"><g><path d="M 14.171875 0.703125 C 11.972656 0.703125 10 0.304688 8.25 -0.484375 C 6.5 -1.273438 5.113281 -2.441406 4.09375 -3.984375 C 3.082031 -5.535156 2.578125 -7.453125 2.578125 -9.734375 C 2.578125 -11.679688 2.9375 -13.296875 3.65625 -14.578125 C 4.375 -15.859375 5.359375 -16.878906 6.609375 -17.640625 C 7.859375 -18.410156 9.269531 -18.992188 10.84375 -19.390625 C 12.414062 -19.796875 14.046875 -20.085938 15.734375 -20.265625 C 17.765625 -20.472656 19.410156 -20.664062 20.671875 -20.84375 C 21.941406 -21.019531 22.863281 -21.289062 23.4375 -21.65625 C 24.019531 -22.019531 24.3125 -22.597656 24.3125 -23.390625 L 24.3125 -23.515625 C 24.3125 -25.222656 23.804688 -26.539062 22.796875 -27.46875 C 21.785156 -28.40625 20.332031 -28.875 18.4375 -28.875 C 16.4375 -28.875 14.851562 -28.4375 13.6875 -27.5625 C 12.519531 -26.6875 11.734375 -25.65625 11.328125 -24.46875 L 3.703125 -25.546875 C 4.304688 -27.660156 5.300781 -29.425781 6.6875 -30.84375 C 8.070312 -32.269531 9.765625 -33.335938 11.765625 -34.046875 C 13.765625 -34.765625 15.972656 -35.125 18.390625 -35.125 C 20.066406 -35.125 21.734375 -34.925781 23.390625 -34.53125 C 25.046875 -34.144531 26.554688 -33.503906 27.921875 -32.609375 C 29.285156 -31.710938 30.382812 -30.492188 31.21875 -28.953125 C 32.0625 -27.421875 32.484375 -25.503906 32.484375 -23.203125 L 32.484375 0 L 24.625 0 L 24.625 -4.765625 L 24.359375 -4.765625 C 23.859375 -3.796875 23.160156 -2.894531 22.265625 -2.0625 C 21.367188 -1.226562 20.25 -0.554688 18.90625 -0.046875 C 17.5625 0.453125 15.984375 0.703125 14.171875 0.703125 Z M 16.296875 -5.296875 C 17.929688 -5.296875 19.351562 -5.625 20.5625 -6.28125 C 21.769531 -6.9375 22.695312 -7.804688 23.34375 -8.890625 C 24 -9.972656 24.328125 -11.15625 24.328125 -12.4375 L 24.328125 -16.515625 C 24.078125 -16.304688 23.644531 -16.113281 23.03125 -15.9375 C 22.425781 -15.757812 21.742188 -15.601562 20.984375 -15.46875 C 20.234375 -15.332031 19.488281 -15.207031 18.75 -15.09375 C 18.019531 -14.988281 17.382812 -14.898438 16.84375 -14.828125 C 15.625 -14.660156 14.53125 -14.390625 13.5625 -14.015625 C 12.601562 -13.640625 11.84375 -13.113281 11.28125 -12.4375 C 10.726562 -11.769531 10.453125 -10.910156 10.453125 -9.859375 C 10.453125 -8.359375 11 -7.222656 12.09375 -6.453125 C 13.195312 -5.679688 14.597656 -5.296875 16.296875 -5.296875 Z M 16.296875 -5.296875 "/></g></g></g><g fill="#ffffff" fill-opacity="1"><g transform="translate(132.118208, 62.070355)"><g><path d="M 12.375 -20.3125 L 12.375 0 L 4.203125 0 L 4.203125 -34.671875 L 12.015625 -34.671875 L 12.015625 -28.78125 L 12.421875 -28.78125 C 13.210938 -30.71875 14.484375 -32.257812 16.234375 -33.40625 C 17.992188 -34.550781 20.164062 -35.125 22.75 -35.125 C 25.144531 -35.125 27.234375 -34.609375 29.015625 -33.578125 C 30.796875 -32.554688 32.175781 -31.078125 33.15625 -29.140625 C 34.144531 -27.203125 34.632812 -24.847656 34.625 -22.078125 L 34.625 0 L 26.453125 0 L 26.453125 -20.8125 C 26.453125 -23.125 25.851562 -24.9375 24.65625 -26.25 C 23.457031 -27.5625 21.804688 -28.21875 19.703125 -28.21875 C 18.273438 -28.21875 17.007812 -27.90625 15.90625 -27.28125 C 14.800781 -26.65625 13.9375 -25.753906 13.3125 -24.578125 C 12.6875 -23.398438 12.375 -21.976562 12.375 -20.3125 Z M 12.375 -20.3125 "/></g></g></g><g fill="#ffffff" fill-opacity="1"><g transform="translate(170.875849, 62.070355)"><g><path d="M 19.328125 0.671875 C 15.859375 0.671875 12.882812 -0.0820312 10.40625 -1.59375 C 7.9375 -3.113281 6.035156 -5.21875 4.703125 -7.90625 C 3.367188 -10.59375 2.703125 -13.691406 2.703125 -17.203125 C 2.703125 -20.722656 3.378906 -23.832031 4.734375 -26.53125 C 6.085938 -29.226562 8.003906 -31.332031 10.484375 -32.84375 C 12.960938 -34.363281 15.894531 -35.125 19.28125 -35.125 C 22.09375 -35.125 24.582031 -34.609375 26.75 -33.578125 C 28.925781 -32.546875 30.660156 -31.09375 31.953125 -29.21875 C 33.253906 -27.34375 33.992188 -25.15625 34.171875 -22.65625 L 26.359375 -22.65625 C 26.046875 -24.332031 25.296875 -25.726562 24.109375 -26.84375 C 22.929688 -27.96875 21.359375 -28.53125 19.390625 -28.53125 C 17.722656 -28.53125 16.253906 -28.082031 14.984375 -27.1875 C 13.722656 -26.289062 12.742188 -25.003906 12.046875 -23.328125 C 11.347656 -21.660156 11 -19.660156 11 -17.328125 C 11 -14.972656 11.34375 -12.945312 12.03125 -11.25 C 12.71875 -9.5625 13.691406 -8.257812 14.953125 -7.34375 C 16.210938 -6.4375 17.691406 -5.984375 19.390625 -5.984375 C 20.585938 -5.984375 21.664062 -6.210938 22.625 -6.671875 C 23.582031 -7.128906 24.382812 -7.796875 25.03125 -8.671875 C 25.675781 -9.546875 26.117188 -10.601562 26.359375 -11.84375 L 34.171875 -11.84375 C 33.972656 -9.394531 33.25 -7.222656 32 -5.328125 C 30.757812 -3.441406 29.0625 -1.96875 26.90625 -0.90625 C 24.75 0.144531 22.222656 0.671875 19.328125 0.671875 Z M 19.328125 0.671875 "/></g></g></g><g fill="#ffffff" fill-opacity="1"><g transform="translate(207.579354, 62.070355)"><g><path d="M 19.546875 0.671875 C 16.066406 0.671875 13.066406 -0.0507812 10.546875 -1.5 C 8.023438 -2.945312 6.085938 -5.003906 4.734375 -7.671875 C 3.378906 -10.347656 2.703125 -13.5 2.703125 -17.125 C 2.703125 -20.695312 3.382812 -23.832031 4.75 -26.53125 C 6.113281 -29.226562 8.019531 -31.332031 10.46875 -32.84375 C 12.925781 -34.363281 15.8125 -35.125 19.125 -35.125 C 21.257812 -35.125 23.273438 -34.78125 25.171875 -34.09375 C 27.078125 -33.40625 28.765625 -32.347656 30.234375 -30.921875 C 31.703125 -29.492188 32.859375 -27.675781 33.703125 -25.46875 C 34.546875 -23.269531 34.96875 -20.648438 34.96875 -17.609375 L 34.96875 -15.09375 L 6.546875 -15.09375 L 6.546875 -20.609375 L 27.125 -20.609375 C 27.113281 -22.171875 26.773438 -23.566406 26.109375 -24.796875 C 25.453125 -26.023438 24.53125 -26.988281 23.34375 -27.6875 C 22.164062 -28.394531 20.796875 -28.75 19.234375 -28.75 C 17.554688 -28.75 16.085938 -28.347656 14.828125 -27.546875 C 13.566406 -26.742188 12.582031 -25.691406 11.875 -24.390625 C 11.175781 -23.085938 10.820312 -21.660156 10.8125 -20.109375 L 10.8125 -15.296875 C 10.8125 -13.285156 11.179688 -11.5625 11.921875 -10.125 C 12.660156 -8.6875 13.691406 -7.585938 15.015625 -6.828125 C 16.335938 -6.066406 17.882812 -5.6875 19.65625 -5.6875 C 20.84375 -5.6875 21.914062 -5.851562 22.875 -6.1875 C 23.84375 -6.53125 24.679688 -7.03125 25.390625 -7.6875 C 26.097656 -8.351562 26.632812 -9.175781 27 -10.15625 L 34.625 -9.296875 C 34.144531 -7.285156 33.226562 -5.53125 31.875 -4.03125 C 30.53125 -2.53125 28.8125 -1.367188 26.71875 -0.546875 C 24.632812 0.265625 22.242188 0.671875 19.546875 0.671875 Z M 19.546875 0.671875 "/></g></g></g></g></g><g transform="matrix(1, 0, 0, 1, 144, 91)"><g clip-path="url(#dbe18cf18d)"><g fill="#3ea6ff" fill-opacity="1"><g transform="translate(0.20131, 171.930464)"><g><path d="M 34.921875 -130.53125 L 66.484375 -31.359375 L 67.6875 -31.359375 L 99.296875 -130.53125 L 129.890625 -130.53125 L 84.890625 0 L 49.328125 0 L 4.265625 -130.53125 Z M 34.921875 -130.53125 "/></g></g></g></g></g><g fill="#ffffff" fill-opacity="1"><g transform="translate(257.266572, 244.652981)"><g><path d="M 4.21875 0 L 4.21875 -42.8125 L 32.078125 -42.8125 L 32.078125 -36.3125 L 11.984375 -36.3125 L 11.984375 -24.6875 L 30.625 -24.6875 L 30.625 -18.1875 L 11.984375 -18.1875 L 11.984375 -6.5 L 32.234375 -6.5 L 32.234375 0 Z M 4.21875 0 "/></g></g></g><g fill="#ffffff" fill-opacity="1"><g transform="translate(293.031898, 244.652981)"><g><path d="M 4.21875 0 L 4.21875 -42.8125 L 20.28125 -42.8125 C 23.570312 -42.8125 26.332031 -42.238281 28.5625 -41.09375 C 30.800781 -39.957031 32.492188 -38.359375 33.640625 -36.296875 C 34.796875 -34.242188 35.375 -31.851562 35.375 -29.125 C 35.375 -26.375 34.789062 -23.992188 33.625 -21.984375 C 32.46875 -19.972656 30.757812 -18.421875 28.5 -17.328125 C 26.238281 -16.234375 23.460938 -15.6875 20.171875 -15.6875 L 8.734375 -15.6875 L 8.734375 -22.125 L 19.125 -22.125 C 21.050781 -22.125 22.625 -22.390625 23.84375 -22.921875 C 25.070312 -23.460938 25.984375 -24.25 26.578125 -25.28125 C 27.171875 -26.320312 27.46875 -27.601562 27.46875 -29.125 C 27.46875 -30.644531 27.164062 -31.941406 26.5625 -33.015625 C 25.96875 -34.097656 25.054688 -34.921875 23.828125 -35.484375 C 22.609375 -36.054688 21.03125 -36.34375 19.09375 -36.34375 L 11.984375 -36.34375 L 11.984375 0 Z M 26.34375 -19.40625 L 36.9375 0 L 28.28125 0 L 17.875 -19.40625 Z M 26.34375 -19.40625 "/></g></g></g><g fill="#ffffff" fill-opacity="1"><g transform="translate(331.326505, 244.652981)"><g><path d="M 42.484375 -21.40625 C 42.484375 -16.789062 41.617188 -12.84375 39.890625 -9.5625 C 38.171875 -6.28125 35.832031 -3.769531 32.875 -2.03125 C 29.914062 -0.289062 26.5625 0.578125 22.8125 0.578125 C 19.0625 0.578125 15.703125 -0.289062 12.734375 -2.03125 C 9.773438 -3.78125 7.4375 -6.296875 5.71875 -9.578125 C 4 -12.867188 3.140625 -16.8125 3.140625 -21.40625 C 3.140625 -26.019531 4 -29.96875 5.71875 -33.25 C 7.4375 -36.53125 9.773438 -39.039062 12.734375 -40.78125 C 15.703125 -42.53125 19.0625 -43.40625 22.8125 -43.40625 C 26.5625 -43.40625 29.914062 -42.53125 32.875 -40.78125 C 35.832031 -39.039062 38.171875 -36.53125 39.890625 -33.25 C 41.617188 -29.96875 42.484375 -26.019531 42.484375 -21.40625 Z M 34.6875 -21.40625 C 34.6875 -24.65625 34.179688 -27.394531 33.171875 -29.625 C 32.160156 -31.863281 30.757812 -33.554688 28.96875 -34.703125 C 27.1875 -35.859375 25.132812 -36.4375 22.8125 -36.4375 C 20.476562 -36.4375 18.421875 -35.859375 16.640625 -34.703125 C 14.859375 -33.554688 13.460938 -31.863281 12.453125 -29.625 C 11.441406 -27.394531 10.9375 -24.65625 10.9375 -21.40625 C 10.9375 -18.15625 11.441406 -15.410156 12.453125 -13.171875 C 13.460938 -10.941406 14.859375 -9.25 16.640625 -8.09375 C 18.421875 -6.945312 20.476562 -6.375 22.8125 -6.375 C 25.132812 -6.375 27.1875 -6.945312 28.96875 -8.09375 C 30.757812 -9.25 32.160156 -10.941406 33.171875 -13.171875 C 34.179688 -15.410156 34.6875 -18.15625 34.6875 -21.40625 Z M 34.6875 -21.40625 "/></g></g></g><g fill="#ffffff" fill-opacity="1"><g transform="translate(376.937216, 244.652981)"><g><path d="M 27.5 -31.046875 C 27.300781 -32.867188 26.476562 -34.289062 25.03125 -35.3125 C 23.59375 -36.332031 21.722656 -36.84375 19.421875 -36.84375 C 17.804688 -36.84375 16.421875 -36.597656 15.265625 -36.109375 C 14.109375 -35.617188 13.222656 -34.953125 12.609375 -34.109375 C 11.992188 -33.273438 11.679688 -32.320312 11.671875 -31.25 C 11.671875 -30.363281 11.875 -29.59375 12.28125 -28.9375 C 12.695312 -28.28125 13.257812 -27.722656 13.96875 -27.265625 C 14.675781 -26.816406 15.460938 -26.4375 16.328125 -26.125 C 17.191406 -25.820312 18.0625 -25.566406 18.9375 -25.359375 L 22.953125 -24.359375 C 24.566406 -23.984375 26.125 -23.472656 27.625 -22.828125 C 29.125 -22.191406 30.46875 -21.382812 31.65625 -20.40625 C 32.851562 -19.425781 33.800781 -18.242188 34.5 -16.859375 C 35.195312 -15.484375 35.546875 -13.867188 35.546875 -12.015625 C 35.546875 -9.515625 34.90625 -7.3125 33.625 -5.40625 C 32.34375 -3.5 30.488281 -2.015625 28.0625 -0.953125 C 25.644531 0.109375 22.722656 0.640625 19.296875 0.640625 C 15.960938 0.640625 13.070312 0.125 10.625 -0.90625 C 8.1875 -1.9375 6.28125 -3.441406 4.90625 -5.421875 C 3.53125 -7.398438 2.785156 -9.8125 2.671875 -12.65625 L 10.3125 -12.65625 C 10.414062 -11.15625 10.875 -9.910156 11.6875 -8.921875 C 12.5 -7.929688 13.554688 -7.191406 14.859375 -6.703125 C 16.160156 -6.222656 17.617188 -5.984375 19.234375 -5.984375 C 20.921875 -5.984375 22.398438 -6.234375 23.671875 -6.734375 C 24.953125 -7.242188 25.953125 -7.957031 26.671875 -8.875 C 27.398438 -9.789062 27.769531 -10.859375 27.78125 -12.078125 C 27.769531 -13.191406 27.441406 -14.113281 26.796875 -14.84375 C 26.160156 -15.582031 25.265625 -16.195312 24.109375 -16.6875 C 22.960938 -17.1875 21.625 -17.628906 20.09375 -18.015625 L 15.21875 -19.28125 C 11.695312 -20.1875 8.914062 -21.5625 6.875 -23.40625 C 4.832031 -25.25 3.8125 -27.707031 3.8125 -30.78125 C 3.8125 -33.300781 4.492188 -35.507812 5.859375 -37.40625 C 7.234375 -39.300781 9.101562 -40.773438 11.46875 -41.828125 C 13.84375 -42.878906 16.53125 -43.40625 19.53125 -43.40625 C 22.5625 -43.40625 25.222656 -42.878906 27.515625 -41.828125 C 29.816406 -40.773438 31.617188 -39.316406 32.921875 -37.453125 C 34.234375 -35.597656 34.910156 -33.460938 34.953125 -31.046875 Z M 27.5 -31.046875 "/></g></g></g><g fill="#ffffff" fill-opacity="1"><g transform="translate(415.148213, 244.652981)"><g><path d="M 42.484375 -21.40625 C 42.484375 -16.789062 41.617188 -12.84375 39.890625 -9.5625 C 38.171875 -6.28125 35.832031 -3.769531 32.875 -2.03125 C 29.914062 -0.289062 26.5625 0.578125 22.8125 0.578125 C 19.0625 0.578125 15.703125 -0.289062 12.734375 -2.03125 C 9.773438 -3.78125 7.4375 -6.296875 5.71875 -9.578125 C 4 -12.867188 3.140625 -16.8125 3.140625 -21.40625 C 3.140625 -26.019531 4 -29.96875 5.71875 -33.25 C 7.4375 -36.53125 9.773438 -39.039062 12.734375 -40.78125 C 15.703125 -42.53125 19.0625 -43.40625 22.8125 -43.40625 C 26.5625 -43.40625 29.914062 -42.53125 32.875 -40.78125 C 35.832031 -39.039062 38.171875 -36.53125 39.890625 -33.25 C 41.617188 -29.96875 42.484375 -26.019531 42.484375 -21.40625 Z M 34.6875 -21.40625 C 34.6875 -24.65625 34.179688 -27.394531 33.171875 -29.625 C 32.160156 -31.863281 30.757812 -33.554688 28.96875 -34.703125 C 27.1875 -35.859375 25.132812 -36.4375 22.8125 -36.4375 C 20.476562 -36.4375 18.421875 -35.859375 16.640625 -34.703125 C 14.859375 -33.554688 13.460938 -31.863281 12.453125 -29.625 C 11.441406 -27.394531 10.9375 -24.65625 10.9375 -21.40625 C 10.9375 -18.15625 11.441406 -15.410156 12.453125 -13.171875 C 13.460938 -10.941406 14.859375 -9.25 16.640625 -8.09375 C 18.421875 -6.945312 20.476562 -6.375 22.8125 -6.375 C 25.132812 -6.375 27.1875 -6.945312 28.96875 -8.09375 C 30.757812 -9.25 32.160156 -10.941406 33.171875 -13.171875 C 34.179688 -15.410156 34.6875 -18.15625 34.6875 -21.40625 Z M 34.6875 -21.40625 "/></g></g></g><g fill="#ffffff" fill-opacity="1"><g transform="translate(460.758924, 244.652981)"><g><path d="M 4.21875 -42.8125 L 13.71875 -42.8125 L 26.421875 -11.796875 L 26.921875 -11.796875 L 39.640625 -42.8125 L 49.125 -42.8125 L 49.125 0 L 41.6875 0 L 41.6875 -29.421875 L 41.296875 -29.421875 L 29.453125 -0.125 L 23.890625 -0.125 L 12.0625 -29.484375 L 11.671875 -29.484375 L 11.671875 0 L 4.21875 0 Z M 4.21875 -42.8125 "/></g></g></g><g fill="#ffffff" fill-opacity="1"><g transform="translate(514.103816, 244.652981)"><g><path d="M 9.71875 0 L 1.4375 0 L 16.515625 -42.8125 L 26.09375 -42.8125 L 41.1875 0 L 32.90625 0 L 21.46875 -34.03125 L 21.140625 -34.03125 Z M 10 -16.78125 L 32.578125 -16.78125 L 32.578125 -10.5625 L 10 -10.5625 Z M 10 -16.78125 "/></g></g></g><g fill="#ededed" fill-opacity="1"><g transform="translate(198.906865, 663.687755)"><g><path d="M 6.0625 0 L 0.53125 -19.640625 L 4.359375 -19.640625 L 7.890625 -5.203125 L 8.078125 -5.203125 L 11.84375 -19.640625 L 15.328125 -19.640625 L 19.125 -5.203125 L 19.296875 -5.203125 L 22.828125 -19.640625 L 26.65625 -19.640625 L 21.109375 0 L 17.609375 0 L 13.671875 -13.78125 L 13.515625 -13.78125 L 9.578125 0 Z M 6.0625 0 "/></g></g></g><g fill="#ededed" fill-opacity="1"><g transform="translate(224.573936, 663.687755)"><g><path d="M 8.203125 0.28125 C 6.765625 0.28125 5.519531 -0.03125 4.46875 -0.65625 C 3.414062 -1.289062 2.597656 -2.175781 2.015625 -3.3125 C 1.441406 -4.457031 1.15625 -5.789062 1.15625 -7.3125 C 1.15625 -8.832031 1.441406 -10.160156 2.015625 -11.296875 C 2.597656 -12.441406 3.414062 -13.332031 4.46875 -13.96875 C 5.519531 -14.601562 6.765625 -14.921875 8.203125 -14.921875 C 9.640625 -14.921875 10.882812 -14.601562 11.9375 -13.96875 C 13 -13.332031 13.816406 -12.441406 14.390625 -11.296875 C 14.972656 -10.160156 15.265625 -8.832031 15.265625 -7.3125 C 15.265625 -5.789062 14.972656 -4.457031 14.390625 -3.3125 C 13.816406 -2.175781 13 -1.289062 11.9375 -0.65625 C 10.882812 -0.03125 9.640625 0.28125 8.203125 0.28125 Z M 8.21875 -2.5 C 9 -2.5 9.648438 -2.710938 10.171875 -3.140625 C 10.703125 -3.566406 11.097656 -4.144531 11.359375 -4.875 C 11.617188 -5.601562 11.75 -6.414062 11.75 -7.3125 C 11.75 -8.21875 11.617188 -9.035156 11.359375 -9.765625 C 11.097656 -10.492188 10.703125 -11.078125 10.171875 -11.515625 C 9.648438 -11.953125 9 -12.171875 8.21875 -12.171875 C 7.425781 -12.171875 6.765625 -11.953125 6.234375 -11.515625 C 5.710938 -11.078125 5.320312 -10.492188 5.0625 -9.765625 C 4.800781 -9.035156 4.671875 -8.21875 4.671875 -7.3125 C 4.671875 -6.414062 4.800781 -5.601562 5.0625 -4.875 C 5.320312 -4.144531 5.710938 -3.566406 6.234375 -3.140625 C 6.765625 -2.710938 7.425781 -2.5 8.21875 -2.5 Z M 8.21875 -2.5 "/></g></g></g><g fill="#ededed" fill-opacity="1"><g transform="translate(240.988596, 663.687755)"><g/></g></g><g fill="#ededed" fill-opacity="1"><g transform="translate(247.690611, 663.687755)"><g><path d="M 1.9375 0 L 1.9375 -19.640625 L 9.296875 -19.640625 C 10.804688 -19.640625 12.070312 -19.359375 13.09375 -18.796875 C 14.125 -18.234375 14.898438 -17.457031 15.421875 -16.46875 C 15.953125 -15.488281 16.21875 -14.378906 16.21875 -13.140625 C 16.21875 -11.878906 15.953125 -10.757812 15.421875 -9.78125 C 14.890625 -8.800781 14.109375 -8.03125 13.078125 -7.46875 C 12.046875 -6.914062 10.769531 -6.640625 9.25 -6.640625 L 4.375 -6.640625 L 4.375 -9.5625 L 8.765625 -9.5625 C 9.648438 -9.5625 10.375 -9.710938 10.9375 -10.015625 C 11.5 -10.328125 11.914062 -10.75 12.1875 -11.28125 C 12.457031 -11.820312 12.59375 -12.441406 12.59375 -13.140625 C 12.59375 -13.835938 12.457031 -14.445312 12.1875 -14.96875 C 11.914062 -15.5 11.5 -15.910156 10.9375 -16.203125 C 10.375 -16.503906 9.644531 -16.65625 8.75 -16.65625 L 5.5 -16.65625 L 5.5 0 Z M 1.9375 0 "/></g></g></g><g fill="#ededed" fill-opacity="1"><g transform="translate(265.064069, 663.687755)"><g><path d="M 5.25 -19.640625 L 5.25 0 L 1.78125 0 L 1.78125 -19.640625 Z M 5.25 -19.640625 "/></g></g></g><g fill="#ededed" fill-opacity="1"><g transform="translate(272.101658, 663.687755)"><g><path d="M 6.015625 0.296875 C 5.085938 0.296875 4.25 0.128906 3.5 -0.203125 C 2.757812 -0.535156 2.171875 -1.03125 1.734375 -1.6875 C 1.304688 -2.351562 1.09375 -3.164062 1.09375 -4.125 C 1.09375 -4.957031 1.242188 -5.644531 1.546875 -6.1875 C 1.859375 -6.738281 2.28125 -7.175781 2.8125 -7.5 C 3.34375 -7.820312 3.941406 -8.066406 4.609375 -8.234375 C 5.273438 -8.410156 5.96875 -8.535156 6.6875 -8.609375 C 7.550781 -8.703125 8.25 -8.785156 8.78125 -8.859375 C 9.320312 -8.929688 9.710938 -9.046875 9.953125 -9.203125 C 10.203125 -9.359375 10.328125 -9.601562 10.328125 -9.9375 L 10.328125 -9.984375 C 10.328125 -10.710938 10.113281 -11.273438 9.6875 -11.671875 C 9.257812 -12.066406 8.640625 -12.265625 7.828125 -12.265625 C 6.984375 -12.265625 6.3125 -12.078125 5.8125 -11.703125 C 5.320312 -11.335938 4.988281 -10.898438 4.8125 -10.390625 L 1.578125 -10.859375 C 1.828125 -11.753906 2.242188 -12.503906 2.828125 -13.109375 C 3.421875 -13.710938 4.140625 -14.164062 4.984375 -14.46875 C 5.835938 -14.769531 6.78125 -14.921875 7.8125 -14.921875 C 8.519531 -14.921875 9.222656 -14.835938 9.921875 -14.671875 C 10.628906 -14.503906 11.273438 -14.226562 11.859375 -13.84375 C 12.441406 -13.46875 12.910156 -12.953125 13.265625 -12.296875 C 13.617188 -11.648438 13.796875 -10.835938 13.796875 -9.859375 L 13.796875 0 L 10.453125 0 L 10.453125 -2.015625 L 10.34375 -2.015625 C 10.132812 -1.609375 9.835938 -1.226562 9.453125 -0.875 C 9.078125 -0.519531 8.601562 -0.234375 8.03125 -0.015625 C 7.457031 0.191406 6.785156 0.296875 6.015625 0.296875 Z M 6.921875 -2.25 C 7.617188 -2.25 8.222656 -2.390625 8.734375 -2.671875 C 9.242188 -2.953125 9.632812 -3.320312 9.90625 -3.78125 C 10.1875 -4.238281 10.328125 -4.738281 10.328125 -5.28125 L 10.328125 -7.015625 C 10.222656 -6.929688 10.039062 -6.847656 9.78125 -6.765625 C 9.519531 -6.691406 9.226562 -6.625 8.90625 -6.5625 C 8.59375 -6.507812 8.28125 -6.457031 7.96875 -6.40625 C 7.65625 -6.363281 7.382812 -6.328125 7.15625 -6.296875 C 6.632812 -6.222656 6.171875 -6.109375 5.765625 -5.953125 C 5.359375 -5.796875 5.035156 -5.570312 4.796875 -5.28125 C 4.554688 -5 4.4375 -4.632812 4.4375 -4.1875 C 4.4375 -3.550781 4.671875 -3.066406 5.140625 -2.734375 C 5.609375 -2.410156 6.203125 -2.25 6.921875 -2.25 Z M 6.921875 -2.25 "/></g></g></g><g fill="#ededed" fill-opacity="1"><g transform="translate(287.615051, 663.687755)"><g><path d="M 5.25 -8.625 L 5.25 0 L 1.78125 0 L 1.78125 -14.734375 L 5.09375 -14.734375 L 5.09375 -12.21875 L 5.265625 -12.21875 C 5.609375 -13.050781 6.148438 -13.707031 6.890625 -14.1875 C 7.640625 -14.675781 8.566406 -14.921875 9.671875 -14.921875 C 10.679688 -14.921875 11.566406 -14.703125 12.328125 -14.265625 C 13.085938 -13.828125 13.675781 -13.195312 14.09375 -12.375 C 14.507812 -11.550781 14.710938 -10.550781 14.703125 -9.375 L 14.703125 0 L 11.234375 0 L 11.234375 -8.84375 C 11.234375 -9.820312 10.976562 -10.585938 10.46875 -11.140625 C 9.96875 -11.703125 9.269531 -11.984375 8.375 -11.984375 C 7.757812 -11.984375 7.21875 -11.847656 6.75 -11.578125 C 6.28125 -11.316406 5.910156 -10.9375 5.640625 -10.4375 C 5.378906 -9.9375 5.25 -9.332031 5.25 -8.625 Z M 5.25 -8.625 "/></g></g></g><g fill="#ededed" fill-opacity="1"><g transform="translate(304.077651, 663.687755)"><g><path d="M 11.171875 -6.1875 L 11.171875 -14.734375 L 14.640625 -14.734375 L 14.640625 0 L 11.28125 0 L 11.28125 -2.625 L 11.125 -2.625 C 10.789062 -1.789062 10.242188 -1.113281 9.484375 -0.59375 C 8.722656 -0.0703125 7.789062 0.1875 6.6875 0.1875 C 5.726562 0.1875 4.878906 -0.0234375 4.140625 -0.453125 C 3.398438 -0.890625 2.820312 -1.519531 2.40625 -2.34375 C 1.988281 -3.164062 1.78125 -4.164062 1.78125 -5.34375 L 1.78125 -14.734375 L 5.25 -14.734375 L 5.25 -5.890625 C 5.25 -4.953125 5.503906 -4.207031 6.015625 -3.65625 C 6.523438 -3.113281 7.195312 -2.84375 8.03125 -2.84375 C 8.539062 -2.84375 9.035156 -2.960938 9.515625 -3.203125 C 9.992188 -3.453125 10.390625 -3.828125 10.703125 -4.328125 C 11.015625 -4.828125 11.171875 -5.445312 11.171875 -6.1875 Z M 11.171875 -6.1875 "/></g></g></g><g fill="#ededed" fill-opacity="1"><g transform="translate(320.501902, 663.687755)"><g><path d="M 5.25 -8.625 L 5.25 0 L 1.78125 0 L 1.78125 -14.734375 L 5.09375 -14.734375 L 5.09375 -12.21875 L 5.265625 -12.21875 C 5.609375 -13.050781 6.148438 -13.707031 6.890625 -14.1875 C 7.640625 -14.675781 8.566406 -14.921875 9.671875 -14.921875 C 10.679688 -14.921875 11.566406 -14.703125 12.328125 -14.265625 C 13.085938 -13.828125 13.675781 -13.195312 14.09375 -12.375 C 14.507812 -11.550781 14.710938 -10.550781 14.703125 -9.375 L 14.703125 0 L 11.234375 0 L 11.234375 -8.84375 C 11.234375 -9.820312 10.976562 -10.585938 10.46875 -11.140625 C 9.96875 -11.703125 9.269531 -11.984375 8.375 -11.984375 C 7.757812 -11.984375 7.21875 -11.847656 6.75 -11.578125 C 6.28125 -11.316406 5.910156 -10.9375 5.640625 -10.4375 C 5.378906 -9.9375 5.25 -9.332031 5.25 -8.625 Z M 5.25 -8.625 "/></g></g></g><g fill="#ededed" fill-opacity="1"><g transform="translate(336.964501, 663.687755)"><g><path d="M 8.1875 5.828125 C 6.9375 5.828125 5.863281 5.660156 4.96875 5.328125 C 4.082031 4.992188 3.363281 4.546875 2.8125 3.984375 C 2.269531 3.421875 1.894531 2.796875 1.6875 2.109375 L 4.8125 1.359375 C 4.957031 1.640625 5.160156 1.921875 5.421875 2.203125 C 5.691406 2.492188 6.054688 2.734375 6.515625 2.921875 C 6.972656 3.109375 7.550781 3.203125 8.25 3.203125 C 9.226562 3.203125 10.039062 2.960938 10.6875 2.484375 C 11.332031 2.015625 11.65625 1.234375 11.65625 0.140625 L 11.65625 -2.640625 L 11.484375 -2.640625 C 11.304688 -2.285156 11.046875 -1.921875 10.703125 -1.546875 C 10.359375 -1.171875 9.90625 -0.851562 9.34375 -0.59375 C 8.789062 -0.332031 8.09375 -0.203125 7.25 -0.203125 C 6.113281 -0.203125 5.085938 -0.46875 4.171875 -1 C 3.253906 -1.539062 2.523438 -2.34375 1.984375 -3.40625 C 1.441406 -4.46875 1.171875 -5.800781 1.171875 -7.40625 C 1.171875 -9.03125 1.441406 -10.398438 1.984375 -11.515625 C 2.523438 -12.628906 3.253906 -13.472656 4.171875 -14.046875 C 5.097656 -14.628906 6.128906 -14.921875 7.265625 -14.921875 C 8.117188 -14.921875 8.828125 -14.773438 9.390625 -14.484375 C 9.953125 -14.191406 10.398438 -13.84375 10.734375 -13.4375 C 11.066406 -13.03125 11.316406 -12.648438 11.484375 -12.296875 L 11.671875 -12.296875 L 11.671875 -14.734375 L 15.09375 -14.734375 L 15.09375 0.234375 C 15.09375 1.492188 14.789062 2.535156 14.1875 3.359375 C 13.59375 4.191406 12.773438 4.8125 11.734375 5.21875 C 10.691406 5.625 9.507812 5.828125 8.1875 5.828125 Z M 8.21875 -2.9375 C 8.945312 -2.9375 9.570312 -3.113281 10.09375 -3.46875 C 10.613281 -3.820312 11.003906 -4.332031 11.265625 -5 C 11.535156 -5.675781 11.671875 -6.488281 11.671875 -7.4375 C 11.671875 -8.363281 11.535156 -9.171875 11.265625 -9.859375 C 11.003906 -10.554688 10.617188 -11.097656 10.109375 -11.484375 C 9.597656 -11.878906 8.96875 -12.078125 8.21875 -12.078125 C 7.445312 -12.078125 6.800781 -11.875 6.28125 -11.46875 C 5.757812 -11.0625 5.367188 -10.507812 5.109375 -9.8125 C 4.847656 -9.113281 4.71875 -8.320312 4.71875 -7.4375 C 4.71875 -6.53125 4.847656 -5.738281 5.109375 -5.0625 C 5.378906 -4.394531 5.773438 -3.875 6.296875 -3.5 C 6.816406 -3.125 7.457031 -2.9375 8.21875 -2.9375 Z M 8.21875 -2.9375 "/></g></g></g><g fill="#ededed" fill-opacity="1"><g transform="translate(353.848976, 663.687755)"><g/></g></g><g fill="#ededed" fill-opacity="1"><g transform="translate(360.550991, 663.687755)"><g><path d="M 6.015625 0.296875 C 5.085938 0.296875 4.25 0.128906 3.5 -0.203125 C 2.757812 -0.535156 2.171875 -1.03125 1.734375 -1.6875 C 1.304688 -2.351562 1.09375 -3.164062 1.09375 -4.125 C 1.09375 -4.957031 1.242188 -5.644531 1.546875 -6.1875 C 1.859375 -6.738281 2.28125 -7.175781 2.8125 -7.5 C 3.34375 -7.820312 3.941406 -8.066406 4.609375 -8.234375 C 5.273438 -8.410156 5.96875 -8.535156 6.6875 -8.609375 C 7.550781 -8.703125 8.25 -8.785156 8.78125 -8.859375 C 9.320312 -8.929688 9.710938 -9.046875 9.953125 -9.203125 C 10.203125 -9.359375 10.328125 -9.601562 10.328125 -9.9375 L 10.328125 -9.984375 C 10.328125 -10.710938 10.113281 -11.273438 9.6875 -11.671875 C 9.257812 -12.066406 8.640625 -12.265625 7.828125 -12.265625 C 6.984375 -12.265625 6.3125 -12.078125 5.8125 -11.703125 C 5.320312 -11.335938 4.988281 -10.898438 4.8125 -10.390625 L 1.578125 -10.859375 C 1.828125 -11.753906 2.242188 -12.503906 2.828125 -13.109375 C 3.421875 -13.710938 4.140625 -14.164062 4.984375 -14.46875 C 5.835938 -14.769531 6.78125 -14.921875 7.8125 -14.921875 C 8.519531 -14.921875 9.222656 -14.835938 9.921875 -14.671875 C 10.628906 -14.503906 11.273438 -14.226562 11.859375 -13.84375 C 12.441406 -13.46875 12.910156 -12.953125 13.265625 -12.296875 C 13.617188 -11.648438 13.796875 -10.835938 13.796875 -9.859375 L 13.796875 0 L 10.453125 0 L 10.453125 -2.015625 L 10.34375 -2.015625 C 10.132812 -1.609375 9.835938 -1.226562 9.453125 -0.875 C 9.078125 -0.519531 8.601562 -0.234375 8.03125 -0.015625 C 7.457031 0.191406 6.785156 0.296875 6.015625 0.296875 Z M 6.921875 -2.25 C 7.617188 -2.25 8.222656 -2.390625 8.734375 -2.671875 C 9.242188 -2.953125 9.632812 -3.320312 9.90625 -3.78125 C 10.1875 -4.238281 10.328125 -4.738281 10.328125 -5.28125 L 10.328125 -7.015625 C 10.222656 -6.929688 10.039062 -6.847656 9.78125 -6.765625 C 9.519531 -6.691406 9.226562 -6.625 8.90625 -6.5625 C 8.59375 -6.507812 8.28125 -6.457031 7.96875 -6.40625 C 7.65625 -6.363281 7.382812 -6.328125 7.15625 -6.296875 C 6.632812 -6.222656 6.171875 -6.109375 5.765625 -5.953125 C 5.359375 -5.796875 5.035156 -5.570312 4.796875 -5.28125 C 4.554688 -5 4.4375 -4.632812 4.4375 -4.1875 C 4.4375 -3.550781 4.671875 -3.066406 5.140625 -2.734375 C 5.609375 -2.410156 6.203125 -2.25 6.921875 -2.25 Z M 6.921875 -2.25 "/></g></g></g><g fill="#ededed" fill-opacity="1"><g transform="translate(376.064384, 663.687755)"><g><path d="M 11.171875 -6.1875 L 11.171875 -14.734375 L 14.640625 -14.734375 L 14.640625 0 L 11.28125 0 L 11.28125 -2.625 L 11.125 -2.625 C 10.789062 -1.789062 10.242188 -1.113281 9.484375 -0.59375 C 8.722656 -0.0703125 7.789062 0.1875 6.6875 0.1875 C 5.726562 0.1875 4.878906 -0.0234375 4.140625 -0.453125 C 3.398438 -0.890625 2.820312 -1.519531 2.40625 -2.34375 C 1.988281 -3.164062 1.78125 -4.164062 1.78125 -5.34375 L 1.78125 -14.734375 L 5.25 -14.734375 L 5.25 -5.890625 C 5.25 -4.953125 5.503906 -4.207031 6.015625 -3.65625 C 6.523438 -3.113281 7.195312 -2.84375 8.03125 -2.84375 C 8.539062 -2.84375 9.035156 -2.960938 9.515625 -3.203125 C 9.992188 -3.453125 10.390625 -3.828125 10.703125 -4.328125 C 11.015625 -4.828125 11.171875 -5.445312 11.171875 -6.1875 Z M 11.171875 -6.1875 "/></g></g></g><g fill="#ededed" fill-opacity="1"><g transform="translate(392.488634, 663.687755)"><g><path d="M 9.25 -14.734375 L 9.25 -12.046875 L 0.53125 -12.046875 L 0.53125 -14.734375 Z M 2.71875 0 L 2.71875 -16.125 C 2.71875 -17.113281 2.921875 -17.9375 3.328125 -18.59375 C 3.742188 -19.25 4.300781 -19.738281 5 -20.0625 C 5.695312 -20.394531 6.46875 -20.5625 7.3125 -20.5625 C 7.914062 -20.5625 8.445312 -20.507812 8.90625 -20.40625 C 9.375 -20.3125 9.722656 -20.226562 9.953125 -20.15625 L 9.265625 -17.46875 C 9.117188 -17.507812 8.929688 -17.554688 8.703125 -17.609375 C 8.484375 -17.660156 8.234375 -17.6875 7.953125 -17.6875 C 7.304688 -17.6875 6.847656 -17.53125 6.578125 -17.21875 C 6.316406 -16.90625 6.1875 -16.460938 6.1875 -15.890625 L 6.1875 0 Z M 2.71875 0 "/></g></g></g><g fill="#ededed" fill-opacity="1"><g transform="translate(402.671106, 663.687755)"><g/></g></g><g fill="#ededed" fill-opacity="1"><g transform="translate(409.373109, 663.687755)"><g><path d="M 1.9375 0 L 1.9375 -19.640625 L 14.515625 -19.640625 L 14.515625 -16.65625 L 5.5 -16.65625 L 5.5 -11.328125 L 13.65625 -11.328125 L 13.65625 -8.34375 L 5.5 -8.34375 L 5.5 0 Z M 1.9375 0 "/></g></g></g><g fill="#ededed" fill-opacity="1"><g transform="translate(424.972802, 663.687755)"><g><path d="M 1.78125 0 L 1.78125 -14.734375 L 5.15625 -14.734375 L 5.15625 -12.265625 L 5.296875 -12.265625 C 5.566406 -13.117188 6.03125 -13.773438 6.6875 -14.234375 C 7.34375 -14.703125 8.09375 -14.9375 8.9375 -14.9375 C 9.125 -14.9375 9.335938 -14.925781 9.578125 -14.90625 C 9.816406 -14.894531 10.019531 -14.875 10.1875 -14.84375 L 10.1875 -11.65625 C 10.039062 -11.695312 9.804688 -11.738281 9.484375 -11.78125 C 9.171875 -11.820312 8.867188 -11.84375 8.578125 -11.84375 C 7.941406 -11.84375 7.367188 -11.707031 6.859375 -11.4375 C 6.359375 -11.164062 5.960938 -10.789062 5.671875 -10.3125 C 5.390625 -9.832031 5.25 -9.28125 5.25 -8.65625 L 5.25 0 Z M 1.78125 0 "/></g></g></g><g fill="#ededed" fill-opacity="1"><g transform="translate(435.068962, 663.687755)"><g><path d="M 8.296875 0.28125 C 6.828125 0.28125 5.554688 -0.0234375 4.484375 -0.640625 C 3.410156 -1.253906 2.585938 -2.128906 2.015625 -3.265625 C 1.441406 -4.398438 1.15625 -5.738281 1.15625 -7.28125 C 1.15625 -8.789062 1.441406 -10.117188 2.015625 -11.265625 C 2.597656 -12.410156 3.410156 -13.304688 4.453125 -13.953125 C 5.492188 -14.597656 6.71875 -14.921875 8.125 -14.921875 C 9.03125 -14.921875 9.882812 -14.773438 10.6875 -14.484375 C 11.5 -14.191406 12.21875 -13.738281 12.84375 -13.125 C 13.46875 -12.519531 13.957031 -11.75 14.3125 -10.8125 C 14.675781 -9.882812 14.859375 -8.773438 14.859375 -7.484375 L 14.859375 -6.421875 L 2.78125 -6.421875 L 2.78125 -8.75 L 11.53125 -8.75 C 11.519531 -9.414062 11.375 -10.007812 11.09375 -10.53125 C 10.8125 -11.050781 10.421875 -11.460938 9.921875 -11.765625 C 9.421875 -12.066406 8.835938 -12.21875 8.171875 -12.21875 C 7.460938 -12.21875 6.835938 -12.046875 6.296875 -11.703125 C 5.765625 -11.359375 5.347656 -10.910156 5.046875 -10.359375 C 4.753906 -9.804688 4.601562 -9.203125 4.59375 -8.546875 L 4.59375 -6.5 C 4.59375 -5.644531 4.75 -4.910156 5.0625 -4.296875 C 5.375 -3.691406 5.8125 -3.226562 6.375 -2.90625 C 6.9375 -2.582031 7.59375 -2.421875 8.34375 -2.421875 C 8.851562 -2.421875 9.3125 -2.488281 9.71875 -2.625 C 10.125 -2.769531 10.476562 -2.984375 10.78125 -3.265625 C 11.082031 -3.546875 11.3125 -3.894531 11.46875 -4.3125 L 14.703125 -3.953125 C 14.503906 -3.097656 14.117188 -2.347656 13.546875 -1.703125 C 12.972656 -1.066406 12.238281 -0.578125 11.34375 -0.234375 C 10.457031 0.109375 9.441406 0.28125 8.296875 0.28125 Z M 8.296875 0.28125 "/></g></g></g><g fill="#ededed" fill-opacity="1"><g transform="translate(451.071326, 663.687755)"><g><path d="M 1.78125 0 L 1.78125 -14.734375 L 5.25 -14.734375 L 5.25 0 Z M 3.53125 -16.8125 C 2.976562 -16.8125 2.503906 -16.992188 2.109375 -17.359375 C 1.710938 -17.734375 1.515625 -18.179688 1.515625 -18.703125 C 1.515625 -19.222656 1.710938 -19.664062 2.109375 -20.03125 C 2.503906 -20.394531 2.976562 -20.578125 3.53125 -20.578125 C 4.082031 -20.578125 4.554688 -20.394531 4.953125 -20.03125 C 5.347656 -19.664062 5.546875 -19.222656 5.546875 -18.703125 C 5.546875 -18.179688 5.347656 -17.734375 4.953125 -17.359375 C 4.554688 -16.992188 4.082031 -16.8125 3.53125 -16.8125 Z M 3.53125 -16.8125 "/></g></g></g><g fill="#ededed" fill-opacity="1"><g transform="translate(458.108939, 663.687755)"><g><path d="M 5.25 -8.625 L 5.25 0 L 1.78125 0 L 1.78125 -19.640625 L 5.171875 -19.640625 L 5.171875 -12.21875 L 5.34375 -12.21875 C 5.695312 -13.050781 6.234375 -13.707031 6.953125 -14.1875 C 7.679688 -14.675781 8.609375 -14.921875 9.734375 -14.921875 C 10.753906 -14.921875 11.644531 -14.707031 12.40625 -14.28125 C 13.164062 -13.851562 13.753906 -13.222656 14.171875 -12.390625 C 14.585938 -11.566406 14.796875 -10.5625 14.796875 -9.375 L 14.796875 0 L 11.328125 0 L 11.328125 -8.84375 C 11.328125 -9.832031 11.070312 -10.601562 10.5625 -11.15625 C 10.0625 -11.707031 9.351562 -11.984375 8.4375 -11.984375 C 7.820312 -11.984375 7.269531 -11.847656 6.78125 -11.578125 C 6.300781 -11.316406 5.925781 -10.9375 5.65625 -10.4375 C 5.382812 -9.9375 5.25 -9.332031 5.25 -8.625 Z M 5.25 -8.625 "/></g></g></g><g fill="#ededed" fill-opacity="1"><g transform="translate(474.657828, 663.687755)"><g><path d="M 8.296875 0.28125 C 6.828125 0.28125 5.554688 -0.0234375 4.484375 -0.640625 C 3.410156 -1.253906 2.585938 -2.128906 2.015625 -3.265625 C 1.441406 -4.398438 1.15625 -5.738281 1.15625 -7.28125 C 1.15625 -8.789062 1.441406 -10.117188 2.015625 -11.265625 C 2.597656 -12.410156 3.410156 -13.304688 4.453125 -13.953125 C 5.492188 -14.597656 6.71875 -14.921875 8.125 -14.921875 C 9.03125 -14.921875 9.882812 -14.773438 10.6875 -14.484375 C 11.5 -14.191406 12.21875 -13.738281 12.84375 -13.125 C 13.46875 -12.519531 13.957031 -11.75 14.3125 -10.8125 C 14.675781 -9.882812 14.859375 -8.773438 14.859375 -7.484375 L 14.859375 -6.421875 L 2.78125 -6.421875 L 2.78125 -8.75 L 11.53125 -8.75 C 11.519531 -9.414062 11.375 -10.007812 11.09375 -10.53125 C 10.8125 -11.050781 10.421875 -11.460938 9.921875 -11.765625 C 9.421875 -12.066406 8.835938 -12.21875 8.171875 -12.21875 C 7.460938 -12.21875 6.835938 -12.046875 6.296875 -11.703125 C 5.765625 -11.359375 5.347656 -10.910156 5.046875 -10.359375 C 4.753906 -9.804688 4.601562 -9.203125 4.59375 -8.546875 L 4.59375 -6.5 C 4.59375 -5.644531 4.75 -4.910156 5.0625 -4.296875 C 5.375 -3.691406 5.8125 -3.226562 6.375 -2.90625 C 6.9375 -2.582031 7.59375 -2.421875 8.34375 -2.421875 C 8.851562 -2.421875 9.3125 -2.488281 9.71875 -2.625 C 10.125 -2.769531 10.476562 -2.984375 10.78125 -3.265625 C 11.082031 -3.546875 11.3125 -3.894531 11.46875 -4.3125 L 14.703125 -3.953125 C 14.503906 -3.097656 14.117188 -2.347656 13.546875 -1.703125 C 12.972656 -1.066406 12.238281 -0.578125 11.34375 -0.234375 C 10.457031 0.109375 9.441406 0.28125 8.296875 0.28125 Z M 8.296875 0.28125 "/></g></g></g><g fill="#ededed" fill-opacity="1"><g transform="translate(490.660192, 663.687755)"><g><path d="M 1.78125 0 L 1.78125 -14.734375 L 5.25 -14.734375 L 5.25 0 Z M 3.53125 -16.8125 C 2.976562 -16.8125 2.503906 -16.992188 2.109375 -17.359375 C 1.710938 -17.734375 1.515625 -18.179688 1.515625 -18.703125 C 1.515625 -19.222656 1.710938 -19.664062 2.109375 -20.03125 C 2.503906 -20.394531 2.976562 -20.578125 3.53125 -20.578125 C 4.082031 -20.578125 4.554688 -20.394531 4.953125 -20.03125 C 5.347656 -19.664062 5.546875 -19.222656 5.546875 -18.703125 C 5.546875 -18.179688 5.347656 -17.734375 4.953125 -17.359375 C 4.554688 -16.992188 4.082031 -16.8125 3.53125 -16.8125 Z M 3.53125 -16.8125 "/></g></g></g><g fill="#ededed" fill-opacity="1"><g transform="translate(497.697782, 663.687755)"><g><path d="M 9.140625 -14.734375 L 9.140625 -12.046875 L 0.671875 -12.046875 L 0.671875 -14.734375 Z M 2.765625 -18.25 L 6.234375 -18.25 L 6.234375 -4.421875 C 6.234375 -3.960938 6.300781 -3.609375 6.4375 -3.359375 C 6.582031 -3.109375 6.773438 -2.9375 7.015625 -2.84375 C 7.253906 -2.757812 7.515625 -2.71875 7.796875 -2.71875 C 8.015625 -2.71875 8.210938 -2.734375 8.390625 -2.765625 C 8.578125 -2.796875 8.722656 -2.828125 8.828125 -2.859375 L 9.40625 -0.140625 C 9.21875 -0.078125 8.953125 -0.0078125 8.609375 0.0625 C 8.273438 0.144531 7.859375 0.191406 7.359375 0.203125 C 6.492188 0.222656 5.710938 0.09375 5.015625 -0.1875 C 4.316406 -0.476562 3.765625 -0.929688 3.359375 -1.546875 C 2.953125 -2.160156 2.753906 -2.929688 2.765625 -3.859375 Z M 2.765625 -18.25 "/></g></g></g><g fill="#ededed" fill-opacity="1"><g transform="translate(507.956929, 663.687755)"><g/></g></g><g fill="#ededed" fill-opacity="1"><g transform="translate(514.658955, 663.687755)"><g><path d="M 9.140625 -14.734375 L 9.140625 -12.046875 L 0.671875 -12.046875 L 0.671875 -14.734375 Z M 2.765625 -18.25 L 6.234375 -18.25 L 6.234375 -4.421875 C 6.234375 -3.960938 6.300781 -3.609375 6.4375 -3.359375 C 6.582031 -3.109375 6.773438 -2.9375 7.015625 -2.84375 C 7.253906 -2.757812 7.515625 -2.71875 7.796875 -2.71875 C 8.015625 -2.71875 8.210938 -2.734375 8.390625 -2.765625 C 8.578125 -2.796875 8.722656 -2.828125 8.828125 -2.859375 L 9.40625 -0.140625 C 9.21875 -0.078125 8.953125 -0.0078125 8.609375 0.0625 C 8.273438 0.144531 7.859375 0.191406 7.359375 0.203125 C 6.492188 0.222656 5.710938 0.09375 5.015625 -0.1875 C 4.316406 -0.476562 3.765625 -0.929688 3.359375 -1.546875 C 2.953125 -2.160156 2.753906 -2.929688 2.765625 -3.859375 Z M 2.765625 -18.25 "/></g></g></g><g fill="#ededed" fill-opacity="1"><g transform="translate(524.918125, 663.687755)"><g><path d="M 1.78125 0 L 1.78125 -14.734375 L 5.15625 -14.734375 L 5.15625 -12.265625 L 5.296875 -12.265625 C 5.566406 -13.117188 6.03125 -13.773438 6.6875 -14.234375 C 7.34375 -14.703125 8.09375 -14.9375 8.9375 -14.9375 C 9.125 -14.9375 9.335938 -14.925781 9.578125 -14.90625 C 9.816406 -14.894531 10.019531 -14.875 10.1875 -14.84375 L 10.1875 -11.65625 C 10.039062 -11.695312 9.804688 -11.738281 9.484375 -11.78125 C 9.171875 -11.820312 8.867188 -11.84375 8.578125 -11.84375 C 7.941406 -11.84375 7.367188 -11.707031 6.859375 -11.4375 C 6.359375 -11.164062 5.960938 -10.789062 5.671875 -10.3125 C 5.390625 -9.832031 5.25 -9.28125 5.25 -8.65625 L 5.25 0 Z M 1.78125 0 "/></g></g></g><g fill="#ededed" fill-opacity="1"><g transform="translate(535.627918, 663.687755)"><g><path d="M 1.78125 0 L 1.78125 -14.734375 L 5.25 -14.734375 L 5.25 0 Z M 3.53125 -16.8125 C 2.976562 -16.8125 2.503906 -16.992188 2.109375 -17.359375 C 1.710938 -17.734375 1.515625 -18.179688 1.515625 -18.703125 C 1.515625 -19.222656 1.710938 -19.664062 2.109375 -20.03125 C 2.503906 -20.394531 2.976562 -20.578125 3.53125 -20.578125 C 4.082031 -20.578125 4.554688 -20.394531 4.953125 -20.03125 C 5.347656 -19.664062 5.546875 -19.222656 5.546875 -18.703125 C 5.546875 -18.179688 5.347656 -17.734375 4.953125 -17.359375 C 4.554688 -16.992188 4.082031 -16.8125 3.53125 -16.8125 Z M 3.53125 -16.8125 "/></g></g></g><g fill="#ededed" fill-opacity="1"><g transform="translate(542.665507, 663.687755)"><g><path d="M 9.25 -14.734375 L 9.25 -12.046875 L 0.53125 -12.046875 L 0.53125 -14.734375 Z M 2.71875 0 L 2.71875 -16.125 C 2.71875 -17.113281 2.921875 -17.9375 3.328125 -18.59375 C 3.742188 -19.25 4.300781 -19.738281 5 -20.0625 C 5.695312 -20.394531 6.46875 -20.5625 7.3125 -20.5625 C 7.914062 -20.5625 8.445312 -20.507812 8.90625 -20.40625 C 9.375 -20.3125 9.722656 -20.226562 9.953125 -20.15625 L 9.265625 -17.46875 C 9.117188 -17.507812 8.929688 -17.554688 8.703125 -17.609375 C 8.484375 -17.660156 8.234375 -17.6875 7.953125 -17.6875 C 7.304688 -17.6875 6.847656 -17.53125 6.578125 -17.21875 C 6.316406 -16.90625 6.1875 -16.460938 6.1875 -15.890625 L 6.1875 0 Z M 2.71875 0 "/></g></g></g><g fill="#ededed" fill-opacity="1"><g transform="translate(552.847979, 663.687755)"><g><path d="M 9.25 -14.734375 L 9.25 -12.046875 L 0.53125 -12.046875 L 0.53125 -14.734375 Z M 2.71875 0 L 2.71875 -16.125 C 2.71875 -17.113281 2.921875 -17.9375 3.328125 -18.59375 C 3.742188 -19.25 4.300781 -19.738281 5 -20.0625 C 5.695312 -20.394531 6.46875 -20.5625 7.3125 -20.5625 C 7.914062 -20.5625 8.445312 -20.507812 8.90625 -20.40625 C 9.375 -20.3125 9.722656 -20.226562 9.953125 -20.15625 L 9.265625 -17.46875 C 9.117188 -17.507812 8.929688 -17.554688 8.703125 -17.609375 C 8.484375 -17.660156 8.234375 -17.6875 7.953125 -17.6875 C 7.304688 -17.6875 6.847656 -17.53125 6.578125 -17.21875 C 6.316406 -16.90625 6.1875 -16.460938 6.1875 -15.890625 L 6.1875 0 Z M 2.71875 0 "/></g></g></g><g fill="#ededed" fill-opacity="1"><g transform="translate(563.030428, 663.687755)"><g><path d="M 9.140625 -14.734375 L 9.140625 -12.046875 L 0.671875 -12.046875 L 0.671875 -14.734375 Z M 2.765625 -18.25 L 6.234375 -18.25 L 6.234375 -4.421875 C 6.234375 -3.960938 6.300781 -3.609375 6.4375 -3.359375 C 6.582031 -3.109375 6.773438 -2.9375 7.015625 -2.84375 C 7.253906 -2.757812 7.515625 -2.71875 7.796875 -2.71875 C 8.015625 -2.71875 8.210938 -2.734375 8.390625 -2.765625 C 8.578125 -2.796875 8.722656 -2.828125 8.828125 -2.859375 L 9.40625 -0.140625 C 9.21875 -0.078125 8.953125 -0.0078125 8.609375 0.0625 C 8.273438 0.144531 7.859375 0.191406 7.359375 0.203125 C 6.492188 0.222656 5.710938 0.09375 5.015625 -0.1875 C 4.316406 -0.476562 3.765625 -0.929688 3.359375 -1.546875 C 2.953125 -2.160156 2.753906 -2.929688 2.765625 -3.859375 Z M 2.765625 -18.25 "/></g></g></g><g fill="#ededed" fill-opacity="1"><g transform="translate(573.289598, 663.687755)"><g><path d="M 3.921875 0.203125 C 3.335938 0.203125 2.835938 0 2.421875 -0.40625 C 2.003906 -0.8125 1.800781 -1.304688 1.8125 -1.890625 C 1.800781 -2.472656 2.003906 -2.96875 2.421875 -3.375 C 2.835938 -3.78125 3.335938 -3.984375 3.921875 -3.984375 C 4.484375 -3.984375 4.972656 -3.78125 5.390625 -3.375 C 5.804688 -2.96875 6.019531 -2.472656 6.03125 -1.890625 C 6.019531 -1.503906 5.914062 -1.148438 5.71875 -0.828125 C 5.53125 -0.515625 5.273438 -0.265625 4.953125 -0.078125 C 4.640625 0.109375 4.296875 0.203125 3.921875 0.203125 Z M 3.921875 0.203125 "/></g></g></g></svg>